{"accessors":[{"bufferView":0,"byteOffset":0,"componentType":5126,"count":132,"max":[0.0013000000000000002,0.0012995959366010612,0.00165],"min":[-0.0013000000000000002,-0.0012995959366010614,0.00165],"type":"VEC3"},{"bufferView":0,"byteOffset":1584,"componentType":5126,"count":1772,"max":[0.00285,0.0028491141687023267,0.00165],"min":[-0.00285,-0.002849114168702327,-2.2204460492500006e-19],"type":"VEC3"},{"bufferView":0,"byteOffset":22848,"componentType":5126,"count":4,"max":[0.001200888559914,0.0,0.00165],"min":[0.000600444279957,-0.0010400000000000001,0.00061],"type":"VEC3"},{"bufferView":0,"byteOffset":22896,"componentType":5126,"count":4,"max":[0.000600444279957,-0.0010400000000000001,0.00165],"min":[-0.000600444279957,-0.0010400000000000001,0.00061],"type":"VEC3"},{"bufferView":0,"byteOffset":22944,"componentType":5126,"count":4,"max":[-0.000600444279957,1.470664331032e-19,0.00165],"min":[-0.001200888559914,-0.0010400000000000001,0.00061],"type":"VEC3"},{"bufferView":0,"byteOffset":22992,"componentType":5126,"count":4,"max":[-0.000600444279957,0.0010400000000000001,0.00165],"min":[-0.001200888559914,1.470664331032e-19,0.00061],"type":"VEC3"},{"bufferView":0,"byteOffset":23040,"componentType":5126,"count":4,"max":[0.000600444279957,0.0010400000000000001,0.00165],"min":[-0.000600444279957,0.0010400000000000001,0.00061],"type":"VEC3"},{"bufferView":0,"byteOffset":23088,"componentType":5126,"count":4,"max":[0.001200888559914,0.0010400000000000001,0.00165],"min":[0.000600444279957,0.0,0.00061],"type":"VEC3"},{"bufferView":0,"byteOffset":23136,"componentType":5126,"count":252,"max":[0.00285,0.0028491141687023267,0.0],"min":[-0.00285,-0.002849114168702327,-2.2204460492500006e-19],"type":"VEC3"},{"bufferView":0,"byteOffset":26160,"componentType":5126,"count":6,"max":[0.001200888559914,0.0010400000000000001,0.00061],"min":[-0.001200888559914,-0.0010400000000000001,0.00061],"type":"VEC3"},{"bufferView":0,"byteOffset":26232,"componentType":5126,"count":254,"max":[0.001229367061317,0.001228984951906739,0.0],"min":[-0.001229367061317,-0.0012289849519067392,-0.01],"type":"VEC3"},{"bufferView":0,"byteOffset":29280,"componentType":5126,"count":126,"max":[0.001229367061317,0.001228984951906739,-0.01],"min":[-0.001229367061317,-0.0012289849519067392,-0.01],"type":"VEC3"},{"bufferView":1,"byteOffset":0,"componentType":5126,"count":132,"type":"VEC3"},{"bufferView":1,"byteOffset":1584,"componentType":5126,"count":1772,"type":"VEC3"},{"bufferView":1,"byteOffset":22848,"componentType":5126,"count":4,"type":"VEC3"},{"bufferView":1,"byteOffset":22896,"componentType":5126,"count":4,"type":"VEC3"},{"bufferView":1,"byteOffset":22944,"componentType":5126,"count":4,"type":"VEC3"},{"bufferView":1,"byteOffset":22992,"componentType":5126,"count":4,"type":"VEC3"},{"bufferView":1,"byteOffset":23040,"componentType":5126,"count":4,"type":"VEC3"},{"bufferView":1,"byteOffset":23088,"componentType":5126,"count":4,"type":"VEC3"},{"bufferView":1,"byteOffset":23136,"componentType":5126,"count":252,"type":"VEC3"},{"bufferView":1,"byteOffset":26160,"componentType":5126,"count":6,"type":"VEC3"},{"bufferView":1,"byteOffset":26232,"componentType":5126,"count":254,"type":"VEC3"},{"bufferView":1,"byteOffset":29280,"componentType":5126,"count":126,"type":"VEC3"},{"bufferView":2,"byteOffset":0,"componentType":5123,"count":396,"type":"SCALAR"},{"bufferView":2,"byteOffset":792,"componentType":5123,"count":9792,"type":"SCALAR"},{"bufferView":2,"byteOffset":20376,"componentType":5123,"count":6,"type":"SCALAR"},{"bufferView":2,"byteOffset":20388,"componentType":5123,"count":6,"type":"SCALAR"},{"bufferView":2,"byteOffset":20400,"componentType":5123,"count":6,"type":"SCALAR"},{"bufferView":2,"byteOffset":20412,"componentType":5123,"count":6,"type":"SCALAR"},{"bufferView":2,"byteOffset":20424,"componentType":5123,"count":6,"type":"SCALAR"},{"bufferView":2,"byteOffset":20436,"componentType":5123,"count":6,"type":"SCALAR"},{"bufferView":2,"byteOffset":20448,"componentType":5123,"count":756,"type":"SCALAR"},{"bufferView":2,"byteOffset":21960,"componentType":5123,"count":12,"type":"SCALAR"},{"bufferView":2,"byteOffset":21984,"componentType":5123,"count":756,"type":"SCALAR"},{"bufferView":2,"byteOffset":23496,"componentType":5123,"count":372,"type":"SCALAR"}],"asset":{"generator":"Open CASCADE Technology 7.8 [dev.opencascade.org]","version":"2.0"},"bufferViews":[{"buffer":0,"byteLength":30792,"byteOffset":0,"byteStride":12,"target":34962},{"buffer":0,"byteLength":30792,"byteOffset":30792,"byteStride":12,"target":34962},{"buffer":0,"byteLength":24240,"byteOffset":61584,"target":34963}],"buffers":[{"byteLength":85824,"uri":"button_head_screw_M3x10.bin"}],"materials":[{"name":"mat_0","pbrMetallicRoughness":{"baseColorFactor":[0.7529411911964417,0.7529411911964417,0.7529411911964417,1.0]},"doubleSided":true}],"meshes":[{"name":"ButtonHeadScrew_M3-0_5,_10_00,_iso7380_1_","primitives":[{"attributes":{"NORMAL":12,"POSITION":0},"indices":24,"material":0,"mode":4},{"attributes":{"NORMAL":13,"POSITION":1},"indices":25,"material":0,"mode":4},{"attributes":{"NORMAL":14,"POSITION":2},"indices":26,"material":0,"mode":4},{"attributes":{"NORMAL":15,"POSITION":3},"indices":27,"material":0,"mode":4},{"attributes":{"NORMAL":16,"POSITION":4},"indices":28,"material":0,"mode":4},{"attributes":{"NORMAL":17,"POSITION":5},"indices":29,"material":0,"mode":4},{"attributes":{"NORMAL":18,"POSITION":6},"indices":30,"material":0,"mode":4},{"attributes":{"NORMAL":19,"POSITION":7},"indices":31,"material":0,"mode":4},{"attributes":{"NORMAL":20,"POSITION":8},"indices":32,"material":0,"mode":4},{"attributes":{"NORMAL":21,"POSITION":9},"indices":33,"material":0,"mode":4},{"attributes":{"NORMAL":22,"POSITION":10},"indices":34,"material":0,"mode":4},{"attributes":{"NORMAL":23,"POSITION":11},"indices":35,"material":0,"mode":4}]}],"nodes":[{"rotation":[-0.7071067811865475,0.0,0.0,0.7071067811865475],"mesh":0,"name":"=>[0:1:1:2]"}],"scene":0,"scenes":[{"nodes":[0]}]}