{"accessors":[{"bufferView":0,"byteOffset":0,"componentType":5126,"count":132,"max":[0.003,0.0029990675460024488,0.0033],"min":[-0.003,-0.0029990675460024496,0.0033],"type":"VEC3"},{"bufferView":0,"byteOffset":1584,"componentType":5126,"count":1894,"max":[0.00525,0.005248368205504285,0.0033],"min":[-0.00525,-0.005248368205504287,-4.440892098501001e-19],"type":"VEC3"},{"bufferView":0,"byteOffset":24312,"componentType":5126,"count":4,"max":[0.002364249352332,0.0,0.0033],"min":[0.001182124676166,-0.0020475,0.00122],"type":"VEC3"},{"bufferView":0,"byteOffset":24360,"componentType":5126,"count":4,"max":[0.001182124676166,-0.0020475,0.0033],"min":[-0.001182124676166,-0.0020475,0.00122],"type":"VEC3"},{"bufferView":0,"byteOffset":24408,"componentType":5126,"count":4,"max":[-0.001182124676166,2.895370401719e-19,0.0033],"min":[-0.002364249352332,-0.0020475,0.00122],"type":"VEC3"},{"bufferView":0,"byteOffset":24456,"componentType":5126,"count":4,"max":[-0.001182124676166,0.0020475,0.0033],"min":[-0.002364249352332,2.895370401719e-19,0.00122],"type":"VEC3"},{"bufferView":0,"byteOffset":24504,"componentType":5126,"count":4,"max":[0.001182124676166,0.0020475,0.0033],"min":[-0.001182124676166,0.0020475,0.00122],"type":"VEC3"},{"bufferView":0,"byteOffset":24552,"componentType":5126,"count":4,"max":[0.002364249352332,0.0020475,0.0033],"min":[0.001182124676166,0.0,0.00122],"type":"VEC3"},{"bufferView":0,"byteOffset":24600,"componentType":5126,"count":252,"max":[0.00525,0.005248368205504285,0.0],"min":[-0.00525,-0.005248368205504287,-4.440892098501001e-19],"type":"VEC3"},{"bufferView":0,"byteOffset":27624,"componentType":5126,"count":6,"max":[0.002364249352332,0.0020475,0.00122],"min":[-0.002364249352332,-0.0020475,0.00122],"type":"VEC3"},{"bufferView":0,"byteOffset":27696,"componentType":5126,"count":254,"max":[0.002458734122635,0.0024579699038144776,0.0],"min":[-0.002458734122635,-0.0024579699038144785,-0.016],"type":"VEC3"},{"bufferView":0,"byteOffset":30744,"componentType":5126,"count":126,"max":[0.002458734122635,0.0024579699038144776,-0.016],"min":[-0.002458734122635,-0.0024579699038144785,-0.016],"type":"VEC3"},{"bufferView":1,"byteOffset":0,"componentType":5126,"count":132,"type":"VEC3"},{"bufferView":1,"byteOffset":1584,"componentType":5126,"count":1894,"type":"VEC3"},{"bufferView":1,"byteOffset":24312,"componentType":5126,"count":4,"type":"VEC3"},{"bufferView":1,"byteOffset":24360,"componentType":5126,"count":4,"type":"VEC3"},{"bufferView":1,"byteOffset":24408,"componentType":5126,"count":4,"type":"VEC3"},{"bufferView":1,"byteOffset":24456,"componentType":5126,"count":4,"type":"VEC3"},{"bufferView":1,"byteOffset":24504,"componentType":5126,"count":4,"type":"VEC3"},{"bufferView":1,"byteOffset":24552,"componentType":5126,"count":4,"type":"VEC3"},{"bufferView":1,"byteOffset":24600,"componentType":5126,"count":252,"type":"VEC3"},{"bufferView":1,"byteOffset":27624,"componentType":5126,"count":6,"type":"VEC3"},{"bufferView":1,"byteOffset":27696,"componentType":5126,"count":254,"type":"VEC3"},{"bufferView":1,"byteOffset":30744,"componentType":5126,"count":126,"type":"VEC3"},{"bufferView":2,"byteOffset":0,"componentType":5123,"count":396,"type":"SCALAR"},{"bufferView":2,"byteOffset":792,"componentType":5123,"count":10518,"type":"SCALAR"},{"bufferView":2,"byteOffset":21828,"componentType":5123,"count":6,"type":"SCALAR"},{"bufferView":2,"byteOffset":21840,"componentType":5123,"count":6,"type":"SCALAR"},{"bufferView":2,"byteOffset":21852,"componentType":5123,"count":6,"type":"SCALAR"},{"bufferView":2,"byteOffset":21864,"componentType":5123,"count":6,"type":"SCALAR"},{"bufferView":2,"byteOffset":21876,"componentType":5123,"count":6,"type":"SCALAR"},{"bufferView":2,"byteOffset":21888,"componentType":5123,"count":6,"type":"SCALAR"},{"bufferView":2,"byteOffset":21900,"componentType":5123,"count":756,"type":"SCALAR"},{"bufferView":2,"byteOffset":23412,"componentType":5123,"count":12,"type":"SCALAR"},{"bufferView":2,"byteOffset":23436,"componentType":5123,"count":756,"type":"SCALAR"},{"bufferView":2,"byteOffset":24948,"componentType":5123,"count":372,"type":"SCALAR"}],"asset":{"generator":"Open CASCADE Technology 7.8 [dev.opencascade.org]","version":"2.0"},"bufferViews":[{"buffer":0,"byteLength":32256,"byteOffset":0,"byteStride":12,"target":34962},{"buffer":0,"byteLength":32256,"byteOffset":32256,"byteStride":12,"target":34962},{"buffer":0,"byteLength":25692,"byteOffset":64512,"target":34963}],"buffers":[{"byteLength":90204,"uri":"button_head_screw_M6x16.bin"}],"materials":[{"name":"mat_0","pbrMetallicRoughness":{"baseColorFactor":[0.7529411911964417,0.7529411911964417,0.7529411911964417,1.0]},"doubleSided":true}],"meshes":[{"name":"ButtonHeadScrew_M6-1,_16_00,_iso7380_1_","primitives":[{"attributes":{"NORMAL":12,"POSITION":0},"indices":24,"material":0,"mode":4},{"attributes":{"NORMAL":13,"POSITION":1},"indices":25,"material":0,"mode":4},{"attributes":{"NORMAL":14,"POSITION":2},"indices":26,"material":0,"mode":4},{"attributes":{"NORMAL":15,"POSITION":3},"indices":27,"material":0,"mode":4},{"attributes":{"NORMAL":16,"POSITION":4},"indices":28,"material":0,"mode":4},{"attributes":{"NORMAL":17,"POSITION":5},"indices":29,"material":0,"mode":4},{"attributes":{"NORMAL":18,"POSITION":6},"indices":30,"material":0,"mode":4},{"attributes":{"NORMAL":19,"POSITION":7},"indices":31,"material":0,"mode":4},{"attributes":{"NORMAL":20,"POSITION":8},"indices":32,"material":0,"mode":4},{"attributes":{"NORMAL":21,"POSITION":9},"indices":33,"material":0,"mode":4},{"attributes":{"NORMAL":22,"POSITION":10},"indices":34,"material":0,"mode":4},{"attributes":{"NORMAL":23,"POSITION":11},"indices":35,"material":0,"mode":4}]}],"nodes":[{"rotation":[-0.7071067811865475,0.0,0.0,0.7071067811865475],"mesh":0,"name":"=>[0:1:1:2]"}],"scene":0,"scenes":[{"nodes":[0]}]}