{"accessors":[{"bufferView":0,"byteOffset":0,"componentType":5126,"count":132,"max":[0.0019,0.0018994094458015507,0.0022],"min":[-0.0019,-0.0018994094458015512,0.0022],"type":"VEC3"},{"bufferView":0,"byteOffset":1584,"componentType":5126,"count":1841,"max":[0.0038,0.0037988188916031015,0.0022],"min":[-0.0038,-0.0037988188916031024,-4.440892098501001e-19],"type":"VEC3"},{"bufferView":0,"byteOffset":23676,"componentType":5126,"count":4,"max":[0.0014895636945090002,0.0,0.0022],"min":[0.000744781847255,-0.0012900000000000001,0.0009000000000000001],"type":"VEC3"},{"bufferView":0,"byteOffset":23724,"componentType":5126,"count":4,"max":[0.000744781847255,-0.0012900000000000001,0.0022],"min":[-0.000744781847255,-0.0012900000000000001,0.0009000000000000001],"type":"VEC3"},{"bufferView":0,"byteOffset":23772,"componentType":5126,"count":4,"max":[-0.000744781847255,1.824189410607e-19,0.0022],"min":[-0.0014895636945090002,-0.0012900000000000001,0.0009000000000000001],"type":"VEC3"},{"bufferView":0,"byteOffset":23820,"componentType":5126,"count":4,"max":[-0.000744781847255,0.0012900000000000001,0.0022],"min":[-0.0014895636945090002,1.824189410607e-19,0.0009000000000000001],"type":"VEC3"},{"bufferView":0,"byteOffset":23868,"componentType":5126,"count":4,"max":[0.000744781847255,0.0012900000000000001,0.0022],"min":[-0.000744781847255,0.0012900000000000001,0.0009000000000000001],"type":"VEC3"},{"bufferView":0,"byteOffset":23916,"componentType":5126,"count":4,"max":[0.0014895636945090002,0.0012900000000000001,0.0022],"min":[0.000744781847255,0.0,0.0009000000000000001],"type":"VEC3"},{"bufferView":0,"byteOffset":23964,"componentType":5126,"count":252,"max":[0.0038,0.0037988188916031015,0.0],"min":[-0.0038,-0.0037988188916031024,-4.440892098501001e-19],"type":"VEC3"},{"bufferView":0,"byteOffset":26988,"componentType":5126,"count":6,"max":[0.0014895636945090002,0.0012900000000000001,0.0009000000000000001],"min":[-0.0014895636945090002,-0.0012900000000000001,0.0009000000000000001],"type":"VEC3"},{"bufferView":0,"byteOffset":27060,"componentType":5126,"count":254,"max":[0.001621113885844,0.0016206100144695531,0.0],"min":[-0.001621113885844,-0.0016206100144695534,-0.008],"type":"VEC3"},{"bufferView":0,"byteOffset":30108,"componentType":5126,"count":126,"max":[0.001621113885844,0.0016206100144695531,-0.008],"min":[-0.001621113885844,-0.0016206100144695534,-0.008],"type":"VEC3"},{"bufferView":1,"byteOffset":0,"componentType":5126,"count":132,"type":"VEC3"},{"bufferView":1,"byteOffset":1584,"componentType":5126,"count":1841,"type":"VEC3"},{"bufferView":1,"byteOffset":23676,"componentType":5126,"count":4,"type":"VEC3"},{"bufferView":1,"byteOffset":23724,"componentType":5126,"count":4,"type":"VEC3"},{"bufferView":1,"byteOffset":23772,"componentType":5126,"count":4,"type":"VEC3"},{"bufferView":1,"byteOffset":23820,"componentType":5126,"count":4,"type":"VEC3"},{"bufferView":1,"byteOffset":23868,"componentType":5126,"count":4,"type":"VEC3"},{"bufferView":1,"byteOffset":23916,"componentType":5126,"count":4,"type":"VEC3"},{"bufferView":1,"byteOffset":23964,"componentType":5126,"count":252,"type":"VEC3"},{"bufferView":1,"byteOffset":26988,"componentType":5126,"count":6,"type":"VEC3"},{"bufferView":1,"byteOffset":27060,"componentType":5126,"count":254,"type":"VEC3"},{"bufferView":1,"byteOffset":30108,"componentType":5126,"count":126,"type":"VEC3"},{"bufferView":2,"byteOffset":0,"componentType":5123,"count":396,"type":"SCALAR"},{"bufferView":2,"byteOffset":792,"componentType":5123,"count":10206,"type":"SCALAR"},{"bufferView":2,"byteOffset":21204,"componentType":5123,"count":6,"type":"SCALAR"},{"bufferView":2,"byteOffset":21216,"componentType":5123,"count":6,"type":"SCALAR"},{"bufferView":2,"byteOffset":21228,"componentType":5123,"count":6,"type":"SCALAR"},{"bufferView":2,"byteOffset":21240,"componentType":5123,"count":6,"type":"SCALAR"},{"bufferView":2,"byteOffset":21252,"componentType":5123,"count":6,"type":"SCALAR"},{"bufferView":2,"byteOffset":21264,"componentType":5123,"count":6,"type":"SCALAR"},{"bufferView":2,"byteOffset":21276,"componentType":5123,"count":756,"type":"SCALAR"},{"bufferView":2,"byteOffset":22788,"componentType":5123,"count":12,"type":"SCALAR"},{"bufferView":2,"byteOffset":22812,"componentType":5123,"count":756,"type":"SCALAR"},{"bufferView":2,"byteOffset":24324,"componentType":5123,"count":372,"type":"SCALAR"}],"asset":{"generator":"Open CASCADE Technology 7.8 [dev.opencascade.org]","version":"2.0"},"bufferViews":[{"buffer":0,"byteLength":31620,"byteOffset":0,"byteStride":12,"target":34962},{"buffer":0,"byteLength":31620,"byteOffset":31620,"byteStride":12,"target":34962},{"buffer":0,"byteLength":25068,"byteOffset":63240,"target":34963}],"buffers":[{"byteLength":88308,"uri":"button_head_screw_M4x8.bin"}],"materials":[{"name":"mat_0","pbrMetallicRoughness":{"baseColorFactor":[0.7529411911964417,0.7529411911964417,0.7529411911964417,1.0]},"doubleSided":true}],"meshes":[{"name":"ButtonHeadScrew_M4-0_7,_8_00,_iso7380_1_","primitives":[{"attributes":{"NORMAL":12,"POSITION":0},"indices":24,"material":0,"mode":4},{"attributes":{"NORMAL":13,"POSITION":1},"indices":25,"material":0,"mode":4},{"attributes":{"NORMAL":14,"POSITION":2},"indices":26,"material":0,"mode":4},{"attributes":{"NORMAL":15,"POSITION":3},"indices":27,"material":0,"mode":4},{"attributes":{"NORMAL":16,"POSITION":4},"indices":28,"material":0,"mode":4},{"attributes":{"NORMAL":17,"POSITION":5},"indices":29,"material":0,"mode":4},{"attributes":{"NORMAL":18,"POSITION":6},"indices":30,"material":0,"mode":4},{"attributes":{"NORMAL":19,"POSITION":7},"indices":31,"material":0,"mode":4},{"attributes":{"NORMAL":20,"POSITION":8},"indices":32,"material":0,"mode":4},{"attributes":{"NORMAL":21,"POSITION":9},"indices":33,"material":0,"mode":4},{"attributes":{"NORMAL":22,"POSITION":10},"indices":34,"material":0,"mode":4},{"attributes":{"NORMAL":23,"POSITION":11},"indices":35,"material":0,"mode":4}]}],"nodes":[{"rotation":[-0.7071067811865475,0.0,0.0,0.7071067811865475],"mesh":0,"name":"=>[0:1:1:2]"}],"scene":0,"scenes":[{"nodes":[0]}]}