{"accessors":[{"bufferView":0,"byteOffset":0,"componentType":5126,"count":132,"max":[0.003,0.0029990675460024488,0.0033],"min":[-0.003,-0.0029990675460024496,0.0033],"type":"VEC3"},{"bufferView":0,"byteOffset":1584,"componentType":5126,"count":2097,"max":[0.00525,0.005248368205504285,0.0033],"min":[-0.00525,-0.005248368205504287,-4.440892098501001e-19],"type":"VEC3"},{"bufferView":0,"byteOffset":26748,"componentType":5126,"count":4,"max":[0.002364249352332,0.0,0.0033],"min":[0.001182124676166,-0.0020475,0.00122],"type":"VEC3"},{"bufferView":0,"byteOffset":26796,"componentType":5126,"count":4,"max":[0.001182124676166,-0.0020475,0.0033],"min":[-0.001182124676166,-0.0020475,0.00122],"type":"VEC3"},{"bufferView":0,"byteOffset":26844,"componentType":5126,"count":4,"max":[-0.001182124676166,2.895370401719e-19,0.0033],"min":[-0.002364249352332,-0.0020475,0.00122],"type":"VEC3"},{"bufferView":0,"byteOffset":26892,"componentType":5126,"count":4,"max":[-0.001182124676166,0.0020475,0.0033],"min":[-0.002364249352332,2.895370401719e-19,0.00122],"type":"VEC3"},{"bufferView":0,"byteOffset":26940,"componentType":5126,"count":4,"max":[0.001182124676166,0.0020475,0.0033],"min":[-0.001182124676166,0.0020475,0.00122],"type":"VEC3"},{"bufferView":0,"byteOffset":26988,"componentType":5126,"count":4,"max":[0.002364249352332,0.0020475,0.0033],"min":[0.001182124676166,0.0,0.00122],"type":"VEC3"},{"bufferView":0,"byteOffset":27036,"componentType":5126,"count":252,"max":[0.00525,0.005248368205504285,0.0],"min":[-0.00525,-0.005248368205504287,-4.440892098501001e-19],"type":"VEC3"},{"bufferView":0,"byteOffset":30060,"componentType":5126,"count":6,"max":[0.002364249352332,0.0020475,0.00122],"min":[-0.002364249352332,-0.0020475,0.00122],"type":"VEC3"},{"bufferView":0,"byteOffset":30132,"componentType":5126,"count":254,"max":[0.002458734122635,0.0024579699038144776,0.0],"min":[-0.002458734122635,-0.0024579699038144785,-0.012],"type":"VEC3"},{"bufferView":0,"byteOffset":33180,"componentType":5126,"count":126,"max":[0.002458734122635,0.0024579699038144776,-0.012],"min":[-0.002458734122635,-0.0024579699038144785,-0.012],"type":"VEC3"},{"bufferView":1,"byteOffset":0,"componentType":5126,"count":132,"type":"VEC3"},{"bufferView":1,"byteOffset":1584,"componentType":5126,"count":2097,"type":"VEC3"},{"bufferView":1,"byteOffset":26748,"componentType":5126,"count":4,"type":"VEC3"},{"bufferView":1,"byteOffset":26796,"componentType":5126,"count":4,"type":"VEC3"},{"bufferView":1,"byteOffset":26844,"componentType":5126,"count":4,"type":"VEC3"},{"bufferView":1,"byteOffset":26892,"componentType":5126,"count":4,"type":"VEC3"},{"bufferView":1,"byteOffset":26940,"componentType":5126,"count":4,"type":"VEC3"},{"bufferView":1,"byteOffset":26988,"componentType":5126,"count":4,"type":"VEC3"},{"bufferView":1,"byteOffset":27036,"componentType":5126,"count":252,"type":"VEC3"},{"bufferView":1,"byteOffset":30060,"componentType":5126,"count":6,"type":"VEC3"},{"bufferView":1,"byteOffset":30132,"componentType":5126,"count":254,"type":"VEC3"},{"bufferView":1,"byteOffset":33180,"componentType":5126,"count":126,"type":"VEC3"},{"bufferView":2,"byteOffset":0,"componentType":5123,"count":396,"type":"SCALAR"},{"bufferView":2,"byteOffset":792,"componentType":5123,"count":11736,"type":"SCALAR"},{"bufferView":2,"byteOffset":24264,"componentType":5123,"count":6,"type":"SCALAR"},{"bufferView":2,"byteOffset":24276,"componentType":5123,"count":6,"type":"SCALAR"},{"bufferView":2,"byteOffset":24288,"componentType":5123,"count":6,"type":"SCALAR"},{"bufferView":2,"byteOffset":24300,"componentType":5123,"count":6,"type":"SCALAR"},{"bufferView":2,"byteOffset":24312,"componentType":5123,"count":6,"type":"SCALAR"},{"bufferView":2,"byteOffset":24324,"componentType":5123,"count":6,"type":"SCALAR"},{"bufferView":2,"byteOffset":24336,"componentType":5123,"count":756,"type":"SCALAR"},{"bufferView":2,"byteOffset":25848,"componentType":5123,"count":12,"type":"SCALAR"},{"bufferView":2,"byteOffset":25872,"componentType":5123,"count":756,"type":"SCALAR"},{"bufferView":2,"byteOffset":27384,"componentType":5123,"count":372,"type":"SCALAR"}],"asset":{"generator":"Open CASCADE Technology 7.8 [dev.opencascade.org]","version":"2.0"},"bufferViews":[{"buffer":0,"byteLength":34692,"byteOffset":0,"byteStride":12,"target":34962},{"buffer":0,"byteLength":34692,"byteOffset":34692,"byteStride":12,"target":34962},{"buffer":0,"byteLength":28128,"byteOffset":69384,"target":34963}],"buffers":[{"byteLength":97512,"uri":"button_head_screw_M6x12.bin"}],"materials":[{"name":"mat_0","pbrMetallicRoughness":{"baseColorFactor":[0.7529411911964417,0.7529411911964417,0.7529411911964417,1.0]},"doubleSided":true}],"meshes":[{"name":"ButtonHeadScrew_M6-1,_12_00,_iso7380_1_","primitives":[{"attributes":{"NORMAL":12,"POSITION":0},"indices":24,"material":0,"mode":4},{"attributes":{"NORMAL":13,"POSITION":1},"indices":25,"material":0,"mode":4},{"attributes":{"NORMAL":14,"POSITION":2},"indices":26,"material":0,"mode":4},{"attributes":{"NORMAL":15,"POSITION":3},"indices":27,"material":0,"mode":4},{"attributes":{"NORMAL":16,"POSITION":4},"indices":28,"material":0,"mode":4},{"attributes":{"NORMAL":17,"POSITION":5},"indices":29,"material":0,"mode":4},{"attributes":{"NORMAL":18,"POSITION":6},"indices":30,"material":0,"mode":4},{"attributes":{"NORMAL":19,"POSITION":7},"indices":31,"material":0,"mode":4},{"attributes":{"NORMAL":20,"POSITION":8},"indices":32,"material":0,"mode":4},{"attributes":{"NORMAL":21,"POSITION":9},"indices":33,"material":0,"mode":4},{"attributes":{"NORMAL":22,"POSITION":10},"indices":34,"material":0,"mode":4},{"attributes":{"NORMAL":23,"POSITION":11},"indices":35,"material":0,"mode":4}]}],"nodes":[{"rotation":[-0.7071067811865475,0.0,0.0,0.7071067811865475],"mesh":0,"name":"=>[0:1:1:2]"}],"scene":0,"scenes":[{"nodes":[0]}]}