{"accessors":[{"bufferView":0,"byteOffset":0,"componentType":5126,"count":6223,"max":[0.0043348349570550004,0.004333487612326856,-4.440892098500999e-19],"min":[-0.0043348349570550004,-0.004333487612326857,-0.000320082521472],"type":"VEC3"},{"bufferView":0,"byteOffset":74676,"componentType":5126,"count":530,"max":[0.004279917478528,0.004278587203140652,-0.000320082521472],"min":[-0.004279917478528,-0.004278587203140653,-0.0025],"type":"VEC3"},{"bufferView":0,"byteOffset":81036,"componentType":5126,"count":270,"max":[0.004147334957055,0.0041460458907017035,4.440892098501001e-19],"min":[-0.004147334957055,-0.004146045890701704,-4.440892098501001e-19],"type":"VEC3"},{"bufferView":0,"byteOffset":84276,"componentType":5126,"count":252,"max":[0.0021000000000000003,0.0020993472822017144,-0.0025],"min":[-0.0021000000000000003,-0.002099347282201715,-0.0025],"type":"VEC3"},{"bufferView":0,"byteOffset":87300,"componentType":5126,"count":39,"max":[-0.0006716763085879999,-0.000130051966291,4.440892098501e-19],"min":[-0.00265,-0.000441666666667,-0.0025],"type":"VEC3"},{"bufferView":0,"byteOffset":87768,"componentType":5126,"count":710,"max":[-0.000134335261718,-0.000134335261718,4.440892098501e-19],"min":[-0.002208333333333,-0.002208333333333,-0.0025],"type":"VEC3"},{"bufferView":0,"byteOffset":96288,"componentType":5126,"count":40,"max":[-0.000130051966291,-0.0006716763085879999,4.440892098501e-19],"min":[-0.000441666666667,-0.00265,-0.0025],"type":"VEC3"},{"bufferView":0,"byteOffset":96768,"componentType":5126,"count":42,"max":[8.548717289614001e-18,-0.000780311797745,4.440892098501e-19],"min":[-0.000441666666667,-0.00265,-0.0025],"type":"VEC3"},{"bufferView":0,"byteOffset":97272,"componentType":5126,"count":40,"max":[0.000441666666667,-0.000780311797745,4.440892098501e-19],"min":[1.6716118031820002e-18,-0.00265,-0.0025],"type":"VEC3"},{"bufferView":0,"byteOffset":97752,"componentType":5126,"count":39,"max":[0.000441666666667,-0.0006716763085879999,4.440892098501e-19],"min":[0.000130051966291,-0.00265,-0.0025],"type":"VEC3"},{"bufferView":0,"byteOffset":98220,"componentType":5126,"count":710,"max":[0.002208333333333,-0.000134335261718,4.440892098501e-19],"min":[0.000134335261718,-0.002208333333333,-0.0025],"type":"VEC3"},{"bufferView":0,"byteOffset":106740,"componentType":5126,"count":40,"max":[0.00265,-0.000130051966291,4.440892098501e-19],"min":[0.0006716763085879999,-0.000441666666667,-0.0025],"type":"VEC3"},{"bufferView":0,"byteOffset":107220,"componentType":5126,"count":42,"max":[0.00265,1.049160758271e-17,4.440892098501e-19],"min":[0.000780311797745,-0.000441666666667,-0.0025],"type":"VEC3"},{"bufferView":0,"byteOffset":107724,"componentType":5126,"count":40,"max":[0.00265,0.000441666666667,4.440892098501e-19],"min":[0.000780311797745,7.729121454309001e-19,-0.0025],"type":"VEC3"},{"bufferView":0,"byteOffset":108204,"componentType":5126,"count":39,"max":[0.00265,0.000441666666667,4.440892098501e-19],"min":[0.0006716763085879999,0.000130051966291,-0.0025],"type":"VEC3"},{"bufferView":0,"byteOffset":108672,"componentType":5126,"count":710,"max":[0.002208333333333,0.002208333333333,4.440892098501001e-19],"min":[0.000134335261718,0.000134335261718,-0.0025],"type":"VEC3"},{"bufferView":0,"byteOffset":117192,"componentType":5126,"count":40,"max":[0.000441666666667,0.00265,4.440892098501e-19],"min":[0.000130051966291,0.0006716763085879999,-0.0025],"type":"VEC3"},{"bufferView":0,"byteOffset":117672,"componentType":5126,"count":40,"max":[0.000441666666667,0.00265,4.440892098500999e-19],"min":[-1.165734175856e-18,0.000780311797745,-0.0025],"type":"VEC3"},{"bufferView":0,"byteOffset":118152,"componentType":5126,"count":42,"max":[6.50176480782e-20,0.00265,4.440892098500999e-19],"min":[-0.000441666666667,0.000780311797745,-0.0025],"type":"VEC3"},{"bufferView":0,"byteOffset":118656,"componentType":5126,"count":39,"max":[-0.000130051966291,0.00265,4.440892098501e-19],"min":[-0.000441666666667,0.0006716763085879999,-0.0025],"type":"VEC3"},{"bufferView":0,"byteOffset":119124,"componentType":5126,"count":710,"max":[-0.000134335261718,0.002208333333333,4.440892098501001e-19],"min":[-0.002208333333333,0.000134335261718,-0.0025],"type":"VEC3"},{"bufferView":0,"byteOffset":127644,"componentType":5126,"count":40,"max":[-0.0006716763085879999,0.000441666666667,4.440892098501e-19],"min":[-0.00265,0.000130051966291,-0.0025],"type":"VEC3"},{"bufferView":0,"byteOffset":128124,"componentType":5126,"count":40,"max":[-0.000780311797745,0.000441666666667,4.440892098501e-19],"min":[-0.00265,1.830000643037e-19,-0.0025],"type":"VEC3"},{"bufferView":0,"byteOffset":128604,"componentType":5126,"count":42,"max":[-0.000780311797745,7.771561172376001e-19,4.440892098501e-19],"min":[-0.00265,-0.000441666666667,-0.0025],"type":"VEC3"},{"bufferView":0,"byteOffset":129108,"componentType":5126,"count":254,"max":[0.0020669872981080003,0.0020663448412516637,-0.0025],"min":[-0.0020669872981080003,-0.002066344841251664,-0.01],"type":"VEC3"},{"bufferView":0,"byteOffset":132156,"componentType":5126,"count":144,"max":[0.0008090690194430001,0.0008090690194430002,-0.0025],"min":[-0.0008090690194430001,-0.0008090690194429999,-0.0025],"type":"VEC3"},{"bufferView":0,"byteOffset":133884,"componentType":5126,"count":126,"max":[0.0020669872981080003,0.0020663448412516637,-0.01],"min":[-0.0020669872981080003,-0.0020663448412516637,-0.01],"type":"VEC3"},{"bufferView":1,"byteOffset":0,"componentType":5126,"count":6223,"type":"VEC3"},{"bufferView":1,"byteOffset":74676,"componentType":5126,"count":530,"type":"VEC3"},{"bufferView":1,"byteOffset":81036,"componentType":5126,"count":270,"type":"VEC3"},{"bufferView":1,"byteOffset":84276,"componentType":5126,"count":252,"type":"VEC3"},{"bufferView":1,"byteOffset":87300,"componentType":5126,"count":39,"type":"VEC3"},{"bufferView":1,"byteOffset":87768,"componentType":5126,"count":710,"type":"VEC3"},{"bufferView":1,"byteOffset":96288,"componentType":5126,"count":40,"type":"VEC3"},{"bufferView":1,"byteOffset":96768,"componentType":5126,"count":42,"type":"VEC3"},{"bufferView":1,"byteOffset":97272,"componentType":5126,"count":40,"type":"VEC3"},{"bufferView":1,"byteOffset":97752,"componentType":5126,"count":39,"type":"VEC3"},{"bufferView":1,"byteOffset":98220,"componentType":5126,"count":710,"type":"VEC3"},{"bufferView":1,"byteOffset":106740,"componentType":5126,"count":40,"type":"VEC3"},{"bufferView":1,"byteOffset":107220,"componentType":5126,"count":42,"type":"VEC3"},{"bufferView":1,"byteOffset":107724,"componentType":5126,"count":40,"type":"VEC3"},{"bufferView":1,"byteOffset":108204,"componentType":5126,"count":39,"type":"VEC3"},{"bufferView":1,"byteOffset":108672,"componentType":5126,"count":710,"type":"VEC3"},{"bufferView":1,"byteOffset":117192,"componentType":5126,"count":40,"type":"VEC3"},{"bufferView":1,"byteOffset":117672,"componentType":5126,"count":40,"type":"VEC3"},{"bufferView":1,"byteOffset":118152,"componentType":5126,"count":42,"type":"VEC3"},{"bufferView":1,"byteOffset":118656,"componentType":5126,"count":39,"type":"VEC3"},{"bufferView":1,"byteOffset":119124,"componentType":5126,"count":710,"type":"VEC3"},{"bufferView":1,"byteOffset":127644,"componentType":5126,"count":40,"type":"VEC3"},{"bufferView":1,"byteOffset":128124,"componentType":5126,"count":40,"type":"VEC3"},{"bufferView":1,"byteOffset":128604,"componentType":5126,"count":42,"type":"VEC3"},{"bufferView":1,"byteOffset":129108,"componentType":5126,"count":254,"type":"VEC3"},{"bufferView":1,"byteOffset":132156,"componentType":5126,"count":144,"type":"VEC3"},{"bufferView":1,"byteOffset":133884,"componentType":5126,"count":126,"type":"VEC3"},{"bufferView":2,"byteOffset":0,"componentType":5123,"count":36288,"type":"SCALAR"},{"bufferView":2,"byteOffset":72576,"componentType":5123,"count":2388,"type":"SCALAR"},{"bufferView":2,"byteOffset":77352,"componentType":5123,"count":810,"type":"SCALAR"},{"bufferView":2,"byteOffset":78972,"componentType":5123,"count":756,"type":"SCALAR"},{"bufferView":2,"byteOffset":80484,"componentType":5123,"count":216,"type":"SCALAR"},{"bufferView":2,"byteOffset":80916,"componentType":5123,"count":4056,"type":"SCALAR"},{"bufferView":2,"byteOffset":89028,"componentType":5123,"count":222,"type":"SCALAR"},{"bufferView":2,"byteOffset":89472,"componentType":5123,"count":234,"type":"SCALAR"},{"bufferView":2,"byteOffset":89940,"componentType":5123,"count":222,"type":"SCALAR"},{"bufferView":2,"byteOffset":90384,"componentType":5123,"count":216,"type":"SCALAR"},{"bufferView":2,"byteOffset":90816,"componentType":5123,"count":4056,"type":"SCALAR"},{"bufferView":2,"byteOffset":98928,"componentType":5123,"count":222,"type":"SCALAR"},{"bufferView":2,"byteOffset":99372,"componentType":5123,"count":234,"type":"SCALAR"},{"bufferView":2,"byteOffset":99840,"componentType":5123,"count":222,"type":"SCALAR"},{"bufferView":2,"byteOffset":100284,"componentType":5123,"count":216,"type":"SCALAR"},{"bufferView":2,"byteOffset":100716,"componentType":5123,"count":4056,"type":"SCALAR"},{"bufferView":2,"byteOffset":108828,"componentType":5123,"count":222,"type":"SCALAR"},{"bufferView":2,"byteOffset":109272,"componentType":5123,"count":222,"type":"SCALAR"},{"bufferView":2,"byteOffset":109716,"componentType":5123,"count":234,"type":"SCALAR"},{"bufferView":2,"byteOffset":110184,"componentType":5123,"count":216,"type":"SCALAR"},{"bufferView":2,"byteOffset":110616,"componentType":5123,"count":4056,"type":"SCALAR"},{"bufferView":2,"byteOffset":118728,"componentType":5123,"count":222,"type":"SCALAR"},{"bufferView":2,"byteOffset":119172,"componentType":5123,"count":222,"type":"SCALAR"},{"bufferView":2,"byteOffset":119616,"componentType":5123,"count":234,"type":"SCALAR"},{"bufferView":2,"byteOffset":120084,"componentType":5123,"count":756,"type":"SCALAR"},{"bufferView":2,"byteOffset":121596,"componentType":5123,"count":426,"type":"SCALAR"},{"bufferView":2,"byteOffset":122448,"componentType":5123,"count":372,"type":"SCALAR"}],"asset":{"generator":"Open CASCADE Technology 7.8 [dev.opencascade.org]","version":"2.0"},"bufferViews":[{"buffer":0,"byteLength":135396,"byteOffset":0,"byteStride":12,"target":34962},{"buffer":0,"byteLength":135396,"byteOffset":135396,"byteStride":12,"target":34962},{"buffer":0,"byteLength":123192,"byteOffset":270792,"target":34963}],"buffers":[{"byteLength":393984,"uri":"countersunk_screw_M5x10.bin"}],"materials":[{"name":"mat_0","pbrMetallicRoughness":{"baseColorFactor":[0.7529411911964417,0.7529411911964417,0.7529411911964417,1.0]},"doubleSided":true}],"meshes":[{"name":"CounterSunkScrew_M5-0_8,_10_00,_iso7046_","primitives":[{"attributes":{"NORMAL":27,"POSITION":0},"indices":54,"material":0,"mode":4},{"attributes":{"NORMAL":28,"POSITION":1},"indices":55,"material":0,"mode":4},{"attributes":{"NORMAL":29,"POSITION":2},"indices":56,"material":0,"mode":4},{"attributes":{"NORMAL":30,"POSITION":3},"indices":57,"material":0,"mode":4},{"attributes":{"NORMAL":31,"POSITION":4},"indices":58,"material":0,"mode":4},{"attributes":{"NORMAL":32,"POSITION":5},"indices":59,"material":0,"mode":4},{"attributes":{"NORMAL":33,"POSITION":6},"indices":60,"material":0,"mode":4},{"attributes":{"NORMAL":34,"POSITION":7},"indices":61,"material":0,"mode":4},{"attributes":{"NORMAL":35,"POSITION":8},"indices":62,"material":0,"mode":4},{"attributes":{"NORMAL":36,"POSITION":9},"indices":63,"material":0,"mode":4},{"attributes":{"NORMAL":37,"POSITION":10},"indices":64,"material":0,"mode":4},{"attributes":{"NORMAL":38,"POSITION":11},"indices":65,"material":0,"mode":4},{"attributes":{"NORMAL":39,"POSITION":12},"indices":66,"material":0,"mode":4},{"attributes":{"NORMAL":40,"POSITION":13},"indices":67,"material":0,"mode":4},{"attributes":{"NORMAL":41,"POSITION":14},"indices":68,"material":0,"mode":4},{"attributes":{"NORMAL":42,"POSITION":15},"indices":69,"material":0,"mode":4},{"attributes":{"NORMAL":43,"POSITION":16},"indices":70,"material":0,"mode":4},{"attributes":{"NORMAL":44,"POSITION":17},"indices":71,"material":0,"mode":4},{"attributes":{"NORMAL":45,"POSITION":18},"indices":72,"material":0,"mode":4},{"attributes":{"NORMAL":46,"POSITION":19},"indices":73,"material":0,"mode":4},{"attributes":{"NORMAL":47,"POSITION":20},"indices":74,"material":0,"mode":4},{"attributes":{"NORMAL":48,"POSITION":21},"indices":75,"material":0,"mode":4},{"attributes":{"NORMAL":49,"POSITION":22},"indices":76,"material":0,"mode":4},{"attributes":{"NORMAL":50,"POSITION":23},"indices":77,"material":0,"mode":4},{"attributes":{"NORMAL":51,"POSITION":24},"indices":78,"material":0,"mode":4},{"attributes":{"NORMAL":52,"POSITION":25},"indices":79,"material":0,"mode":4},{"attributes":{"NORMAL":53,"POSITION":26},"indices":80,"material":0,"mode":4}]}],"nodes":[{"rotation":[-0.7071067811865475,0.0,0.0,0.7071067811865475],"mesh":0,"name":"=>[0:1:1:2]"}],"scene":0,"scenes":[{"nodes":[0]}]}