{"accessors":[{"bufferView":0,"byteOffset":0,"componentType":5126,"count":254,"max":[0.000783493649054,0.0007832501251256278,-0.0012],"min":[-0.000783493649054,-0.0007832501251256279,-0.006],"type":"VEC3"},{"bufferView":0,"byteOffset":3048,"componentType":5126,"count":252,"max":[0.000783493649054,0.0007832501251256278,-0.0012],"min":[-0.000783493649054,-0.0007832501251256279,-0.0012],"type":"VEC3"},{"bufferView":0,"byteOffset":6072,"componentType":5126,"count":126,"max":[0.000783493649054,0.0007832501251256278,-0.006],"min":[-0.000783493649054,-0.0007832501251256279,-0.006],"type":"VEC3"},{"bufferView":0,"byteOffset":7584,"componentType":5126,"count":510,"max":[0.001746360389693,0.001745817589450822,-0.000153639610307],"min":[-0.001746360389693,-0.0017458175894508223,-0.0012],"type":"VEC3"},{"bufferView":0,"byteOffset":13704,"componentType":5126,"count":6223,"max":[0.0017727207793860002,0.0017721697858602398,-2.2204460492499997e-19],"min":[-0.0017727207793860002,-0.00177216978586024,-0.000153639610307],"type":"VEC3"},{"bufferView":0,"byteOffset":88380,"componentType":5126,"count":270,"max":[0.001682720779386,0.0016821977594801663,2.22044604925e-19],"min":[-0.001682720779386,-0.0016821977594801668,-2.22044604925e-19],"type":"VEC3"},{"bufferView":0,"byteOffset":91620,"componentType":5126,"count":146,"max":[-0.000103159392058,-0.000017736024674000003,2.22044604925e-19],"min":[-0.00095,-0.000158333333333,-0.0011],"type":"VEC3"},{"bufferView":0,"byteOffset":93372,"componentType":5126,"count":552,"max":[-0.00002063187841169,-0.00002063187841169,2.22044604925e-19],"min":[-0.000791666666667,-0.000791666666667,-0.0011],"type":"VEC3"},{"bufferView":0,"byteOffset":99996,"componentType":5126,"count":143,"max":[-0.000017736024674000003,-0.000103159392058,2.22044604925e-19],"min":[-0.000158333333333,-0.00095,-0.0011],"type":"VEC3"},{"bufferView":0,"byteOffset":101712,"componentType":5126,"count":108,"max":[4.182250372664e-20,-0.000106416148044,2.22044604925e-19],"min":[-0.000158333333333,-0.00095,-0.0011],"type":"VEC3"},{"bufferView":0,"byteOffset":103008,"componentType":5126,"count":110,"max":[0.000158333333333,-0.000106416148044,2.22044604925e-19],"min":[-3.025357742104e-18,-0.00095,-0.0011],"type":"VEC3"},{"bufferView":0,"byteOffset":104328,"componentType":5126,"count":146,"max":[0.000158333333333,-0.000103159392058,2.22044604925e-19],"min":[0.000017736024674000003,-0.00095,-0.0011],"type":"VEC3"},{"bufferView":0,"byteOffset":106080,"componentType":5126,"count":557,"max":[0.000791666666667,-0.00002063187841169,2.22044604925e-19],"min":[0.00002063187841169,-0.000791666666667,-0.0011],"type":"VEC3"},{"bufferView":0,"byteOffset":112764,"componentType":5126,"count":143,"max":[0.00095,-0.000017736024674000003,2.22044604925e-19],"min":[0.000103159392058,-0.000158333333333,-0.0011],"type":"VEC3"},{"bufferView":0,"byteOffset":114480,"componentType":5126,"count":118,"max":[0.00095,2.248201624866e-18,2.22044604925e-19],"min":[0.000106416148044,-0.000158333333333,-0.0011],"type":"VEC3"},{"bufferView":0,"byteOffset":115896,"componentType":5126,"count":110,"max":[0.00095,0.000158333333333,2.22044604925e-19],"min":[0.000106416148044,3.348962010151e-19,-0.0011],"type":"VEC3"},{"bufferView":0,"byteOffset":117216,"componentType":5126,"count":146,"max":[0.00095,0.000158333333333,2.22044604925e-19],"min":[0.000103159392058,0.000017736024674000003,-0.0011],"type":"VEC3"},{"bufferView":0,"byteOffset":118968,"componentType":5126,"count":557,"max":[0.000791666666667,0.000791666666667,2.22044604925e-19],"min":[0.00002063187841169,0.00002063187841169,-0.0011],"type":"VEC3"},{"bufferView":0,"byteOffset":125652,"componentType":5126,"count":143,"max":[0.000158333333333,0.00095,2.22044604925e-19],"min":[0.000017736024674000003,0.000103159392058,-0.0011],"type":"VEC3"},{"bufferView":0,"byteOffset":127368,"componentType":5126,"count":118,"max":[0.000158333333333,0.00095,2.2204460492499997e-19],"min":[-5.52335954751e-18,0.000106416148044,-0.0011],"type":"VEC3"},{"bufferView":0,"byteOffset":128784,"componentType":5126,"count":110,"max":[-2.9124440366090003e-19,0.00095,2.2204460492499997e-19],"min":[-0.000158333333333,0.000106416148044,-0.0011],"type":"VEC3"},{"bufferView":0,"byteOffset":130104,"componentType":5126,"count":146,"max":[-0.000017736024674000003,0.00095,2.22044604925e-19],"min":[-0.000158333333333,0.000103159392058,-0.0011],"type":"VEC3"},{"bufferView":0,"byteOffset":131856,"componentType":5126,"count":557,"max":[-0.00002063187841169,0.000791666666667,2.22044604925e-19],"min":[-0.000791666666667,0.00002063187841169,-0.0011],"type":"VEC3"},{"bufferView":0,"byteOffset":138540,"componentType":5126,"count":143,"max":[-0.000103159392058,0.000158333333333,2.22044604925e-19],"min":[-0.00095,0.000017736024674000003,-0.0011],"type":"VEC3"},{"bufferView":0,"byteOffset":140256,"componentType":5126,"count":118,"max":[-0.000106416148044,0.000158333333333,2.22044604925e-19],"min":[-0.00095,-3.580469254416e-18,-0.0011],"type":"VEC3"},{"bufferView":0,"byteOffset":141672,"componentType":5126,"count":115,"max":[-0.000106416148044,-4.422599162225e-19,2.22044604925e-19],"min":[-0.00095,-0.000158333333333,-0.0011],"type":"VEC3"},{"bufferView":0,"byteOffset":143052,"componentType":5126,"count":68,"max":[0.000126985689974,0.000126985689974,-0.0011],"min":[-0.000126985689974,-0.000126985689974,-0.0011],"type":"VEC3"},{"bufferView":1,"byteOffset":0,"componentType":5126,"count":254,"type":"VEC3"},{"bufferView":1,"byteOffset":3048,"componentType":5126,"count":252,"type":"VEC3"},{"bufferView":1,"byteOffset":6072,"componentType":5126,"count":126,"type":"VEC3"},{"bufferView":1,"byteOffset":7584,"componentType":5126,"count":510,"type":"VEC3"},{"bufferView":1,"byteOffset":13704,"componentType":5126,"count":6223,"type":"VEC3"},{"bufferView":1,"byteOffset":88380,"componentType":5126,"count":270,"type":"VEC3"},{"bufferView":1,"byteOffset":91620,"componentType":5126,"count":146,"type":"VEC3"},{"bufferView":1,"byteOffset":93372,"componentType":5126,"count":552,"type":"VEC3"},{"bufferView":1,"byteOffset":99996,"componentType":5126,"count":143,"type":"VEC3"},{"bufferView":1,"byteOffset":101712,"componentType":5126,"count":108,"type":"VEC3"},{"bufferView":1,"byteOffset":103008,"componentType":5126,"count":110,"type":"VEC3"},{"bufferView":1,"byteOffset":104328,"componentType":5126,"count":146,"type":"VEC3"},{"bufferView":1,"byteOffset":106080,"componentType":5126,"count":557,"type":"VEC3"},{"bufferView":1,"byteOffset":112764,"componentType":5126,"count":143,"type":"VEC3"},{"bufferView":1,"byteOffset":114480,"componentType":5126,"count":118,"type":"VEC3"},{"bufferView":1,"byteOffset":115896,"componentType":5126,"count":110,"type":"VEC3"},{"bufferView":1,"byteOffset":117216,"componentType":5126,"count":146,"type":"VEC3"},{"bufferView":1,"byteOffset":118968,"componentType":5126,"count":557,"type":"VEC3"},{"bufferView":1,"byteOffset":125652,"componentType":5126,"count":143,"type":"VEC3"},{"bufferView":1,"byteOffset":127368,"componentType":5126,"count":118,"type":"VEC3"},{"bufferView":1,"byteOffset":128784,"componentType":5126,"count":110,"type":"VEC3"},{"bufferView":1,"byteOffset":130104,"componentType":5126,"count":146,"type":"VEC3"},{"bufferView":1,"byteOffset":131856,"componentType":5126,"count":557,"type":"VEC3"},{"bufferView":1,"byteOffset":138540,"componentType":5126,"count":143,"type":"VEC3"},{"bufferView":1,"byteOffset":140256,"componentType":5126,"count":118,"type":"VEC3"},{"bufferView":1,"byteOffset":141672,"componentType":5126,"count":115,"type":"VEC3"},{"bufferView":1,"byteOffset":143052,"componentType":5126,"count":68,"type":"VEC3"},{"bufferView":2,"byteOffset":0,"componentType":5123,"count":756,"type":"SCALAR"},{"bufferView":2,"byteOffset":1512,"componentType":5123,"count":756,"type":"SCALAR"},{"bufferView":2,"byteOffset":3024,"componentType":5123,"count":372,"type":"SCALAR"},{"bufferView":2,"byteOffset":3768,"componentType":5123,"count":2268,"type":"SCALAR"},{"bufferView":2,"byteOffset":8304,"componentType":5123,"count":36288,"type":"SCALAR"},{"bufferView":2,"byteOffset":80880,"componentType":5123,"count":810,"type":"SCALAR"},{"bufferView":2,"byteOffset":82500,"componentType":5123,"count":852,"type":"SCALAR"},{"bufferView":2,"byteOffset":84204,"componentType":5123,"count":3189,"type":"SCALAR"},{"bufferView":2,"byteOffset":90584,"componentType":5123,"count":834,"type":"SCALAR"},{"bufferView":2,"byteOffset":92252,"componentType":5123,"count":624,"type":"SCALAR"},{"bufferView":2,"byteOffset":93500,"componentType":5123,"count":636,"type":"SCALAR"},{"bufferView":2,"byteOffset":94772,"componentType":5123,"count":852,"type":"SCALAR"},{"bufferView":2,"byteOffset":96476,"componentType":5123,"count":3219,"type":"SCALAR"},{"bufferView":2,"byteOffset":102916,"componentType":5123,"count":834,"type":"SCALAR"},{"bufferView":2,"byteOffset":104584,"componentType":5123,"count":684,"type":"SCALAR"},{"bufferView":2,"byteOffset":105952,"componentType":5123,"count":636,"type":"SCALAR"},{"bufferView":2,"byteOffset":107224,"componentType":5123,"count":852,"type":"SCALAR"},{"bufferView":2,"byteOffset":108928,"componentType":5123,"count":3219,"type":"SCALAR"},{"bufferView":2,"byteOffset":115368,"componentType":5123,"count":834,"type":"SCALAR"},{"bufferView":2,"byteOffset":117036,"componentType":5123,"count":684,"type":"SCALAR"},{"bufferView":2,"byteOffset":118404,"componentType":5123,"count":636,"type":"SCALAR"},{"bufferView":2,"byteOffset":119676,"componentType":5123,"count":852,"type":"SCALAR"},{"bufferView":2,"byteOffset":121380,"componentType":5123,"count":3219,"type":"SCALAR"},{"bufferView":2,"byteOffset":127820,"componentType":5123,"count":834,"type":"SCALAR"},{"bufferView":2,"byteOffset":129488,"componentType":5123,"count":684,"type":"SCALAR"},{"bufferView":2,"byteOffset":130856,"componentType":5123,"count":666,"type":"SCALAR"},{"bufferView":2,"byteOffset":132188,"componentType":5123,"count":198,"type":"SCALAR"}],"asset":{"generator":"Open CASCADE Technology 7.8 [dev.opencascade.org]","version":"2.0"},"bufferViews":[{"buffer":0,"byteLength":143868,"byteOffset":0,"byteStride":12,"target":34962},{"buffer":0,"byteLength":143868,"byteOffset":143868,"byteStride":12,"target":34962},{"buffer":0,"byteLength":132584,"byteOffset":287736,"target":34963}],"buffers":[{"byteLength":420320,"uri":"countersunk_screw_M2x6.bin"}],"materials":[{"name":"mat_0","pbrMetallicRoughness":{"baseColorFactor":[0.7529411911964417,0.7529411911964417,0.7529411911964417,1.0]},"doubleSided":true}],"meshes":[{"name":"CounterSunkScrew_M2-0_4,_6_00,_iso7046_","primitives":[{"attributes":{"NORMAL":27,"POSITION":0},"indices":54,"material":0,"mode":4},{"attributes":{"NORMAL":28,"POSITION":1},"indices":55,"material":0,"mode":4},{"attributes":{"NORMAL":29,"POSITION":2},"indices":56,"material":0,"mode":4},{"attributes":{"NORMAL":30,"POSITION":3},"indices":57,"material":0,"mode":4},{"attributes":{"NORMAL":31,"POSITION":4},"indices":58,"material":0,"mode":4},{"attributes":{"NORMAL":32,"POSITION":5},"indices":59,"material":0,"mode":4},{"attributes":{"NORMAL":33,"POSITION":6},"indices":60,"material":0,"mode":4},{"attributes":{"NORMAL":34,"POSITION":7},"indices":61,"material":0,"mode":4},{"attributes":{"NORMAL":35,"POSITION":8},"indices":62,"material":0,"mode":4},{"attributes":{"NORMAL":36,"POSITION":9},"indices":63,"material":0,"mode":4},{"attributes":{"NORMAL":37,"POSITION":10},"indices":64,"material":0,"mode":4},{"attributes":{"NORMAL":38,"POSITION":11},"indices":65,"material":0,"mode":4},{"attributes":{"NORMAL":39,"POSITION":12},"indices":66,"material":0,"mode":4},{"attributes":{"NORMAL":40,"POSITION":13},"indices":67,"material":0,"mode":4},{"attributes":{"NORMAL":41,"POSITION":14},"indices":68,"material":0,"mode":4},{"attributes":{"NORMAL":42,"POSITION":15},"indices":69,"material":0,"mode":4},{"attributes":{"NORMAL":43,"POSITION":16},"indices":70,"material":0,"mode":4},{"attributes":{"NORMAL":44,"POSITION":17},"indices":71,"material":0,"mode":4},{"attributes":{"NORMAL":45,"POSITION":18},"indices":72,"material":0,"mode":4},{"attributes":{"NORMAL":46,"POSITION":19},"indices":73,"material":0,"mode":4},{"attributes":{"NORMAL":47,"POSITION":20},"indices":74,"material":0,"mode":4},{"attributes":{"NORMAL":48,"POSITION":21},"indices":75,"material":0,"mode":4},{"attributes":{"NORMAL":49,"POSITION":22},"indices":76,"material":0,"mode":4},{"attributes":{"NORMAL":50,"POSITION":23},"indices":77,"material":0,"mode":4},{"attributes":{"NORMAL":51,"POSITION":24},"indices":78,"material":0,"mode":4},{"attributes":{"NORMAL":52,"POSITION":25},"indices":79,"material":0,"mode":4},{"attributes":{"NORMAL":53,"POSITION":26},"indices":80,"material":0,"mode":4}]}],"nodes":[{"rotation":[-0.7071067811865475,0.0,0.0,0.7071067811865475],"mesh":0,"name":"=>[0:1:1:2]"}],"scene":0,"scenes":[{"nodes":[0]}]}