{"accessors":[{"bufferView":0,"byteOffset":0,"componentType":5126,"count":254,"max":[0.001621113885844,0.0016206100144695531,-0.0022],"min":[-0.001621113885844,-0.0016206100144695534,-0.008],"type":"VEC3"},{"bufferView":0,"byteOffset":3048,"componentType":5126,"count":252,"max":[0.001621113885844,0.0016206100144695531,-0.0022],"min":[-0.001621113885844,-0.0016206100144695534,-0.0022],"type":"VEC3"},{"bufferView":0,"byteOffset":6072,"componentType":5126,"count":126,"max":[0.001621113885844,0.0016206100144695531,-0.008],"min":[-0.001621113885844,-0.0016206100144695534,-0.008],"type":"VEC3"},{"bufferView":0,"byteOffset":7584,"componentType":5126,"count":526,"max":[0.003468327381104,0.0034672493625268913,-0.000281672618896],"min":[-0.003468327381104,-0.003467249362526892,-0.0022],"type":"VEC3"},{"bufferView":0,"byteOffset":13896,"componentType":5126,"count":6223,"max":[0.0035166547622080004,0.0035155617226109905,-4.440892098500999e-19],"min":[-0.0035166547622080004,-0.0035155617226109914,-0.000281672618896],"type":"VEC3"},{"bufferView":0,"byteOffset":88572,"componentType":5126,"count":270,"max":[0.003351654762208,0.003350613007580856,0.0],"min":[-0.003351654762208,-0.003350613007580857,-4.440892098501001e-19],"type":"VEC3"},{"bufferView":0,"byteOffset":91812,"componentType":5126,"count":39,"max":[-0.000856075151557,-0.000167445730336,0.0],"min":[-0.00265,-0.000441666666667,-0.0022],"type":"VEC3"},{"bufferView":0,"byteOffset":92280,"componentType":5126,"count":669,"max":[-0.000171215030311,-0.000171215030311,0.0],"min":[-0.002208333333333,-0.002208333333333,-0.0022],"type":"VEC3"},{"bufferView":0,"byteOffset":100308,"componentType":5126,"count":41,"max":[-0.000167445730336,-0.000856075151557,0.0],"min":[-0.000441666666667,-0.00265,-0.0022],"type":"VEC3"},{"bufferView":0,"byteOffset":100800,"componentType":5126,"count":44,"max":[8.548717289614001e-18,-0.001004674382015,0.0],"min":[-0.000441666666667,-0.00265,-0.0022],"type":"VEC3"},{"bufferView":0,"byteOffset":101328,"componentType":5126,"count":42,"max":[0.000441666666667,-0.001004674382015,0.0],"min":[2.496864461554e-18,-0.00265,-0.0022],"type":"VEC3"},{"bufferView":0,"byteOffset":101832,"componentType":5126,"count":39,"max":[0.000441666666667,-0.000856075151557,0.0],"min":[0.000167445730336,-0.00265,-0.0022],"type":"VEC3"},{"bufferView":0,"byteOffset":102300,"componentType":5126,"count":669,"max":[0.002208333333333,-0.000171215030311,0.0],"min":[0.000171215030311,-0.002208333333333,-0.0022],"type":"VEC3"},{"bufferView":0,"byteOffset":110328,"componentType":5126,"count":43,"max":[0.00265,-0.000167445730336,0.0],"min":[0.000856075151557,-0.000441666666667,-0.0022],"type":"VEC3"},{"bufferView":0,"byteOffset":110844,"componentType":5126,"count":44,"max":[0.00265,1.049160758271e-17,0.0],"min":[0.001004674382015,-0.000441666666667,-0.0022],"type":"VEC3"},{"bufferView":0,"byteOffset":111372,"componentType":5126,"count":42,"max":[0.00265,0.000441666666667,0.0],"min":[0.001004674382015,1.939155597904e-18,-0.0022],"type":"VEC3"},{"bufferView":0,"byteOffset":111876,"componentType":5126,"count":40,"max":[0.00265,0.000441666666667,0.0],"min":[0.000856075151557,0.000167445730336,-0.0022],"type":"VEC3"},{"bufferView":0,"byteOffset":112356,"componentType":5126,"count":669,"max":[0.002208333333333,0.002208333333333,0.0],"min":[0.000171215030311,0.000171215030311,-0.0022],"type":"VEC3"},{"bufferView":0,"byteOffset":120384,"componentType":5126,"count":43,"max":[0.000441666666667,0.00265,0.0],"min":[0.000167445730336,0.000856075151557,-0.0022],"type":"VEC3"},{"bufferView":0,"byteOffset":120900,"componentType":5126,"count":42,"max":[0.000441666666667,0.00265,0.0],"min":[-1.165734175856e-18,0.001004674382015,-0.0022],"type":"VEC3"},{"bufferView":0,"byteOffset":121404,"componentType":5126,"count":44,"max":[-8.267257079394999e-20,0.00265,0.0],"min":[-0.000441666666667,0.001004674382015,-0.0022],"type":"VEC3"},{"bufferView":0,"byteOffset":121932,"componentType":5126,"count":40,"max":[-0.000167445730336,0.00265,0.0],"min":[-0.000441666666667,0.000856075151557,-0.0022],"type":"VEC3"},{"bufferView":0,"byteOffset":122412,"componentType":5126,"count":669,"max":[-0.000171215030311,0.002208333333333,0.0],"min":[-0.002208333333333,0.000171215030311,-0.0022],"type":"VEC3"},{"bufferView":0,"byteOffset":130440,"componentType":5126,"count":41,"max":[-0.000856075151557,0.000441666666667,0.0],"min":[-0.00265,0.000167445730336,-0.0022],"type":"VEC3"},{"bufferView":0,"byteOffset":130932,"componentType":5126,"count":42,"max":[-0.001004674382015,0.000441666666667,0.0],"min":[-0.00265,2.5429879065569993e-19,-0.0022],"type":"VEC3"},{"bufferView":0,"byteOffset":131436,"componentType":5126,"count":44,"max":[-0.001004674382015,7.771561172376001e-19,0.0],"min":[-0.00265,-0.000441666666667,-0.0022],"type":"VEC3"},{"bufferView":0,"byteOffset":131964,"componentType":5126,"count":148,"max":[0.00102998073711,0.00102998073711,-0.0022],"min":[-0.00102998073711,-0.00102998073711,-0.0022],"type":"VEC3"},{"bufferView":1,"byteOffset":0,"componentType":5126,"count":254,"type":"VEC3"},{"bufferView":1,"byteOffset":3048,"componentType":5126,"count":252,"type":"VEC3"},{"bufferView":1,"byteOffset":6072,"componentType":5126,"count":126,"type":"VEC3"},{"bufferView":1,"byteOffset":7584,"componentType":5126,"count":526,"type":"VEC3"},{"bufferView":1,"byteOffset":13896,"componentType":5126,"count":6223,"type":"VEC3"},{"bufferView":1,"byteOffset":88572,"componentType":5126,"count":270,"type":"VEC3"},{"bufferView":1,"byteOffset":91812,"componentType":5126,"count":39,"type":"VEC3"},{"bufferView":1,"byteOffset":92280,"componentType":5126,"count":669,"type":"VEC3"},{"bufferView":1,"byteOffset":100308,"componentType":5126,"count":41,"type":"VEC3"},{"bufferView":1,"byteOffset":100800,"componentType":5126,"count":44,"type":"VEC3"},{"bufferView":1,"byteOffset":101328,"componentType":5126,"count":42,"type":"VEC3"},{"bufferView":1,"byteOffset":101832,"componentType":5126,"count":39,"type":"VEC3"},{"bufferView":1,"byteOffset":102300,"componentType":5126,"count":669,"type":"VEC3"},{"bufferView":1,"byteOffset":110328,"componentType":5126,"count":43,"type":"VEC3"},{"bufferView":1,"byteOffset":110844,"componentType":5126,"count":44,"type":"VEC3"},{"bufferView":1,"byteOffset":111372,"componentType":5126,"count":42,"type":"VEC3"},{"bufferView":1,"byteOffset":111876,"componentType":5126,"count":40,"type":"VEC3"},{"bufferView":1,"byteOffset":112356,"componentType":5126,"count":669,"type":"VEC3"},{"bufferView":1,"byteOffset":120384,"componentType":5126,"count":43,"type":"VEC3"},{"bufferView":1,"byteOffset":120900,"componentType":5126,"count":42,"type":"VEC3"},{"bufferView":1,"byteOffset":121404,"componentType":5126,"count":44,"type":"VEC3"},{"bufferView":1,"byteOffset":121932,"componentType":5126,"count":40,"type":"VEC3"},{"bufferView":1,"byteOffset":122412,"componentType":5126,"count":669,"type":"VEC3"},{"bufferView":1,"byteOffset":130440,"componentType":5126,"count":41,"type":"VEC3"},{"bufferView":1,"byteOffset":130932,"componentType":5126,"count":42,"type":"VEC3"},{"bufferView":1,"byteOffset":131436,"componentType":5126,"count":44,"type":"VEC3"},{"bufferView":1,"byteOffset":131964,"componentType":5126,"count":148,"type":"VEC3"},{"bufferView":2,"byteOffset":0,"componentType":5123,"count":756,"type":"SCALAR"},{"bufferView":2,"byteOffset":1512,"componentType":5123,"count":756,"type":"SCALAR"},{"bufferView":2,"byteOffset":3024,"componentType":5123,"count":372,"type":"SCALAR"},{"bufferView":2,"byteOffset":3768,"componentType":5123,"count":2364,"type":"SCALAR"},{"bufferView":2,"byteOffset":8496,"componentType":5123,"count":36288,"type":"SCALAR"},{"bufferView":2,"byteOffset":81072,"componentType":5123,"count":810,"type":"SCALAR"},{"bufferView":2,"byteOffset":82692,"componentType":5123,"count":216,"type":"SCALAR"},{"bufferView":2,"byteOffset":83124,"componentType":5123,"count":3807,"type":"SCALAR"},{"bufferView":2,"byteOffset":90740,"componentType":5123,"count":228,"type":"SCALAR"},{"bufferView":2,"byteOffset":91196,"componentType":5123,"count":246,"type":"SCALAR"},{"bufferView":2,"byteOffset":91688,"componentType":5123,"count":234,"type":"SCALAR"},{"bufferView":2,"byteOffset":92156,"componentType":5123,"count":216,"type":"SCALAR"},{"bufferView":2,"byteOffset":92588,"componentType":5123,"count":3807,"type":"SCALAR"},{"bufferView":2,"byteOffset":100204,"componentType":5123,"count":240,"type":"SCALAR"},{"bufferView":2,"byteOffset":100684,"componentType":5123,"count":246,"type":"SCALAR"},{"bufferView":2,"byteOffset":101176,"componentType":5123,"count":234,"type":"SCALAR"},{"bufferView":2,"byteOffset":101644,"componentType":5123,"count":222,"type":"SCALAR"},{"bufferView":2,"byteOffset":102088,"componentType":5123,"count":3807,"type":"SCALAR"},{"bufferView":2,"byteOffset":109704,"componentType":5123,"count":240,"type":"SCALAR"},{"bufferView":2,"byteOffset":110184,"componentType":5123,"count":234,"type":"SCALAR"},{"bufferView":2,"byteOffset":110652,"componentType":5123,"count":246,"type":"SCALAR"},{"bufferView":2,"byteOffset":111144,"componentType":5123,"count":222,"type":"SCALAR"},{"bufferView":2,"byteOffset":111588,"componentType":5123,"count":3807,"type":"SCALAR"},{"bufferView":2,"byteOffset":119204,"componentType":5123,"count":228,"type":"SCALAR"},{"bufferView":2,"byteOffset":119660,"componentType":5123,"count":234,"type":"SCALAR"},{"bufferView":2,"byteOffset":120128,"componentType":5123,"count":246,"type":"SCALAR"},{"bufferView":2,"byteOffset":120620,"componentType":5123,"count":438,"type":"SCALAR"}],"asset":{"generator":"Open CASCADE Technology 7.8 [dev.opencascade.org]","version":"2.0"},"bufferViews":[{"buffer":0,"byteLength":133740,"byteOffset":0,"byteStride":12,"target":34962},{"buffer":0,"byteLength":133740,"byteOffset":133740,"byteStride":12,"target":34962},{"buffer":0,"byteLength":121496,"byteOffset":267480,"target":34963}],"buffers":[{"byteLength":388976,"uri":"countersunk_screw_M4x8.bin"}],"materials":[{"name":"mat_0","pbrMetallicRoughness":{"baseColorFactor":[0.7529411911964417,0.7529411911964417,0.7529411911964417,1.0]},"doubleSided":true}],"meshes":[{"name":"CounterSunkScrew_M4-0_7,_8_00,_iso7046_","primitives":[{"attributes":{"NORMAL":27,"POSITION":0},"indices":54,"material":0,"mode":4},{"attributes":{"NORMAL":28,"POSITION":1},"indices":55,"material":0,"mode":4},{"attributes":{"NORMAL":29,"POSITION":2},"indices":56,"material":0,"mode":4},{"attributes":{"NORMAL":30,"POSITION":3},"indices":57,"material":0,"mode":4},{"attributes":{"NORMAL":31,"POSITION":4},"indices":58,"material":0,"mode":4},{"attributes":{"NORMAL":32,"POSITION":5},"indices":59,"material":0,"mode":4},{"attributes":{"NORMAL":33,"POSITION":6},"indices":60,"material":0,"mode":4},{"attributes":{"NORMAL":34,"POSITION":7},"indices":61,"material":0,"mode":4},{"attributes":{"NORMAL":35,"POSITION":8},"indices":62,"material":0,"mode":4},{"attributes":{"NORMAL":36,"POSITION":9},"indices":63,"material":0,"mode":4},{"attributes":{"NORMAL":37,"POSITION":10},"indices":64,"material":0,"mode":4},{"attributes":{"NORMAL":38,"POSITION":11},"indices":65,"material":0,"mode":4},{"attributes":{"NORMAL":39,"POSITION":12},"indices":66,"material":0,"mode":4},{"attributes":{"NORMAL":40,"POSITION":13},"indices":67,"material":0,"mode":4},{"attributes":{"NORMAL":41,"POSITION":14},"indices":68,"material":0,"mode":4},{"attributes":{"NORMAL":42,"POSITION":15},"indices":69,"material":0,"mode":4},{"attributes":{"NORMAL":43,"POSITION":16},"indices":70,"material":0,"mode":4},{"attributes":{"NORMAL":44,"POSITION":17},"indices":71,"material":0,"mode":4},{"attributes":{"NORMAL":45,"POSITION":18},"indices":72,"material":0,"mode":4},{"attributes":{"NORMAL":46,"POSITION":19},"indices":73,"material":0,"mode":4},{"attributes":{"NORMAL":47,"POSITION":20},"indices":74,"material":0,"mode":4},{"attributes":{"NORMAL":48,"POSITION":21},"indices":75,"material":0,"mode":4},{"attributes":{"NORMAL":49,"POSITION":22},"indices":76,"material":0,"mode":4},{"attributes":{"NORMAL":50,"POSITION":23},"indices":77,"material":0,"mode":4},{"attributes":{"NORMAL":51,"POSITION":24},"indices":78,"material":0,"mode":4},{"attributes":{"NORMAL":52,"POSITION":25},"indices":79,"material":0,"mode":4},{"attributes":{"NORMAL":53,"POSITION":26},"indices":80,"material":0,"mode":4}]}],"nodes":[{"rotation":[-0.7071067811865475,0.0,0.0,0.7071067811865475],"mesh":0,"name":"=>[0:1:1:2]"}],"scene":0,"scenes":[{"nodes":[0]}]}