{"accessors":[{"bufferView":0,"byteOffset":0,"componentType":5126,"count":6223,"max":[0.005181801948466,0.005180191351152211,-8.881784197000998e-19],"min":[-0.005181801948466,-0.005180191351152213,-0.000384099025767],"type":"VEC3"},{"bufferView":0,"byteOffset":74676,"componentType":5126,"count":446,"max":[0.005115900974233,0.005114310860128167,-0.000384099025767],"min":[-0.005115900974233,-0.005114310860128168,-0.003],"type":"VEC3"},{"bufferView":0,"byteOffset":80028,"componentType":5126,"count":270,"max":[0.0049568019484660004,0.0049552612852020285,4.440892098501001e-19],"min":[-0.0049568019484660004,-0.004955261285202029,-8.881784197001e-19],"type":"VEC3"},{"bufferView":0,"byteOffset":83268,"componentType":5126,"count":252,"max":[0.0025,0.0024992229550020407,-0.003],"min":[-0.0025,-0.002499222955002041,-0.003],"type":"VEC3"},{"bufferView":0,"byteOffset":86292,"componentType":5126,"count":43,"max":[-0.000895399378731,-0.000166028461508,4.440892098501e-19],"min":[-0.0034,-0.0005666666666670001,-0.003],"type":"VEC3"},{"bufferView":0,"byteOffset":86808,"componentType":5126,"count":390,"max":[-0.000179079875746,-0.000179079875746,4.440892098501e-19],"min":[-0.002833333333333,-0.002833333333333,-0.003],"type":"VEC3"},{"bufferView":0,"byteOffset":91488,"componentType":5126,"count":44,"max":[-0.000166028461508,-0.000895399378731,4.440892098501e-19],"min":[-0.0005666666666670001,-0.0034,-0.003],"type":"VEC3"},{"bufferView":0,"byteOffset":92016,"componentType":5126,"count":74,"max":[6.217248937901e-18,-0.000996170769045,4.440892098501e-19],"min":[-0.0005666666666670001,-0.0034,-0.003],"type":"VEC3"},{"bufferView":0,"byteOffset":92904,"componentType":5126,"count":78,"max":[0.0005666666666670001,-0.000996170769045,4.440892098501e-19],"min":[9.404110777142001e-19,-0.0034,-0.003],"type":"VEC3"},{"bufferView":0,"byteOffset":93840,"componentType":5126,"count":43,"max":[0.0005666666666670001,-0.000895399378731,4.440892098501e-19],"min":[0.000166028461508,-0.0034,-0.003],"type":"VEC3"},{"bufferView":0,"byteOffset":94356,"componentType":5126,"count":390,"max":[0.002833333333333,-0.000179079875746,4.440892098501e-19],"min":[0.000179079875746,-0.002833333333333,-0.003],"type":"VEC3"},{"bufferView":0,"byteOffset":99036,"componentType":5126,"count":42,"max":[0.0034,-0.000166028461508,4.440892098501e-19],"min":[0.000895399378731,-0.0005666666666670001,-0.003],"type":"VEC3"},{"bufferView":0,"byteOffset":99540,"componentType":5126,"count":70,"max":[0.0034,2.6645352591e-18,4.440892098501e-19],"min":[0.000996170769045,-0.0005666666666670001,-0.003],"type":"VEC3"},{"bufferView":0,"byteOffset":100380,"componentType":5126,"count":78,"max":[0.0034,0.0005666666666670001,4.440892098501e-19],"min":[0.000996170769045,-1.109594003081e-18,-0.003],"type":"VEC3"},{"bufferView":0,"byteOffset":101316,"componentType":5126,"count":41,"max":[0.0034,0.0005666666666670001,4.440892098501e-19],"min":[0.000895399378731,0.000166028461508,-0.003],"type":"VEC3"},{"bufferView":0,"byteOffset":101808,"componentType":5126,"count":390,"max":[0.002833333333333,0.002833333333333,4.440892098501001e-19],"min":[0.000179079875746,0.000179079875746,-0.003],"type":"VEC3"},{"bufferView":0,"byteOffset":106488,"componentType":5126,"count":42,"max":[0.0005666666666670001,0.0034,4.440892098501e-19],"min":[0.000166028461508,0.000895399378731,-0.003],"type":"VEC3"},{"bufferView":0,"byteOffset":106992,"componentType":5126,"count":70,"max":[0.0005666666666670001,0.0034,4.440892098500999e-19],"min":[2.8337420543550004e-19,0.000996170769045,-0.003],"type":"VEC3"},{"bufferView":0,"byteOffset":107832,"componentType":5126,"count":78,"max":[1.887379141863e-18,0.0034,4.440892098500999e-19],"min":[-0.0005666666666670001,0.000996170769045,-0.003],"type":"VEC3"},{"bufferView":0,"byteOffset":108768,"componentType":5126,"count":41,"max":[-0.000166028461508,0.0034,4.440892098501e-19],"min":[-0.0005666666666670001,0.000895399378731,-0.003],"type":"VEC3"},{"bufferView":0,"byteOffset":109260,"componentType":5126,"count":390,"max":[-0.000179079875746,0.002833333333333,4.440892098501001e-19],"min":[-0.002833333333333,0.000179079875746,-0.003],"type":"VEC3"},{"bufferView":0,"byteOffset":113940,"componentType":5126,"count":44,"max":[-0.000895399378731,0.0005666666666670001,4.440892098501e-19],"min":[-0.0034,0.000166028461508,-0.003],"type":"VEC3"},{"bufferView":0,"byteOffset":114468,"componentType":5126,"count":74,"max":[-0.000996170769045,0.0005666666666670001,4.440892098501e-19],"min":[-0.0034,-2.9406757167830003e-19,-0.003],"type":"VEC3"},{"bufferView":0,"byteOffset":115356,"componentType":5126,"count":78,"max":[-0.000996170769045,5.5511151231259995e-19,4.440892098501e-19],"min":[-0.0034,-0.0005666666666670001,-0.003],"type":"VEC3"},{"bufferView":0,"byteOffset":116292,"componentType":5126,"count":254,"max":[0.002458734122635,0.0024579699038144776,-0.003],"min":[-0.002458734122635,-0.0024579699038144785,-0.016],"type":"VEC3"},{"bufferView":0,"byteOffset":119340,"componentType":5126,"count":112,"max":[0.001098596411061,0.001098596411061,-0.003],"min":[-0.001098596411061,-0.001098596411061,-0.003],"type":"VEC3"},{"bufferView":0,"byteOffset":120684,"componentType":5126,"count":126,"max":[0.002458734122635,0.0024579699038144776,-0.016],"min":[-0.002458734122635,-0.0024579699038144785,-0.016],"type":"VEC3"},{"bufferView":1,"byteOffset":0,"componentType":5126,"count":6223,"type":"VEC3"},{"bufferView":1,"byteOffset":74676,"componentType":5126,"count":446,"type":"VEC3"},{"bufferView":1,"byteOffset":80028,"componentType":5126,"count":270,"type":"VEC3"},{"bufferView":1,"byteOffset":83268,"componentType":5126,"count":252,"type":"VEC3"},{"bufferView":1,"byteOffset":86292,"componentType":5126,"count":43,"type":"VEC3"},{"bufferView":1,"byteOffset":86808,"componentType":5126,"count":390,"type":"VEC3"},{"bufferView":1,"byteOffset":91488,"componentType":5126,"count":44,"type":"VEC3"},{"bufferView":1,"byteOffset":92016,"componentType":5126,"count":74,"type":"VEC3"},{"bufferView":1,"byteOffset":92904,"componentType":5126,"count":78,"type":"VEC3"},{"bufferView":1,"byteOffset":93840,"componentType":5126,"count":43,"type":"VEC3"},{"bufferView":1,"byteOffset":94356,"componentType":5126,"count":390,"type":"VEC3"},{"bufferView":1,"byteOffset":99036,"componentType":5126,"count":42,"type":"VEC3"},{"bufferView":1,"byteOffset":99540,"componentType":5126,"count":70,"type":"VEC3"},{"bufferView":1,"byteOffset":100380,"componentType":5126,"count":78,"type":"VEC3"},{"bufferView":1,"byteOffset":101316,"componentType":5126,"count":41,"type":"VEC3"},{"bufferView":1,"byteOffset":101808,"componentType":5126,"count":390,"type":"VEC3"},{"bufferView":1,"byteOffset":106488,"componentType":5126,"count":42,"type":"VEC3"},{"bufferView":1,"byteOffset":106992,"componentType":5126,"count":70,"type":"VEC3"},{"bufferView":1,"byteOffset":107832,"componentType":5126,"count":78,"type":"VEC3"},{"bufferView":1,"byteOffset":108768,"componentType":5126,"count":41,"type":"VEC3"},{"bufferView":1,"byteOffset":109260,"componentType":5126,"count":390,"type":"VEC3"},{"bufferView":1,"byteOffset":113940,"componentType":5126,"count":44,"type":"VEC3"},{"bufferView":1,"byteOffset":114468,"componentType":5126,"count":74,"type":"VEC3"},{"bufferView":1,"byteOffset":115356,"componentType":5126,"count":78,"type":"VEC3"},{"bufferView":1,"byteOffset":116292,"componentType":5126,"count":254,"type":"VEC3"},{"bufferView":1,"byteOffset":119340,"componentType":5126,"count":112,"type":"VEC3"},{"bufferView":1,"byteOffset":120684,"componentType":5126,"count":126,"type":"VEC3"},{"bufferView":2,"byteOffset":0,"componentType":5123,"count":36288,"type":"SCALAR"},{"bufferView":2,"byteOffset":72576,"componentType":5123,"count":1890,"type":"SCALAR"},{"bufferView":2,"byteOffset":76356,"componentType":5123,"count":810,"type":"SCALAR"},{"bufferView":2,"byteOffset":77976,"componentType":5123,"count":756,"type":"SCALAR"},{"bufferView":2,"byteOffset":79488,"componentType":5123,"count":240,"type":"SCALAR"},{"bufferView":2,"byteOffset":79968,"componentType":5123,"count":2172,"type":"SCALAR"},{"bufferView":2,"byteOffset":84312,"componentType":5123,"count":246,"type":"SCALAR"},{"bufferView":2,"byteOffset":84804,"componentType":5123,"count":420,"type":"SCALAR"},{"bufferView":2,"byteOffset":85644,"componentType":5123,"count":444,"type":"SCALAR"},{"bufferView":2,"byteOffset":86532,"componentType":5123,"count":240,"type":"SCALAR"},{"bufferView":2,"byteOffset":87012,"componentType":5123,"count":2172,"type":"SCALAR"},{"bufferView":2,"byteOffset":91356,"componentType":5123,"count":234,"type":"SCALAR"},{"bufferView":2,"byteOffset":91824,"componentType":5123,"count":396,"type":"SCALAR"},{"bufferView":2,"byteOffset":92616,"componentType":5123,"count":444,"type":"SCALAR"},{"bufferView":2,"byteOffset":93504,"componentType":5123,"count":228,"type":"SCALAR"},{"bufferView":2,"byteOffset":93960,"componentType":5123,"count":2172,"type":"SCALAR"},{"bufferView":2,"byteOffset":98304,"componentType":5123,"count":234,"type":"SCALAR"},{"bufferView":2,"byteOffset":98772,"componentType":5123,"count":396,"type":"SCALAR"},{"bufferView":2,"byteOffset":99564,"componentType":5123,"count":444,"type":"SCALAR"},{"bufferView":2,"byteOffset":100452,"componentType":5123,"count":228,"type":"SCALAR"},{"bufferView":2,"byteOffset":100908,"componentType":5123,"count":2172,"type":"SCALAR"},{"bufferView":2,"byteOffset":105252,"componentType":5123,"count":246,"type":"SCALAR"},{"bufferView":2,"byteOffset":105744,"componentType":5123,"count":420,"type":"SCALAR"},{"bufferView":2,"byteOffset":106584,"componentType":5123,"count":444,"type":"SCALAR"},{"bufferView":2,"byteOffset":107472,"componentType":5123,"count":756,"type":"SCALAR"},{"bufferView":2,"byteOffset":108984,"componentType":5123,"count":330,"type":"SCALAR"},{"bufferView":2,"byteOffset":109644,"componentType":5123,"count":372,"type":"SCALAR"}],"asset":{"generator":"Open CASCADE Technology 7.8 [dev.opencascade.org]","version":"2.0"},"bufferViews":[{"buffer":0,"byteLength":122196,"byteOffset":0,"byteStride":12,"target":34962},{"buffer":0,"byteLength":122196,"byteOffset":122196,"byteStride":12,"target":34962},{"buffer":0,"byteLength":110388,"byteOffset":244392,"target":34963}],"buffers":[{"byteLength":354780,"uri":"countersunk_screw_M6x16.bin"}],"materials":[{"name":"mat_0","pbrMetallicRoughness":{"baseColorFactor":[0.7529411911964417,0.7529411911964417,0.7529411911964417,1.0]},"doubleSided":true}],"meshes":[{"name":"CounterSunkScrew_M6-1,_16_00,_iso7046_","primitives":[{"attributes":{"NORMAL":27,"POSITION":0},"indices":54,"material":0,"mode":4},{"attributes":{"NORMAL":28,"POSITION":1},"indices":55,"material":0,"mode":4},{"attributes":{"NORMAL":29,"POSITION":2},"indices":56,"material":0,"mode":4},{"attributes":{"NORMAL":30,"POSITION":3},"indices":57,"material":0,"mode":4},{"attributes":{"NORMAL":31,"POSITION":4},"indices":58,"material":0,"mode":4},{"attributes":{"NORMAL":32,"POSITION":5},"indices":59,"material":0,"mode":4},{"attributes":{"NORMAL":33,"POSITION":6},"indices":60,"material":0,"mode":4},{"attributes":{"NORMAL":34,"POSITION":7},"indices":61,"material":0,"mode":4},{"attributes":{"NORMAL":35,"POSITION":8},"indices":62,"material":0,"mode":4},{"attributes":{"NORMAL":36,"POSITION":9},"indices":63,"material":0,"mode":4},{"attributes":{"NORMAL":37,"POSITION":10},"indices":64,"material":0,"mode":4},{"attributes":{"NORMAL":38,"POSITION":11},"indices":65,"material":0,"mode":4},{"attributes":{"NORMAL":39,"POSITION":12},"indices":66,"material":0,"mode":4},{"attributes":{"NORMAL":40,"POSITION":13},"indices":67,"material":0,"mode":4},{"attributes":{"NORMAL":41,"POSITION":14},"indices":68,"material":0,"mode":4},{"attributes":{"NORMAL":42,"POSITION":15},"indices":69,"material":0,"mode":4},{"attributes":{"NORMAL":43,"POSITION":16},"indices":70,"material":0,"mode":4},{"attributes":{"NORMAL":44,"POSITION":17},"indices":71,"material":0,"mode":4},{"attributes":{"NORMAL":45,"POSITION":18},"indices":72,"material":0,"mode":4},{"attributes":{"NORMAL":46,"POSITION":19},"indices":73,"material":0,"mode":4},{"attributes":{"NORMAL":47,"POSITION":20},"indices":74,"material":0,"mode":4},{"attributes":{"NORMAL":48,"POSITION":21},"indices":75,"material":0,"mode":4},{"attributes":{"NORMAL":49,"POSITION":22},"indices":76,"material":0,"mode":4},{"attributes":{"NORMAL":50,"POSITION":23},"indices":77,"material":0,"mode":4},{"attributes":{"NORMAL":51,"POSITION":24},"indices":78,"material":0,"mode":4},{"attributes":{"NORMAL":52,"POSITION":25},"indices":79,"material":0,"mode":4},{"attributes":{"NORMAL":53,"POSITION":26},"indices":80,"material":0,"mode":4}]}],"nodes":[{"rotation":[-0.7071067811865475,0.0,0.0,0.7071067811865475],"mesh":0,"name":"=>[0:1:1:2]"}],"scene":0,"scenes":[{"nodes":[0]}]}