{"accessors":[{"bufferView":0,"byteOffset":0,"componentType":5126,"count":254,"max":[0.000783493649054,0.0007832501251256278,-0.0012],"min":[-0.000783493649054,-0.0007832501251256279,-0.004],"type":"VEC3"},{"bufferView":0,"byteOffset":3048,"componentType":5126,"count":252,"max":[0.000783493649054,0.0007832501251256278,-0.0012],"min":[-0.000783493649054,-0.0007832501251256279,-0.0012],"type":"VEC3"},{"bufferView":0,"byteOffset":6072,"componentType":5126,"count":126,"max":[0.000783493649054,0.0007832501251256278,-0.004],"min":[-0.000783493649054,-0.0007832501251256279,-0.004],"type":"VEC3"},{"bufferView":0,"byteOffset":7584,"componentType":5126,"count":589,"max":[0.001746360389693,0.001745817589450822,-0.000153639610307],"min":[-0.001746360389693,-0.0017458175894508223,-0.0012],"type":"VEC3"},{"bufferView":0,"byteOffset":14652,"componentType":5126,"count":6223,"max":[0.0017727207793860002,0.0017721697858602398,-2.2204460492499997e-19],"min":[-0.0017727207793860002,-0.00177216978586024,-0.000153639610307],"type":"VEC3"},{"bufferView":0,"byteOffset":89328,"componentType":5126,"count":270,"max":[0.001682720779386,0.0016821977594801663,2.22044604925e-19],"min":[-0.001682720779386,-0.0016821977594801668,-2.22044604925e-19],"type":"VEC3"},{"bufferView":0,"byteOffset":92568,"componentType":5126,"count":150,"max":[-0.000103159392058,-0.000017736024674000003,2.22044604925e-19],"min":[-0.00095,-0.000158333333333,-0.0011],"type":"VEC3"},{"bufferView":0,"byteOffset":94368,"componentType":5126,"count":693,"max":[-0.00002063187841169,-0.00002063187841169,2.22044604925e-19],"min":[-0.000791666666667,-0.000791666666667,-0.0011],"type":"VEC3"},{"bufferView":0,"byteOffset":102684,"componentType":5126,"count":143,"max":[-0.000017736024674000003,-0.000103159392058,2.22044604925e-19],"min":[-0.000158333333333,-0.00095,-0.0011],"type":"VEC3"},{"bufferView":0,"byteOffset":104400,"componentType":5126,"count":110,"max":[4.182250372664e-20,-0.000106416148044,2.22044604925e-19],"min":[-0.000158333333333,-0.00095,-0.0011],"type":"VEC3"},{"bufferView":0,"byteOffset":105720,"componentType":5126,"count":110,"max":[0.000158333333333,-0.000106416148044,2.22044604925e-19],"min":[-3.025357742104e-18,-0.00095,-0.0011],"type":"VEC3"},{"bufferView":0,"byteOffset":107040,"componentType":5126,"count":150,"max":[0.000158333333333,-0.000103159392058,2.22044604925e-19],"min":[0.000017736024674000003,-0.00095,-0.0011],"type":"VEC3"},{"bufferView":0,"byteOffset":108840,"componentType":5126,"count":696,"max":[0.000791666666667,-0.00002063187841169,2.22044604925e-19],"min":[0.00002063187841169,-0.000791666666667,-0.0011],"type":"VEC3"},{"bufferView":0,"byteOffset":117192,"componentType":5126,"count":149,"max":[0.00095,-0.000017736024674000003,2.22044604925e-19],"min":[0.000103159392058,-0.000158333333333,-0.0011],"type":"VEC3"},{"bufferView":0,"byteOffset":118980,"componentType":5126,"count":119,"max":[0.00095,2.248201624866e-18,2.22044604925e-19],"min":[0.000106416148044,-0.000158333333333,-0.0011],"type":"VEC3"},{"bufferView":0,"byteOffset":120408,"componentType":5126,"count":110,"max":[0.00095,0.000158333333333,2.22044604925e-19],"min":[0.000106416148044,3.348962010151e-19,-0.0011],"type":"VEC3"},{"bufferView":0,"byteOffset":121728,"componentType":5126,"count":144,"max":[0.00095,0.000158333333333,2.22044604925e-19],"min":[0.000103159392058,0.000017736024674000003,-0.0011],"type":"VEC3"},{"bufferView":0,"byteOffset":123456,"componentType":5126,"count":695,"max":[0.000791666666667,0.000791666666667,2.22044604925e-19],"min":[0.00002063187841169,0.00002063187841169,-0.0011],"type":"VEC3"},{"bufferView":0,"byteOffset":131796,"componentType":5126,"count":149,"max":[0.000158333333333,0.00095,2.22044604925e-19],"min":[0.000017736024674000003,0.000103159392058,-0.0011],"type":"VEC3"},{"bufferView":0,"byteOffset":133584,"componentType":5126,"count":119,"max":[0.000158333333333,0.00095,2.2204460492499997e-19],"min":[-5.52335954751e-18,0.000106416148044,-0.0011],"type":"VEC3"},{"bufferView":0,"byteOffset":135012,"componentType":5126,"count":110,"max":[-2.9124440366090003e-19,0.00095,2.2204460492499997e-19],"min":[-0.000158333333333,0.000106416148044,-0.0011],"type":"VEC3"},{"bufferView":0,"byteOffset":136332,"componentType":5126,"count":144,"max":[-0.000017736024674000003,0.00095,2.22044604925e-19],"min":[-0.000158333333333,0.000103159392058,-0.0011],"type":"VEC3"},{"bufferView":0,"byteOffset":138060,"componentType":5126,"count":696,"max":[-0.00002063187841169,0.000791666666667,2.22044604925e-19],"min":[-0.000791666666667,0.00002063187841169,-0.0011],"type":"VEC3"},{"bufferView":0,"byteOffset":146412,"componentType":5126,"count":149,"max":[-0.000103159392058,0.000158333333333,2.22044604925e-19],"min":[-0.00095,0.000017736024674000003,-0.0011],"type":"VEC3"},{"bufferView":0,"byteOffset":148200,"componentType":5126,"count":119,"max":[-0.000106416148044,0.000158333333333,2.22044604925e-19],"min":[-0.00095,-3.580469254416e-18,-0.0011],"type":"VEC3"},{"bufferView":0,"byteOffset":149628,"componentType":5126,"count":115,"max":[-0.000106416148044,-4.422599162225e-19,2.22044604925e-19],"min":[-0.00095,-0.000158333333333,-0.0011],"type":"VEC3"},{"bufferView":0,"byteOffset":151008,"componentType":5126,"count":68,"max":[0.000126985689974,0.000126985689974,-0.0011],"min":[-0.000126985689974,-0.000126985689974,-0.0011],"type":"VEC3"},{"bufferView":1,"byteOffset":0,"componentType":5126,"count":254,"type":"VEC3"},{"bufferView":1,"byteOffset":3048,"componentType":5126,"count":252,"type":"VEC3"},{"bufferView":1,"byteOffset":6072,"componentType":5126,"count":126,"type":"VEC3"},{"bufferView":1,"byteOffset":7584,"componentType":5126,"count":589,"type":"VEC3"},{"bufferView":1,"byteOffset":14652,"componentType":5126,"count":6223,"type":"VEC3"},{"bufferView":1,"byteOffset":89328,"componentType":5126,"count":270,"type":"VEC3"},{"bufferView":1,"byteOffset":92568,"componentType":5126,"count":150,"type":"VEC3"},{"bufferView":1,"byteOffset":94368,"componentType":5126,"count":693,"type":"VEC3"},{"bufferView":1,"byteOffset":102684,"componentType":5126,"count":143,"type":"VEC3"},{"bufferView":1,"byteOffset":104400,"componentType":5126,"count":110,"type":"VEC3"},{"bufferView":1,"byteOffset":105720,"componentType":5126,"count":110,"type":"VEC3"},{"bufferView":1,"byteOffset":107040,"componentType":5126,"count":150,"type":"VEC3"},{"bufferView":1,"byteOffset":108840,"componentType":5126,"count":696,"type":"VEC3"},{"bufferView":1,"byteOffset":117192,"componentType":5126,"count":149,"type":"VEC3"},{"bufferView":1,"byteOffset":118980,"componentType":5126,"count":119,"type":"VEC3"},{"bufferView":1,"byteOffset":120408,"componentType":5126,"count":110,"type":"VEC3"},{"bufferView":1,"byteOffset":121728,"componentType":5126,"count":144,"type":"VEC3"},{"bufferView":1,"byteOffset":123456,"componentType":5126,"count":695,"type":"VEC3"},{"bufferView":1,"byteOffset":131796,"componentType":5126,"count":149,"type":"VEC3"},{"bufferView":1,"byteOffset":133584,"componentType":5126,"count":119,"type":"VEC3"},{"bufferView":1,"byteOffset":135012,"componentType":5126,"count":110,"type":"VEC3"},{"bufferView":1,"byteOffset":136332,"componentType":5126,"count":144,"type":"VEC3"},{"bufferView":1,"byteOffset":138060,"componentType":5126,"count":696,"type":"VEC3"},{"bufferView":1,"byteOffset":146412,"componentType":5126,"count":149,"type":"VEC3"},{"bufferView":1,"byteOffset":148200,"componentType":5126,"count":119,"type":"VEC3"},{"bufferView":1,"byteOffset":149628,"componentType":5126,"count":115,"type":"VEC3"},{"bufferView":1,"byteOffset":151008,"componentType":5126,"count":68,"type":"VEC3"},{"bufferView":2,"byteOffset":0,"componentType":5123,"count":756,"type":"SCALAR"},{"bufferView":2,"byteOffset":1512,"componentType":5123,"count":756,"type":"SCALAR"},{"bufferView":2,"byteOffset":3024,"componentType":5123,"count":372,"type":"SCALAR"},{"bufferView":2,"byteOffset":3768,"componentType":5123,"count":2736,"type":"SCALAR"},{"bufferView":2,"byteOffset":9240,"componentType":5123,"count":36288,"type":"SCALAR"},{"bufferView":2,"byteOffset":81816,"componentType":5123,"count":810,"type":"SCALAR"},{"bufferView":2,"byteOffset":83436,"componentType":5123,"count":876,"type":"SCALAR"},{"bufferView":2,"byteOffset":85188,"componentType":5123,"count":4035,"type":"SCALAR"},{"bufferView":2,"byteOffset":93260,"componentType":5123,"count":834,"type":"SCALAR"},{"bufferView":2,"byteOffset":94928,"componentType":5123,"count":636,"type":"SCALAR"},{"bufferView":2,"byteOffset":96200,"componentType":5123,"count":636,"type":"SCALAR"},{"bufferView":2,"byteOffset":97472,"componentType":5123,"count":876,"type":"SCALAR"},{"bufferView":2,"byteOffset":99224,"componentType":5123,"count":4053,"type":"SCALAR"},{"bufferView":2,"byteOffset":107332,"componentType":5123,"count":870,"type":"SCALAR"},{"bufferView":2,"byteOffset":109072,"componentType":5123,"count":690,"type":"SCALAR"},{"bufferView":2,"byteOffset":110452,"componentType":5123,"count":636,"type":"SCALAR"},{"bufferView":2,"byteOffset":111724,"componentType":5123,"count":840,"type":"SCALAR"},{"bufferView":2,"byteOffset":113404,"componentType":5123,"count":4047,"type":"SCALAR"},{"bufferView":2,"byteOffset":121500,"componentType":5123,"count":870,"type":"SCALAR"},{"bufferView":2,"byteOffset":123240,"componentType":5123,"count":690,"type":"SCALAR"},{"bufferView":2,"byteOffset":124620,"componentType":5123,"count":636,"type":"SCALAR"},{"bufferView":2,"byteOffset":125892,"componentType":5123,"count":840,"type":"SCALAR"},{"bufferView":2,"byteOffset":127572,"componentType":5123,"count":4053,"type":"SCALAR"},{"bufferView":2,"byteOffset":135680,"componentType":5123,"count":870,"type":"SCALAR"},{"bufferView":2,"byteOffset":137420,"componentType":5123,"count":690,"type":"SCALAR"},{"bufferView":2,"byteOffset":138800,"componentType":5123,"count":666,"type":"SCALAR"},{"bufferView":2,"byteOffset":140132,"componentType":5123,"count":198,"type":"SCALAR"}],"asset":{"generator":"Open CASCADE Technology 7.8 [dev.opencascade.org]","version":"2.0"},"bufferViews":[{"buffer":0,"byteLength":151824,"byteOffset":0,"byteStride":12,"target":34962},{"buffer":0,"byteLength":151824,"byteOffset":151824,"byteStride":12,"target":34962},{"buffer":0,"byteLength":140528,"byteOffset":303648,"target":34963}],"buffers":[{"byteLength":444176,"uri":"countersunk_screw_M2x4.bin"}],"materials":[{"name":"mat_0","pbrMetallicRoughness":{"baseColorFactor":[0.7529411911964417,0.7529411911964417,0.7529411911964417,1.0]},"doubleSided":true}],"meshes":[{"name":"CounterSunkScrew_M2-0_4,_4_00,_iso7046_","primitives":[{"attributes":{"NORMAL":27,"POSITION":0},"indices":54,"material":0,"mode":4},{"attributes":{"NORMAL":28,"POSITION":1},"indices":55,"material":0,"mode":4},{"attributes":{"NORMAL":29,"POSITION":2},"indices":56,"material":0,"mode":4},{"attributes":{"NORMAL":30,"POSITION":3},"indices":57,"material":0,"mode":4},{"attributes":{"NORMAL":31,"POSITION":4},"indices":58,"material":0,"mode":4},{"attributes":{"NORMAL":32,"POSITION":5},"indices":59,"material":0,"mode":4},{"attributes":{"NORMAL":33,"POSITION":6},"indices":60,"material":0,"mode":4},{"attributes":{"NORMAL":34,"POSITION":7},"indices":61,"material":0,"mode":4},{"attributes":{"NORMAL":35,"POSITION":8},"indices":62,"material":0,"mode":4},{"attributes":{"NORMAL":36,"POSITION":9},"indices":63,"material":0,"mode":4},{"attributes":{"NORMAL":37,"POSITION":10},"indices":64,"material":0,"mode":4},{"attributes":{"NORMAL":38,"POSITION":11},"indices":65,"material":0,"mode":4},{"attributes":{"NORMAL":39,"POSITION":12},"indices":66,"material":0,"mode":4},{"attributes":{"NORMAL":40,"POSITION":13},"indices":67,"material":0,"mode":4},{"attributes":{"NORMAL":41,"POSITION":14},"indices":68,"material":0,"mode":4},{"attributes":{"NORMAL":42,"POSITION":15},"indices":69,"material":0,"mode":4},{"attributes":{"NORMAL":43,"POSITION":16},"indices":70,"material":0,"mode":4},{"attributes":{"NORMAL":44,"POSITION":17},"indices":71,"material":0,"mode":4},{"attributes":{"NORMAL":45,"POSITION":18},"indices":72,"material":0,"mode":4},{"attributes":{"NORMAL":46,"POSITION":19},"indices":73,"material":0,"mode":4},{"attributes":{"NORMAL":47,"POSITION":20},"indices":74,"material":0,"mode":4},{"attributes":{"NORMAL":48,"POSITION":21},"indices":75,"material":0,"mode":4},{"attributes":{"NORMAL":49,"POSITION":22},"indices":76,"material":0,"mode":4},{"attributes":{"NORMAL":50,"POSITION":23},"indices":77,"material":0,"mode":4},{"attributes":{"NORMAL":51,"POSITION":24},"indices":78,"material":0,"mode":4},{"attributes":{"NORMAL":52,"POSITION":25},"indices":79,"material":0,"mode":4},{"attributes":{"NORMAL":53,"POSITION":26},"indices":80,"material":0,"mode":4}]}],"nodes":[{"rotation":[-0.7071067811865475,0.0,0.0,0.7071067811865475],"mesh":0,"name":"=>[0:1:1:2]"}],"scene":0,"scenes":[{"nodes":[0]}]}