{"accessors":[{"bufferView":0,"byteOffset":0,"componentType":5126,"count":254,"max":[0.001229367061317,0.001228984951906739,-0.00165],"min":[-0.001229367061317,-0.0012289849519067392,-0.01],"type":"VEC3"},{"bufferView":0,"byteOffset":3048,"componentType":5126,"count":252,"max":[0.001229367061317,0.001228984951906739,-0.00165],"min":[-0.001229367061317,-0.0012289849519067392,-0.00165],"type":"VEC3"},{"bufferView":0,"byteOffset":6072,"componentType":5126,"count":126,"max":[0.001229367061317,0.001228984951906739,-0.01],"min":[-0.001229367061317,-0.0012289849519067392,-0.01],"type":"VEC3"},{"bufferView":0,"byteOffset":7584,"componentType":5126,"count":510,"max":[0.002588745535828,0.0025879409071201584,-0.000211254464172],"min":[-0.002588745535828,-0.002587940907120159,-0.00165],"type":"VEC3"},{"bufferView":0,"byteOffset":13704,"componentType":5126,"count":6223,"max":[0.002624991071656,0.002624175177183233,-4.440892098500999e-19],"min":[-0.002624991071656,-0.0026241751771832332,-0.000211254464172],"type":"VEC3"},{"bufferView":0,"byteOffset":88380,"componentType":5126,"count":270,"max":[0.002501241071656,0.0025004636409106315,2.22044604925e-19],"min":[-0.002501241071656,-0.0025004636409106324,-4.440892098501001e-19],"type":"VEC3"},{"bufferView":0,"byteOffset":91620,"componentType":5126,"count":40,"max":[-0.000290180366897,-0.00005621734840872001,2.22044604925e-19],"min":[-0.0015500000000000002,-0.000258333333333,-0.00165],"type":"VEC3"},{"bufferView":0,"byteOffset":92100,"componentType":5126,"count":739,"max":[-0.00005803607340583,-0.00005803607353103,2.22044604925e-19],"min":[-0.0012916666666670002,-0.0012916666666670002,-0.00165],"type":"VEC3"},{"bufferView":0,"byteOffset":100968,"componentType":5126,"count":41,"max":[-0.00005621734828352,-0.00029018036702900004,2.22044604925e-19],"min":[-0.000258333333333,-0.0015500000000000002,-0.00165],"type":"VEC3"},{"bufferView":0,"byteOffset":101460,"componentType":5126,"count":42,"max":[-2.997657484116e-18,-0.000337304090584,2.22044604925e-19],"min":[-0.000258333333333,-0.0015500000000000002,-0.00165],"type":"VEC3"},{"bufferView":0,"byteOffset":101964,"componentType":5126,"count":41,"max":[0.000258333333333,-0.000337304090452,2.22044604925e-19],"min":[-1.3988810110280002e-17,-0.0015500000000000002,-0.00165],"type":"VEC3"},{"bufferView":0,"byteOffset":102456,"componentType":5126,"count":40,"max":[0.000258333333333,-0.000290180366897,2.22044604925e-19],"min":[0.00005621734840872001,-0.0015500000000000002,-0.00165],"type":"VEC3"},{"bufferView":0,"byteOffset":102936,"componentType":5126,"count":739,"max":[0.0012916666666670002,-0.00005803607340583,2.22044604925e-19],"min":[0.00005803607353103,-0.0012916666666670002,-0.00165],"type":"VEC3"},{"bufferView":0,"byteOffset":111804,"componentType":5126,"count":40,"max":[0.0015500000000000002,-0.00005621734828352,2.22044604925e-19],"min":[0.00029018036702900004,-0.000258333333333,-0.00165],"type":"VEC3"},{"bufferView":0,"byteOffset":112284,"componentType":5126,"count":42,"max":[0.0015500000000000002,1.609823385706e-18,2.22044604925e-19],"min":[0.000337304090584,-0.000258333333333,-0.00165],"type":"VEC3"},{"bufferView":0,"byteOffset":112788,"componentType":5126,"count":41,"max":[0.0015500000000000002,0.000258333333333,2.22044604925e-19],"min":[0.000337304090452,4.649058915617999e-19,-0.00165],"type":"VEC3"},{"bufferView":0,"byteOffset":113280,"componentType":5126,"count":38,"max":[0.0015500000000000002,0.000258333333333,2.22044604925e-19],"min":[0.000290180366897,0.00005621734840872001,-0.00165],"type":"VEC3"},{"bufferView":0,"byteOffset":113736,"componentType":5126,"count":739,"max":[0.0012916666666670002,0.0012916666666670002,2.22044604925e-19],"min":[0.000058036073405840005,0.00005803607353103,-0.00165],"type":"VEC3"},{"bufferView":0,"byteOffset":122604,"componentType":5126,"count":40,"max":[0.000258333333333,0.0015500000000000002,2.22044604925e-19],"min":[0.00005621734828352,0.00029018036702900004,-0.00165],"type":"VEC3"},{"bufferView":0,"byteOffset":123084,"componentType":5126,"count":42,"max":[0.000258333333333,0.0015500000000000002,2.22044604925e-19],"min":[-2.492450690283e-17,0.000337304090584,-0.00165],"type":"VEC3"},{"bufferView":0,"byteOffset":123588,"componentType":5126,"count":41,"max":[-4.178574250119e-18,0.0015500000000000002,2.22044604925e-19],"min":[-0.000258333333333,0.000337304090452,-0.00165],"type":"VEC3"},{"bufferView":0,"byteOffset":124080,"componentType":5126,"count":38,"max":[-0.00005621734840872001,0.0015500000000000002,2.22044604925e-19],"min":[-0.000258333333333,0.000290180366897,-0.00165],"type":"VEC3"},{"bufferView":0,"byteOffset":124536,"componentType":5126,"count":739,"max":[-0.00005803607353103,0.0012916666666670002,2.22044604925e-19],"min":[-0.0012916666666670002,0.00005803607340583,-0.00165],"type":"VEC3"},{"bufferView":0,"byteOffset":133404,"componentType":5126,"count":41,"max":[-0.00029018036702900004,0.000258333333333,2.22044604925e-19],"min":[-0.0015500000000000002,0.00005621734840872001,-0.00165],"type":"VEC3"},{"bufferView":0,"byteOffset":133896,"componentType":5126,"count":43,"max":[-0.000337304090452,0.000258333333333,2.22044604925e-19],"min":[-0.0015500000000000002,-1.2989609388110001e-17,-0.00165],"type":"VEC3"},{"bufferView":0,"byteOffset":134412,"componentType":5126,"count":41,"max":[-0.000337304090452,-1.9068080447939998e-18,2.22044604925e-19],"min":[-0.0015500000000000002,-0.000258333333333,-0.00165],"type":"VEC3"},{"bufferView":0,"byteOffset":134904,"componentType":5126,"count":140,"max":[0.000349048983817,0.000349048983817,-0.00165],"min":[-0.000349048983817,-0.000349048983817,-0.00165],"type":"VEC3"},{"bufferView":1,"byteOffset":0,"componentType":5126,"count":254,"type":"VEC3"},{"bufferView":1,"byteOffset":3048,"componentType":5126,"count":252,"type":"VEC3"},{"bufferView":1,"byteOffset":6072,"componentType":5126,"count":126,"type":"VEC3"},{"bufferView":1,"byteOffset":7584,"componentType":5126,"count":510,"type":"VEC3"},{"bufferView":1,"byteOffset":13704,"componentType":5126,"count":6223,"type":"VEC3"},{"bufferView":1,"byteOffset":88380,"componentType":5126,"count":270,"type":"VEC3"},{"bufferView":1,"byteOffset":91620,"componentType":5126,"count":40,"type":"VEC3"},{"bufferView":1,"byteOffset":92100,"componentType":5126,"count":739,"type":"VEC3"},{"bufferView":1,"byteOffset":100968,"componentType":5126,"count":41,"type":"VEC3"},{"bufferView":1,"byteOffset":101460,"componentType":5126,"count":42,"type":"VEC3"},{"bufferView":1,"byteOffset":101964,"componentType":5126,"count":41,"type":"VEC3"},{"bufferView":1,"byteOffset":102456,"componentType":5126,"count":40,"type":"VEC3"},{"bufferView":1,"byteOffset":102936,"componentType":5126,"count":739,"type":"VEC3"},{"bufferView":1,"byteOffset":111804,"componentType":5126,"count":40,"type":"VEC3"},{"bufferView":1,"byteOffset":112284,"componentType":5126,"count":42,"type":"VEC3"},{"bufferView":1,"byteOffset":112788,"componentType":5126,"count":41,"type":"VEC3"},{"bufferView":1,"byteOffset":113280,"componentType":5126,"count":38,"type":"VEC3"},{"bufferView":1,"byteOffset":113736,"componentType":5126,"count":739,"type":"VEC3"},{"bufferView":1,"byteOffset":122604,"componentType":5126,"count":40,"type":"VEC3"},{"bufferView":1,"byteOffset":123084,"componentType":5126,"count":42,"type":"VEC3"},{"bufferView":1,"byteOffset":123588,"componentType":5126,"count":41,"type":"VEC3"},{"bufferView":1,"byteOffset":124080,"componentType":5126,"count":38,"type":"VEC3"},{"bufferView":1,"byteOffset":124536,"componentType":5126,"count":739,"type":"VEC3"},{"bufferView":1,"byteOffset":133404,"componentType":5126,"count":41,"type":"VEC3"},{"bufferView":1,"byteOffset":133896,"componentType":5126,"count":43,"type":"VEC3"},{"bufferView":1,"byteOffset":134412,"componentType":5126,"count":41,"type":"VEC3"},{"bufferView":1,"byteOffset":134904,"componentType":5126,"count":140,"type":"VEC3"},{"bufferView":2,"byteOffset":0,"componentType":5123,"count":756,"type":"SCALAR"},{"bufferView":2,"byteOffset":1512,"componentType":5123,"count":756,"type":"SCALAR"},{"bufferView":2,"byteOffset":3024,"componentType":5123,"count":372,"type":"SCALAR"},{"bufferView":2,"byteOffset":3768,"componentType":5123,"count":2268,"type":"SCALAR"},{"bufferView":2,"byteOffset":8304,"componentType":5123,"count":36288,"type":"SCALAR"},{"bufferView":2,"byteOffset":80880,"componentType":5123,"count":810,"type":"SCALAR"},{"bufferView":2,"byteOffset":82500,"componentType":5123,"count":222,"type":"SCALAR"},{"bufferView":2,"byteOffset":82944,"componentType":5123,"count":4233,"type":"SCALAR"},{"bufferView":2,"byteOffset":91412,"componentType":5123,"count":228,"type":"SCALAR"},{"bufferView":2,"byteOffset":91868,"componentType":5123,"count":234,"type":"SCALAR"},{"bufferView":2,"byteOffset":92336,"componentType":5123,"count":228,"type":"SCALAR"},{"bufferView":2,"byteOffset":92792,"componentType":5123,"count":222,"type":"SCALAR"},{"bufferView":2,"byteOffset":93236,"componentType":5123,"count":4233,"type":"SCALAR"},{"bufferView":2,"byteOffset":101704,"componentType":5123,"count":222,"type":"SCALAR"},{"bufferView":2,"byteOffset":102148,"componentType":5123,"count":234,"type":"SCALAR"},{"bufferView":2,"byteOffset":102616,"componentType":5123,"count":228,"type":"SCALAR"},{"bufferView":2,"byteOffset":103072,"componentType":5123,"count":210,"type":"SCALAR"},{"bufferView":2,"byteOffset":103492,"componentType":5123,"count":4233,"type":"SCALAR"},{"bufferView":2,"byteOffset":111960,"componentType":5123,"count":222,"type":"SCALAR"},{"bufferView":2,"byteOffset":112404,"componentType":5123,"count":234,"type":"SCALAR"},{"bufferView":2,"byteOffset":112872,"componentType":5123,"count":228,"type":"SCALAR"},{"bufferView":2,"byteOffset":113328,"componentType":5123,"count":210,"type":"SCALAR"},{"bufferView":2,"byteOffset":113748,"componentType":5123,"count":4233,"type":"SCALAR"},{"bufferView":2,"byteOffset":122216,"componentType":5123,"count":228,"type":"SCALAR"},{"bufferView":2,"byteOffset":122672,"componentType":5123,"count":240,"type":"SCALAR"},{"bufferView":2,"byteOffset":123152,"componentType":5123,"count":228,"type":"SCALAR"},{"bufferView":2,"byteOffset":123608,"componentType":5123,"count":414,"type":"SCALAR"}],"asset":{"generator":"Open CASCADE Technology 7.8 [dev.opencascade.org]","version":"2.0"},"bufferViews":[{"buffer":0,"byteLength":136584,"byteOffset":0,"byteStride":12,"target":34962},{"buffer":0,"byteLength":136584,"byteOffset":136584,"byteStride":12,"target":34962},{"buffer":0,"byteLength":124436,"byteOffset":273168,"target":34963}],"buffers":[{"byteLength":397604,"uri":"countersunk_screw_M3x10.bin"}],"materials":[{"name":"mat_0","pbrMetallicRoughness":{"baseColorFactor":[0.7529411911964417,0.7529411911964417,0.7529411911964417,1.0]},"doubleSided":true}],"meshes":[{"name":"CounterSunkScrew_M3-0_5,_10_00,_iso7046_","primitives":[{"attributes":{"NORMAL":27,"POSITION":0},"indices":54,"material":0,"mode":4},{"attributes":{"NORMAL":28,"POSITION":1},"indices":55,"material":0,"mode":4},{"attributes":{"NORMAL":29,"POSITION":2},"indices":56,"material":0,"mode":4},{"attributes":{"NORMAL":30,"POSITION":3},"indices":57,"material":0,"mode":4},{"attributes":{"NORMAL":31,"POSITION":4},"indices":58,"material":0,"mode":4},{"attributes":{"NORMAL":32,"POSITION":5},"indices":59,"material":0,"mode":4},{"attributes":{"NORMAL":33,"POSITION":6},"indices":60,"material":0,"mode":4},{"attributes":{"NORMAL":34,"POSITION":7},"indices":61,"material":0,"mode":4},{"attributes":{"NORMAL":35,"POSITION":8},"indices":62,"material":0,"mode":4},{"attributes":{"NORMAL":36,"POSITION":9},"indices":63,"material":0,"mode":4},{"attributes":{"NORMAL":37,"POSITION":10},"indices":64,"material":0,"mode":4},{"attributes":{"NORMAL":38,"POSITION":11},"indices":65,"material":0,"mode":4},{"attributes":{"NORMAL":39,"POSITION":12},"indices":66,"material":0,"mode":4},{"attributes":{"NORMAL":40,"POSITION":13},"indices":67,"material":0,"mode":4},{"attributes":{"NORMAL":41,"POSITION":14},"indices":68,"material":0,"mode":4},{"attributes":{"NORMAL":42,"POSITION":15},"indices":69,"material":0,"mode":4},{"attributes":{"NORMAL":43,"POSITION":16},"indices":70,"material":0,"mode":4},{"attributes":{"NORMAL":44,"POSITION":17},"indices":71,"material":0,"mode":4},{"attributes":{"NORMAL":45,"POSITION":18},"indices":72,"material":0,"mode":4},{"attributes":{"NORMAL":46,"POSITION":19},"indices":73,"material":0,"mode":4},{"attributes":{"NORMAL":47,"POSITION":20},"indices":74,"material":0,"mode":4},{"attributes":{"NORMAL":48,"POSITION":21},"indices":75,"material":0,"mode":4},{"attributes":{"NORMAL":49,"POSITION":22},"indices":76,"material":0,"mode":4},{"attributes":{"NORMAL":50,"POSITION":23},"indices":77,"material":0,"mode":4},{"attributes":{"NORMAL":51,"POSITION":24},"indices":78,"material":0,"mode":4},{"attributes":{"NORMAL":52,"POSITION":25},"indices":79,"material":0,"mode":4},{"attributes":{"NORMAL":53,"POSITION":26},"indices":80,"material":0,"mode":4}]}],"nodes":[{"rotation":[-0.7071067811865475,0.0,0.0,0.7071067811865475],"mesh":0,"name":"=>[0:1:1:2]"}],"scene":0,"scenes":[{"nodes":[0]}]}