{"accessors":[{"bufferView":0,"byteOffset":0,"componentType":5126,"count":16900,"max":[0.018000000000000002,0.003999999920977942,0.05499677428937747],"min":[-0.01799874369065587,-0.003999999920977943,0.022033370452904],"type":"VEC3"},{"bufferView":0,"byteOffset":202800,"componentType":5126,"count":302,"max":[0.01,0.009996977911221545,0.023],"min":[-0.01,-0.009996977911221545,0.015999999999999997],"type":"VEC3"},{"bufferView":0,"byteOffset":206424,"componentType":5126,"count":90,"max":[0.009643650760993,-0.002645751311065,0.023],"min":[-0.009643650760993,-0.009996977911221545,0.023],"type":"VEC3"},{"bufferView":0,"byteOffset":207504,"componentType":5126,"count":90,"max":[0.009643650760993,0.009996977911221545,0.023],"min":[-0.009643650760993,0.002645751311065,0.023],"type":"VEC3"},{"bufferView":0,"byteOffset":208584,"componentType":5126,"count":252,"max":[0.01,0.009996891820008163,0.016],"min":[-0.01,-0.009996891820008165,0.015999999999999997],"type":"VEC3"},{"bufferView":0,"byteOffset":211608,"componentType":5126,"count":254,"max":[0.003,0.0029990675460024488,0.016],"min":[-0.003,-0.0029990675460024496,0.0],"type":"VEC3"},{"bufferView":0,"byteOffset":214656,"componentType":5126,"count":126,"max":[0.003,0.0029990675460024488,0.0],"min":[-0.003,-0.0029990675460024496,0.0],"type":"VEC3"},{"bufferView":1,"byteOffset":0,"componentType":5126,"count":16900,"type":"VEC3"},{"bufferView":1,"byteOffset":202800,"componentType":5126,"count":302,"type":"VEC3"},{"bufferView":1,"byteOffset":206424,"componentType":5126,"count":90,"type":"VEC3"},{"bufferView":1,"byteOffset":207504,"componentType":5126,"count":90,"type":"VEC3"},{"bufferView":1,"byteOffset":208584,"componentType":5126,"count":252,"type":"VEC3"},{"bufferView":1,"byteOffset":211608,"componentType":5126,"count":254,"type":"VEC3"},{"bufferView":1,"byteOffset":214656,"componentType":5126,"count":126,"type":"VEC3"},{"bufferView":2,"byteOffset":0,"componentType":5123,"count":99594,"type":"SCALAR"},{"bufferView":2,"byteOffset":199188,"componentType":5123,"count":900,"type":"SCALAR"},{"bufferView":2,"byteOffset":200988,"componentType":5123,"count":264,"type":"SCALAR"},{"bufferView":2,"byteOffset":201516,"componentType":5123,"count":264,"type":"SCALAR"},{"bufferView":2,"byteOffset":202044,"componentType":5123,"count":756,"type":"SCALAR"},{"bufferView":2,"byteOffset":203556,"componentType":5123,"count":756,"type":"SCALAR"},{"bufferView":2,"byteOffset":205068,"componentType":5123,"count":372,"type":"SCALAR"}],"asset":{"generator":"Open CASCADE Technology 7.8 [dev.opencascade.org]","version":"2.0"},"bufferViews":[{"buffer":0,"byteLength":216168,"byteOffset":0,"byteStride":12,"target":34962},{"buffer":0,"byteLength":216168,"byteOffset":216168,"byteStride":12,"target":34962},{"buffer":0,"byteLength":205812,"byteOffset":432336,"target":34963}],"buffers":[{"byteLength":638148,"uri":"eyebolt_M6.bin"}],"meshes":[{"name":"COMPOUND","primitives":[{"attributes":{"NORMAL":7,"POSITION":0},"indices":14,"mode":4},{"attributes":{"NORMAL":8,"POSITION":1},"indices":15,"mode":4},{"attributes":{"NORMAL":9,"POSITION":2},"indices":16,"mode":4},{"attributes":{"NORMAL":10,"POSITION":3},"indices":17,"mode":4},{"attributes":{"NORMAL":11,"POSITION":4},"indices":18,"mode":4},{"attributes":{"NORMAL":12,"POSITION":5},"indices":19,"mode":4},{"attributes":{"NORMAL":13,"POSITION":6},"indices":20,"mode":4}]}],"nodes":[{"rotation":[-0.7071067811865475,0.0,0.0,0.7071067811865475],"mesh":0,"name":"=>[0:1:1:2]"}],"scene":0,"scenes":[{"nodes":[0]}]}