{"accessors":[{"bufferView":0,"byteOffset":0,"componentType":5126,"count":17128,"max":[0.0225,0.004999999840141638,0.06899596786172184],"min":[-0.02249842961331984,-0.004999999840141637,0.02779171306613],"type":"VEC3"},{"bufferView":0,"byteOffset":205536,"componentType":5126,"count":302,"max":[0.0125,0.012496222389026935,0.029],"min":[-0.0125,-0.012496222389026935,0.02],"type":"VEC3"},{"bufferView":0,"byteOffset":209160,"componentType":5126,"count":90,"max":[0.012054563451241,-0.0033071891388310004,0.029],"min":[-0.012054563451240001,-0.012496222389026935,0.029],"type":"VEC3"},{"bufferView":0,"byteOffset":210240,"componentType":5126,"count":90,"max":[0.012054563451241,0.012496222389026935,0.029],"min":[-0.012054563451240001,0.0033071891388310004,0.029],"type":"VEC3"},{"bufferView":0,"byteOffset":211320,"componentType":5126,"count":252,"max":[0.0125,0.012496114775010203,0.02],"min":[-0.0125,-0.012496114775010206,0.02],"type":"VEC3"},{"bufferView":0,"byteOffset":214344,"componentType":5126,"count":254,"max":[0.004,0.003998756728003265,0.02],"min":[-0.004,-0.003998756728003266,0.0],"type":"VEC3"},{"bufferView":0,"byteOffset":217392,"componentType":5126,"count":126,"max":[0.004,0.003998756728003265,0.0],"min":[-0.004,-0.003998756728003266,0.0],"type":"VEC3"},{"bufferView":1,"byteOffset":0,"componentType":5126,"count":17128,"type":"VEC3"},{"bufferView":1,"byteOffset":205536,"componentType":5126,"count":302,"type":"VEC3"},{"bufferView":1,"byteOffset":209160,"componentType":5126,"count":90,"type":"VEC3"},{"bufferView":1,"byteOffset":210240,"componentType":5126,"count":90,"type":"VEC3"},{"bufferView":1,"byteOffset":211320,"componentType":5126,"count":252,"type":"VEC3"},{"bufferView":1,"byteOffset":214344,"componentType":5126,"count":254,"type":"VEC3"},{"bufferView":1,"byteOffset":217392,"componentType":5126,"count":126,"type":"VEC3"},{"bufferView":2,"byteOffset":0,"componentType":5123,"count":100962,"type":"SCALAR"},{"bufferView":2,"byteOffset":201924,"componentType":5123,"count":900,"type":"SCALAR"},{"bufferView":2,"byteOffset":203724,"componentType":5123,"count":264,"type":"SCALAR"},{"bufferView":2,"byteOffset":204252,"componentType":5123,"count":264,"type":"SCALAR"},{"bufferView":2,"byteOffset":204780,"componentType":5123,"count":756,"type":"SCALAR"},{"bufferView":2,"byteOffset":206292,"componentType":5123,"count":756,"type":"SCALAR"},{"bufferView":2,"byteOffset":207804,"componentType":5123,"count":372,"type":"SCALAR"}],"asset":{"generator":"Open CASCADE Technology 7.8 [dev.opencascade.org]","version":"2.0"},"bufferViews":[{"buffer":0,"byteLength":218904,"byteOffset":0,"byteStride":12,"target":34962},{"buffer":0,"byteLength":218904,"byteOffset":218904,"byteStride":12,"target":34962},{"buffer":0,"byteLength":208548,"byteOffset":437808,"target":34963}],"buffers":[{"byteLength":646356,"uri":"eyebolt_M8.bin"}],"meshes":[{"name":"COMPOUND","primitives":[{"attributes":{"NORMAL":7,"POSITION":0},"indices":14,"mode":4},{"attributes":{"NORMAL":8,"POSITION":1},"indices":15,"mode":4},{"attributes":{"NORMAL":9,"POSITION":2},"indices":16,"mode":4},{"attributes":{"NORMAL":10,"POSITION":3},"indices":17,"mode":4},{"attributes":{"NORMAL":11,"POSITION":4},"indices":18,"mode":4},{"attributes":{"NORMAL":12,"POSITION":5},"indices":19,"mode":4},{"attributes":{"NORMAL":13,"POSITION":6},"indices":20,"mode":4}]}],"nodes":[{"rotation":[-0.7071067811865475,0.0,0.0,0.7071067811865475],"mesh":0,"name":"=>[0:1:1:2]"}],"scene":0,"scenes":[{"nodes":[0]}]}