{"accessors":[{"bufferView":0,"byteOffset":0,"componentType":5126,"count":17125,"max":[0.0315,0.006749998085007895,0.09924790837503943],"min":[-0.03149163377792886,-0.0067499980850078915,0.041899468090579],"type":"VEC3"},{"bufferView":0,"byteOffset":205500,"componentType":5126,"count":290,"max":[0.018000000000000002,0.017994481196956513,0.043000000000000003],"min":[-0.018000000000000002,-0.017994481196956513,0.03],"type":"VEC3"},{"bufferView":0,"byteOffset":208980,"componentType":5126,"count":102,"max":[0.017609035322811,-0.00373120288915,0.043000000000000003],"min":[-0.017609035322810003,-0.017994481196956513,0.043000000000000003],"type":"VEC3"},{"bufferView":0,"byteOffset":210204,"componentType":5126,"count":102,"max":[0.017609035322811,0.017994481196956513,0.043000000000000003],"min":[-0.017609035322810003,0.00373120288915,0.043000000000000003],"type":"VEC3"},{"bufferView":0,"byteOffset":211428,"componentType":5126,"count":252,"max":[0.018000000000000002,0.017994405276014692,0.03],"min":[-0.018000000000000002,-0.017994405276014695,0.03],"type":"VEC3"},{"bufferView":0,"byteOffset":214452,"componentType":5126,"count":254,"max":[0.006,0.0059981350920048975,0.03],"min":[-0.006,-0.005998135092004899,0.0],"type":"VEC3"},{"bufferView":0,"byteOffset":217500,"componentType":5126,"count":126,"max":[0.006,0.0059981350920048975,0.0],"min":[-0.006,-0.005998135092004899,0.0],"type":"VEC3"},{"bufferView":1,"byteOffset":0,"componentType":5126,"count":17125,"type":"VEC3"},{"bufferView":1,"byteOffset":205500,"componentType":5126,"count":290,"type":"VEC3"},{"bufferView":1,"byteOffset":208980,"componentType":5126,"count":102,"type":"VEC3"},{"bufferView":1,"byteOffset":210204,"componentType":5126,"count":102,"type":"VEC3"},{"bufferView":1,"byteOffset":211428,"componentType":5126,"count":252,"type":"VEC3"},{"bufferView":1,"byteOffset":214452,"componentType":5126,"count":254,"type":"VEC3"},{"bufferView":1,"byteOffset":217500,"componentType":5126,"count":126,"type":"VEC3"},{"bufferView":2,"byteOffset":0,"componentType":5123,"count":100932,"type":"SCALAR"},{"bufferView":2,"byteOffset":201864,"componentType":5123,"count":864,"type":"SCALAR"},{"bufferView":2,"byteOffset":203592,"componentType":5123,"count":300,"type":"SCALAR"},{"bufferView":2,"byteOffset":204192,"componentType":5123,"count":300,"type":"SCALAR"},{"bufferView":2,"byteOffset":204792,"componentType":5123,"count":756,"type":"SCALAR"},{"bufferView":2,"byteOffset":206304,"componentType":5123,"count":756,"type":"SCALAR"},{"bufferView":2,"byteOffset":207816,"componentType":5123,"count":372,"type":"SCALAR"}],"asset":{"generator":"Open CASCADE Technology 7.8 [dev.opencascade.org]","version":"2.0"},"bufferViews":[{"buffer":0,"byteLength":219012,"byteOffset":0,"byteStride":12,"target":34962},{"buffer":0,"byteLength":219012,"byteOffset":219012,"byteStride":12,"target":34962},{"buffer":0,"byteLength":208560,"byteOffset":438024,"target":34963}],"buffers":[{"byteLength":646584,"uri":"eyebolt_M12.bin"}],"meshes":[{"name":"COMPOUND","primitives":[{"attributes":{"NORMAL":7,"POSITION":0},"indices":14,"mode":4},{"attributes":{"NORMAL":8,"POSITION":1},"indices":15,"mode":4},{"attributes":{"NORMAL":9,"POSITION":2},"indices":16,"mode":4},{"attributes":{"NORMAL":10,"POSITION":3},"indices":17,"mode":4},{"attributes":{"NORMAL":11,"POSITION":4},"indices":18,"mode":4},{"attributes":{"NORMAL":12,"POSITION":5},"indices":19,"mode":4},{"attributes":{"NORMAL":13,"POSITION":6},"indices":20,"mode":4}]}],"nodes":[{"rotation":[-0.7071067811865475,0.0,0.0,0.7071067811865475],"mesh":0,"name":"=>[0:1:1:2]"}],"scene":0,"scenes":[{"nodes":[0]}]}