{"accessors":[{"bufferView":0,"byteOffset":0,"componentType":5126,"count":17011,"max":[0.027,0.005999999957437043,0.08399516143406621],"min":[-0.026998115535983813,-0.005999999957437055,0.034550055679356],"type":"VEC3"},{"bufferView":0,"byteOffset":204132,"componentType":5126,"count":302,"max":[0.015,0.014995466866832348,0.036000000000000004],"min":[-0.015,-0.014995466866832344,0.025],"type":"VEC3"},{"bufferView":0,"byteOffset":207756,"componentType":5126,"count":90,"max":[0.014465476141489,-0.003968626966597001,0.036000000000000004],"min":[-0.014465476141480001,-0.014995466866832344,0.036000000000000004],"type":"VEC3"},{"bufferView":0,"byteOffset":208836,"componentType":5126,"count":90,"max":[0.014465476141489,0.014995466866832348,0.036000000000000004],"min":[-0.014465476141480001,0.003968626966597001,0.036000000000000004],"type":"VEC3"},{"bufferView":0,"byteOffset":209916,"componentType":5126,"count":252,"max":[0.015,0.014995337730012244,0.025],"min":[-0.015,-0.014995337730012248,0.025],"type":"VEC3"},{"bufferView":0,"byteOffset":212940,"componentType":5126,"count":254,"max":[0.005,0.0049984459100040814,0.025],"min":[-0.005,-0.004998445910004082,0.0],"type":"VEC3"},{"bufferView":0,"byteOffset":215988,"componentType":5126,"count":126,"max":[0.005,0.0049984459100040814,0.0],"min":[-0.005,-0.004998445910004082,0.0],"type":"VEC3"},{"bufferView":1,"byteOffset":0,"componentType":5126,"count":17011,"type":"VEC3"},{"bufferView":1,"byteOffset":204132,"componentType":5126,"count":302,"type":"VEC3"},{"bufferView":1,"byteOffset":207756,"componentType":5126,"count":90,"type":"VEC3"},{"bufferView":1,"byteOffset":208836,"componentType":5126,"count":90,"type":"VEC3"},{"bufferView":1,"byteOffset":209916,"componentType":5126,"count":252,"type":"VEC3"},{"bufferView":1,"byteOffset":212940,"componentType":5126,"count":254,"type":"VEC3"},{"bufferView":1,"byteOffset":215988,"componentType":5126,"count":126,"type":"VEC3"},{"bufferView":2,"byteOffset":0,"componentType":5123,"count":100260,"type":"SCALAR"},{"bufferView":2,"byteOffset":200520,"componentType":5123,"count":900,"type":"SCALAR"},{"bufferView":2,"byteOffset":202320,"componentType":5123,"count":264,"type":"SCALAR"},{"bufferView":2,"byteOffset":202848,"componentType":5123,"count":264,"type":"SCALAR"},{"bufferView":2,"byteOffset":203376,"componentType":5123,"count":756,"type":"SCALAR"},{"bufferView":2,"byteOffset":204888,"componentType":5123,"count":756,"type":"SCALAR"},{"bufferView":2,"byteOffset":206400,"componentType":5123,"count":372,"type":"SCALAR"}],"asset":{"generator":"Open CASCADE Technology 7.8 [dev.opencascade.org]","version":"2.0"},"bufferViews":[{"buffer":0,"byteLength":217500,"byteOffset":0,"byteStride":12,"target":34962},{"buffer":0,"byteLength":217500,"byteOffset":217500,"byteStride":12,"target":34962},{"buffer":0,"byteLength":207144,"byteOffset":435000,"target":34963}],"buffers":[{"byteLength":642144,"uri":"eyebolt_M10.bin"}],"meshes":[{"name":"COMPOUND","primitives":[{"attributes":{"NORMAL":7,"POSITION":0},"indices":14,"mode":4},{"attributes":{"NORMAL":8,"POSITION":1},"indices":15,"mode":4},{"attributes":{"NORMAL":9,"POSITION":2},"indices":16,"mode":4},{"attributes":{"NORMAL":10,"POSITION":3},"indices":17,"mode":4},{"attributes":{"NORMAL":11,"POSITION":4},"indices":18,"mode":4},{"attributes":{"NORMAL":12,"POSITION":5},"indices":19,"mode":4},{"attributes":{"NORMAL":13,"POSITION":6},"indices":20,"mode":4}]}],"nodes":[{"rotation":[-0.7071067811865475,0.0,0.0,0.7071067811865475],"mesh":0,"name":"=>[0:1:1:2]"}],"scene":0,"scenes":[{"nodes":[0]}]}