{"accessors":[{"bufferView":0,"byteOffset":0,"componentType":5126,"count":4,"max":[-0.013000000000000001,0.01,0.004],"min":[-0.013000000000000001,-0.01,0.0],"type":"VEC3"},{"bufferView":0,"byteOffset":48,"componentType":5126,"count":4,"max":[0.013000000000000001,-0.01,0.004],"min":[-0.013000000000000001,-0.01,0.0],"type":"VEC3"},{"bufferView":0,"byteOffset":96,"componentType":5126,"count":444,"max":[0.013000000000000001,0.01,0.004],"min":[-0.013000000000000001,-0.01,0.004],"type":"VEC3"},{"bufferView":0,"byteOffset":5424,"componentType":5126,"count":4,"max":[0.013000000000000001,0.01,0.004],"min":[-0.013000000000000001,0.01,0.0],"type":"VEC3"},{"bufferView":0,"byteOffset":5472,"componentType":5126,"count":508,"max":[0.013000000000000001,0.01,0.0],"min":[-0.013000000000000001,-0.01,0.0],"type":"VEC3"},{"bufferView":0,"byteOffset":11568,"componentType":5126,"count":4,"max":[0.013000000000000001,0.01,0.004],"min":[0.013000000000000001,-0.01,0.0],"type":"VEC3"},{"bufferView":0,"byteOffset":11616,"componentType":5126,"count":130,"max":[-0.0046,0.008,0.018000000000000002],"min":[-0.0046,-0.008,0.004],"type":"VEC3"},{"bufferView":0,"byteOffset":13176,"componentType":5126,"count":4,"max":[-0.0046,0.008,0.018000000000000002],"min":[-0.0076,0.008,0.004],"type":"VEC3"},{"bufferView":0,"byteOffset":13224,"componentType":5126,"count":4,"max":[-0.0046,-0.008,0.018000000000000002],"min":[-0.0076,-0.008,0.004],"type":"VEC3"},{"bufferView":0,"byteOffset":13272,"componentType":5126,"count":134,"max":[-0.0076,0.008,0.018000000000000002],"min":[-0.0076,-0.008,0.004],"type":"VEC3"},{"bufferView":0,"byteOffset":14880,"componentType":5126,"count":256,"max":[-0.0074,0.007599650865425786,0.004],"min":[-0.0106,0.004400349134574214,0.0],"type":"VEC3"},{"bufferView":0,"byteOffset":17952,"componentType":5126,"count":256,"max":[-0.0074,-0.004400349134574215,0.004],"min":[-0.0106,-0.007599650865425787,0.0],"type":"VEC3"},{"bufferView":0,"byteOffset":21024,"componentType":5126,"count":130,"max":[-0.0015,0.008,0.018000000000000002],"min":[-0.0015,-0.008,0.004],"type":"VEC3"},{"bufferView":0,"byteOffset":22584,"componentType":5126,"count":4,"max":[0.0015,0.008,0.018000000000000002],"min":[-0.0015,0.008,0.004],"type":"VEC3"},{"bufferView":0,"byteOffset":22632,"componentType":5126,"count":4,"max":[0.0015,-0.008,0.018000000000000002],"min":[-0.0015,-0.008,0.004],"type":"VEC3"},{"bufferView":0,"byteOffset":22680,"componentType":5126,"count":130,"max":[0.0015,0.008,0.018000000000000002],"min":[0.0015,-0.008,0.004],"type":"VEC3"},{"bufferView":0,"byteOffset":24240,"componentType":5126,"count":130,"max":[0.0046,0.008,0.018000000000000002],"min":[0.0046,-0.008,0.004],"type":"VEC3"},{"bufferView":0,"byteOffset":25800,"componentType":5126,"count":4,"max":[0.0076,-0.008,0.018000000000000002],"min":[0.0046,-0.008,0.004],"type":"VEC3"},{"bufferView":0,"byteOffset":25848,"componentType":5126,"count":134,"max":[0.0076,0.008,0.018000000000000002],"min":[0.0076,-0.008,0.004],"type":"VEC3"},{"bufferView":0,"byteOffset":27456,"componentType":5126,"count":255,"max":[0.0106,-0.004400349134574215,0.004],"min":[0.0074,-0.007599650865425787,0.0],"type":"VEC3"},{"bufferView":0,"byteOffset":30516,"componentType":5126,"count":255,"max":[0.0106,0.007599650865425786,0.004],"min":[0.0074,0.004400349134574214,0.0],"type":"VEC3"},{"bufferView":0,"byteOffset":33576,"componentType":5126,"count":4,"max":[0.0076,0.008,0.018000000000000002],"min":[0.0046,0.008,0.004],"type":"VEC3"},{"bufferView":0,"byteOffset":33624,"componentType":5126,"count":4,"max":[-0.0046,0.008,0.018000000000000002],"min":[-0.0076,-0.008,0.018000000000000002],"type":"VEC3"},{"bufferView":0,"byteOffset":33672,"componentType":5126,"count":254,"max":[-0.0046,0.0024992229550020407,0.0155],"min":[-0.0076,-0.002499222955002041,0.0105],"type":"VEC3"},{"bufferView":0,"byteOffset":36720,"componentType":5126,"count":23,"max":[-0.0074,-0.005225403330759001,0.004],"min":[-0.0076,-0.006774596669241001,0.004],"type":"VEC3"},{"bufferView":0,"byteOffset":36996,"componentType":5126,"count":23,"max":[-0.0074,0.006774596669241,0.004],"min":[-0.0076,0.005225403330759,0.004],"type":"VEC3"},{"bufferView":0,"byteOffset":37272,"componentType":5126,"count":4,"max":[0.0015,0.008,0.018000000000000002],"min":[-0.0015,-0.008,0.018000000000000002],"type":"VEC3"},{"bufferView":0,"byteOffset":37320,"componentType":5126,"count":254,"max":[0.0015,0.0024992229550020407,0.0155],"min":[-0.0015,-0.002499222955002041,0.0105],"type":"VEC3"},{"bufferView":0,"byteOffset":40368,"componentType":5126,"count":4,"max":[0.0076,0.008,0.018000000000000002],"min":[0.0046,-0.008,0.018000000000000002],"type":"VEC3"},{"bufferView":0,"byteOffset":40416,"componentType":5126,"count":254,"max":[0.0076,0.0024992229550020407,0.0155],"min":[0.0046,-0.002499222955002041,0.0105],"type":"VEC3"},{"bufferView":0,"byteOffset":43464,"componentType":5126,"count":22,"max":[0.0076,-0.005225403330759001,0.004],"min":[0.007400463268790271,-0.006774596669241001,0.004],"type":"VEC3"},{"bufferView":0,"byteOffset":43728,"componentType":5126,"count":22,"max":[0.0076,0.006774596669241,0.004],"min":[0.007400463268790271,0.005225403330759,0.004],"type":"VEC3"},{"bufferView":1,"byteOffset":0,"componentType":5126,"count":4,"type":"VEC3"},{"bufferView":1,"byteOffset":48,"componentType":5126,"count":4,"type":"VEC3"},{"bufferView":1,"byteOffset":96,"componentType":5126,"count":444,"type":"VEC3"},{"bufferView":1,"byteOffset":5424,"componentType":5126,"count":4,"type":"VEC3"},{"bufferView":1,"byteOffset":5472,"componentType":5126,"count":508,"type":"VEC3"},{"bufferView":1,"byteOffset":11568,"componentType":5126,"count":4,"type":"VEC3"},{"bufferView":1,"byteOffset":11616,"componentType":5126,"count":130,"type":"VEC3"},{"bufferView":1,"byteOffset":13176,"componentType":5126,"count":4,"type":"VEC3"},{"bufferView":1,"byteOffset":13224,"componentType":5126,"count":4,"type":"VEC3"},{"bufferView":1,"byteOffset":13272,"componentType":5126,"count":134,"type":"VEC3"},{"bufferView":1,"byteOffset":14880,"componentType":5126,"count":256,"type":"VEC3"},{"bufferView":1,"byteOffset":17952,"componentType":5126,"count":256,"type":"VEC3"},{"bufferView":1,"byteOffset":21024,"componentType":5126,"count":130,"type":"VEC3"},{"bufferView":1,"byteOffset":22584,"componentType":5126,"count":4,"type":"VEC3"},{"bufferView":1,"byteOffset":22632,"componentType":5126,"count":4,"type":"VEC3"},{"bufferView":1,"byteOffset":22680,"componentType":5126,"count":130,"type":"VEC3"},{"bufferView":1,"byteOffset":24240,"componentType":5126,"count":130,"type":"VEC3"},{"bufferView":1,"byteOffset":25800,"componentType":5126,"count":4,"type":"VEC3"},{"bufferView":1,"byteOffset":25848,"componentType":5126,"count":134,"type":"VEC3"},{"bufferView":1,"byteOffset":27456,"componentType":5126,"count":255,"type":"VEC3"},{"bufferView":1,"byteOffset":30516,"componentType":5126,"count":255,"type":"VEC3"},{"bufferView":1,"byteOffset":33576,"componentType":5126,"count":4,"type":"VEC3"},{"bufferView":1,"byteOffset":33624,"componentType":5126,"count":4,"type":"VEC3"},{"bufferView":1,"byteOffset":33672,"componentType":5126,"count":254,"type":"VEC3"},{"bufferView":1,"byteOffset":36720,"componentType":5126,"count":23,"type":"VEC3"},{"bufferView":1,"byteOffset":36996,"componentType":5126,"count":23,"type":"VEC3"},{"bufferView":1,"byteOffset":37272,"componentType":5126,"count":4,"type":"VEC3"},{"bufferView":1,"byteOffset":37320,"componentType":5126,"count":254,"type":"VEC3"},{"bufferView":1,"byteOffset":40368,"componentType":5126,"count":4,"type":"VEC3"},{"bufferView":1,"byteOffset":40416,"componentType":5126,"count":254,"type":"VEC3"},{"bufferView":1,"byteOffset":43464,"componentType":5126,"count":22,"type":"VEC3"},{"bufferView":1,"byteOffset":43728,"componentType":5126,"count":22,"type":"VEC3"},{"bufferView":2,"byteOffset":0,"componentType":5123,"count":6,"type":"SCALAR"},{"bufferView":2,"byteOffset":12,"componentType":5123,"count":6,"type":"SCALAR"},{"bufferView":2,"byteOffset":24,"componentType":5123,"count":1344,"type":"SCALAR"},{"bufferView":2,"byteOffset":2712,"componentType":5123,"count":6,"type":"SCALAR"},{"bufferView":2,"byteOffset":2724,"componentType":5123,"count":1542,"type":"SCALAR"},{"bufferView":2,"byteOffset":5808,"componentType":5123,"count":6,"type":"SCALAR"},{"bufferView":2,"byteOffset":5820,"componentType":5123,"count":390,"type":"SCALAR"},{"bufferView":2,"byteOffset":6600,"componentType":5123,"count":6,"type":"SCALAR"},{"bufferView":2,"byteOffset":6612,"componentType":5123,"count":6,"type":"SCALAR"},{"bufferView":2,"byteOffset":6624,"componentType":5123,"count":402,"type":"SCALAR"},{"bufferView":2,"byteOffset":7428,"componentType":5123,"count":762,"type":"SCALAR"},{"bufferView":2,"byteOffset":8952,"componentType":5123,"count":762,"type":"SCALAR"},{"bufferView":2,"byteOffset":10476,"componentType":5123,"count":390,"type":"SCALAR"},{"bufferView":2,"byteOffset":11256,"componentType":5123,"count":6,"type":"SCALAR"},{"bufferView":2,"byteOffset":11268,"componentType":5123,"count":6,"type":"SCALAR"},{"bufferView":2,"byteOffset":11280,"componentType":5123,"count":390,"type":"SCALAR"},{"bufferView":2,"byteOffset":12060,"componentType":5123,"count":390,"type":"SCALAR"},{"bufferView":2,"byteOffset":12840,"componentType":5123,"count":6,"type":"SCALAR"},{"bufferView":2,"byteOffset":12852,"componentType":5123,"count":402,"type":"SCALAR"},{"bufferView":2,"byteOffset":13656,"componentType":5123,"count":759,"type":"SCALAR"},{"bufferView":2,"byteOffset":15176,"componentType":5123,"count":759,"type":"SCALAR"},{"bufferView":2,"byteOffset":16696,"componentType":5123,"count":6,"type":"SCALAR"},{"bufferView":2,"byteOffset":16708,"componentType":5123,"count":6,"type":"SCALAR"},{"bufferView":2,"byteOffset":16720,"componentType":5123,"count":756,"type":"SCALAR"},{"bufferView":2,"byteOffset":18232,"componentType":5123,"count":63,"type":"SCALAR"},{"bufferView":2,"byteOffset":18360,"componentType":5123,"count":63,"type":"SCALAR"},{"bufferView":2,"byteOffset":18488,"componentType":5123,"count":6,"type":"SCALAR"},{"bufferView":2,"byteOffset":18500,"componentType":5123,"count":756,"type":"SCALAR"},{"bufferView":2,"byteOffset":20012,"componentType":5123,"count":6,"type":"SCALAR"},{"bufferView":2,"byteOffset":20024,"componentType":5123,"count":756,"type":"SCALAR"},{"bufferView":2,"byteOffset":21536,"componentType":5123,"count":60,"type":"SCALAR"},{"bufferView":2,"byteOffset":21656,"componentType":5123,"count":60,"type":"SCALAR"}],"asset":{"generator":"Open CASCADE Technology 7.8 [dev.opencascade.org]","version":"2.0"},"bufferViews":[{"buffer":0,"byteLength":43992,"byteOffset":0,"byteStride":12,"target":34962},{"buffer":0,"byteLength":43992,"byteOffset":43992,"byteStride":12,"target":34962},{"buffer":0,"byteLength":21776,"byteOffset":87984,"target":34963}],"buffers":[{"byteLength":109760,"uri":"gopro_mount_gopro_mount.bin"}],"meshes":[{"name":"COMPOUND","primitives":[{"attributes":{"NORMAL":32,"POSITION":0},"indices":64,"mode":4},{"attributes":{"NORMAL":33,"POSITION":1},"indices":65,"mode":4},{"attributes":{"NORMAL":34,"POSITION":2},"indices":66,"mode":4},{"attributes":{"NORMAL":35,"POSITION":3},"indices":67,"mode":4},{"attributes":{"NORMAL":36,"POSITION":4},"indices":68,"mode":4},{"attributes":{"NORMAL":37,"POSITION":5},"indices":69,"mode":4},{"attributes":{"NORMAL":38,"POSITION":6},"indices":70,"mode":4},{"attributes":{"NORMAL":39,"POSITION":7},"indices":71,"mode":4},{"attributes":{"NORMAL":40,"POSITION":8},"indices":72,"mode":4},{"attributes":{"NORMAL":41,"POSITION":9},"indices":73,"mode":4},{"attributes":{"NORMAL":42,"POSITION":10},"indices":74,"mode":4},{"attributes":{"NORMAL":43,"POSITION":11},"indices":75,"mode":4},{"attributes":{"NORMAL":44,"POSITION":12},"indices":76,"mode":4},{"attributes":{"NORMAL":45,"POSITION":13},"indices":77,"mode":4},{"attributes":{"NORMAL":46,"POSITION":14},"indices":78,"mode":4},{"attributes":{"NORMAL":47,"POSITION":15},"indices":79,"mode":4},{"attributes":{"NORMAL":48,"POSITION":16},"indices":80,"mode":4},{"attributes":{"NORMAL":49,"POSITION":17},"indices":81,"mode":4},{"attributes":{"NORMAL":50,"POSITION":18},"indices":82,"mode":4},{"attributes":{"NORMAL":51,"POSITION":19},"indices":83,"mode":4},{"attributes":{"NORMAL":52,"POSITION":20},"indices":84,"mode":4},{"attributes":{"NORMAL":53,"POSITION":21},"indices":85,"mode":4},{"attributes":{"NORMAL":54,"POSITION":22},"indices":86,"mode":4},{"attributes":{"NORMAL":55,"POSITION":23},"indices":87,"mode":4},{"attributes":{"NORMAL":56,"POSITION":24},"indices":88,"mode":4},{"attributes":{"NORMAL":57,"POSITION":25},"indices":89,"mode":4},{"attributes":{"NORMAL":58,"POSITION":26},"indices":90,"mode":4},{"attributes":{"NORMAL":59,"POSITION":27},"indices":91,"mode":4},{"attributes":{"NORMAL":60,"POSITION":28},"indices":92,"mode":4},{"attributes":{"NORMAL":61,"POSITION":29},"indices":93,"mode":4},{"attributes":{"NORMAL":62,"POSITION":30},"indices":94,"mode":4},{"attributes":{"NORMAL":63,"POSITION":31},"indices":95,"mode":4}]}],"nodes":[{"rotation":[-0.7071067811865475,0.0,0.0,0.7071067811865475],"mesh":0,"name":"=>[0:1:1:2]"}],"scene":0,"scenes":[{"nodes":[0]}]}