{"accessors":[{"bufferView":0,"byteOffset":0,"componentType":5126,"count":252,"max":[0.0039987567279857195,0.004,0.0],"min":[-0.003998756727985709,-0.004,0.0],"type":"VEC3"},{"bufferView":0,"byteOffset":3024,"componentType":5126,"count":53,"max":[0.004617802117401326,0.002000000012807,0.00016580753731],"min":[0.003464101607744,-0.002000000012807,0.0],"type":"VEC3"},{"bufferView":0,"byteOffset":3660,"componentType":5126,"count":52,"max":[0.003464101607744,0.004,0.00016580753731],"min":[2.6946257045400003e-16,0.002000000012807,0.0],"type":"VEC3"},{"bufferView":0,"byteOffset":4284,"componentType":5126,"count":52,"max":[0.003464101607744,-0.002000000012807,0.00016580753731],"min":[3.7222345302450004e-16,-0.004,0.0],"type":"VEC3"},{"bufferView":0,"byteOffset":4908,"componentType":5126,"count":52,"max":[2.6946257045400003e-16,0.004,0.00016580753731],"min":[-0.003464101607744,0.002000000012807,0.0],"type":"VEC3"},{"bufferView":0,"byteOffset":5532,"componentType":5126,"count":52,"max":[3.7222345302450004e-16,-0.002000000012807,0.00016580753731],"min":[-0.003464101607744,-0.004,0.0],"type":"VEC3"},{"bufferView":0,"byteOffset":6156,"componentType":5126,"count":53,"max":[-0.003464101607744,0.002000000012807,0.00016580753731],"min":[-0.0046178021174013255,-0.002000000012807,0.0],"type":"VEC3"},{"bufferView":0,"byteOffset":6792,"componentType":5126,"count":254,"max":[0.0025,0.0024992229550020407,0.0047],"min":[-0.0025,-0.002499222955002041,0.0],"type":"VEC3"},{"bufferView":0,"byteOffset":9840,"componentType":5126,"count":8,"max":[0.004617802117401326,0.0000017326137952100001,0.00453419246269],"min":[0.004617801828476,-0.000001732613795211,0.00016580753731],"type":"VEC3"},{"bufferView":0,"byteOffset":9936,"componentType":5126,"count":52,"max":[0.004617801828476,0.003998267386205,0.0047],"min":[0.0023104014018,0.0000017326137952100001,0.0],"type":"VEC3"},{"bufferView":0,"byteOffset":10560,"componentType":5126,"count":52,"max":[0.004617801828476,-0.000001732613795211,0.0047],"min":[0.0023104014018,-0.003998267386205,0.0],"type":"VEC3"},{"bufferView":0,"byteOffset":11184,"componentType":5126,"count":8,"max":[0.0023104014018,0.004,0.004534192462690001],"min":[0.0023074004266760003,0.003998267386205,0.00016580753731],"type":"VEC3"},{"bufferView":0,"byteOffset":11280,"componentType":5126,"count":52,"max":[0.0023074004266760003,0.004,0.004700000000000001],"min":[-0.0023074004266760003,0.004,0.0],"type":"VEC3"},{"bufferView":0,"byteOffset":11904,"componentType":5126,"count":52,"max":[0.0023074004266760003,-0.004,0.0047],"min":[-0.0023074004266760003,-0.004,0.0],"type":"VEC3"},{"bufferView":0,"byteOffset":12528,"componentType":5126,"count":8,"max":[0.0023104014018,-0.003998267386205,0.00453419246269],"min":[0.0023074004266760003,-0.004,0.00016580753731],"type":"VEC3"},{"bufferView":0,"byteOffset":12624,"componentType":5126,"count":8,"max":[-0.0023074004266760003,0.004,0.004534192462690001],"min":[-0.0023104014018,0.003998267386205,0.00016580753731],"type":"VEC3"},{"bufferView":0,"byteOffset":12720,"componentType":5126,"count":52,"max":[-0.0023104014018,0.003998267386205,0.0047],"min":[-0.004617801828476,0.000001732613795212,0.0],"type":"VEC3"},{"bufferView":0,"byteOffset":13344,"componentType":5126,"count":52,"max":[-0.0023104014018,-0.000001732613795211,0.0047],"min":[-0.004617801828476,-0.003998267386205,0.0],"type":"VEC3"},{"bufferView":0,"byteOffset":13968,"componentType":5126,"count":8,"max":[-0.0023074004266760003,-0.003998267386205,0.00453419246269],"min":[-0.0023104014018,-0.004,0.00016580753731],"type":"VEC3"},{"bufferView":0,"byteOffset":14064,"componentType":5126,"count":8,"max":[-0.004617801828476,0.000001732613795212,0.00453419246269],"min":[-0.0046178021174013255,-0.000001732613795211,0.00016580753731],"type":"VEC3"},{"bufferView":0,"byteOffset":14160,"componentType":5126,"count":252,"max":[0.0039987567279857195,0.004,0.004700000000000001],"min":[-0.003998756727985709,-0.004,0.0047],"type":"VEC3"},{"bufferView":0,"byteOffset":17184,"componentType":5126,"count":53,"max":[0.004617802117401326,0.002000000012807,0.0047],"min":[0.003464101607744,-0.002000000012807,0.00453419246269],"type":"VEC3"},{"bufferView":0,"byteOffset":17820,"componentType":5126,"count":52,"max":[0.003464101607744,0.004,0.004700000000000001],"min":[2.6946257045400003e-16,0.002000000012807,0.00453419246269],"type":"VEC3"},{"bufferView":0,"byteOffset":18444,"componentType":5126,"count":52,"max":[0.003464101607744,-0.002000000012807,0.0047],"min":[3.7222345302450004e-16,-0.004,0.00453419246269],"type":"VEC3"},{"bufferView":0,"byteOffset":19068,"componentType":5126,"count":52,"max":[2.6946257045400003e-16,0.004,0.004700000000000001],"min":[-0.003464101607744,0.002000000012807,0.00453419246269],"type":"VEC3"},{"bufferView":0,"byteOffset":19692,"componentType":5126,"count":52,"max":[3.7222345302450004e-16,-0.002000000012807,0.0047],"min":[-0.003464101607744,-0.004,0.00453419246269],"type":"VEC3"},{"bufferView":0,"byteOffset":20316,"componentType":5126,"count":53,"max":[-0.003464101607744,0.002000000012807,0.0047],"min":[-0.0046178021174013255,-0.002000000012807,0.00453419246269],"type":"VEC3"},{"bufferView":1,"byteOffset":0,"componentType":5126,"count":252,"type":"VEC3"},{"bufferView":1,"byteOffset":3024,"componentType":5126,"count":53,"type":"VEC3"},{"bufferView":1,"byteOffset":3660,"componentType":5126,"count":52,"type":"VEC3"},{"bufferView":1,"byteOffset":4284,"componentType":5126,"count":52,"type":"VEC3"},{"bufferView":1,"byteOffset":4908,"componentType":5126,"count":52,"type":"VEC3"},{"bufferView":1,"byteOffset":5532,"componentType":5126,"count":52,"type":"VEC3"},{"bufferView":1,"byteOffset":6156,"componentType":5126,"count":53,"type":"VEC3"},{"bufferView":1,"byteOffset":6792,"componentType":5126,"count":254,"type":"VEC3"},{"bufferView":1,"byteOffset":9840,"componentType":5126,"count":8,"type":"VEC3"},{"bufferView":1,"byteOffset":9936,"componentType":5126,"count":52,"type":"VEC3"},{"bufferView":1,"byteOffset":10560,"componentType":5126,"count":52,"type":"VEC3"},{"bufferView":1,"byteOffset":11184,"componentType":5126,"count":8,"type":"VEC3"},{"bufferView":1,"byteOffset":11280,"componentType":5126,"count":52,"type":"VEC3"},{"bufferView":1,"byteOffset":11904,"componentType":5126,"count":52,"type":"VEC3"},{"bufferView":1,"byteOffset":12528,"componentType":5126,"count":8,"type":"VEC3"},{"bufferView":1,"byteOffset":12624,"componentType":5126,"count":8,"type":"VEC3"},{"bufferView":1,"byteOffset":12720,"componentType":5126,"count":52,"type":"VEC3"},{"bufferView":1,"byteOffset":13344,"componentType":5126,"count":52,"type":"VEC3"},{"bufferView":1,"byteOffset":13968,"componentType":5126,"count":8,"type":"VEC3"},{"bufferView":1,"byteOffset":14064,"componentType":5126,"count":8,"type":"VEC3"},{"bufferView":1,"byteOffset":14160,"componentType":5126,"count":252,"type":"VEC3"},{"bufferView":1,"byteOffset":17184,"componentType":5126,"count":53,"type":"VEC3"},{"bufferView":1,"byteOffset":17820,"componentType":5126,"count":52,"type":"VEC3"},{"bufferView":1,"byteOffset":18444,"componentType":5126,"count":52,"type":"VEC3"},{"bufferView":1,"byteOffset":19068,"componentType":5126,"count":52,"type":"VEC3"},{"bufferView":1,"byteOffset":19692,"componentType":5126,"count":52,"type":"VEC3"},{"bufferView":1,"byteOffset":20316,"componentType":5126,"count":53,"type":"VEC3"},{"bufferView":2,"byteOffset":0,"componentType":5123,"count":756,"type":"SCALAR"},{"bufferView":2,"byteOffset":1512,"componentType":5123,"count":165,"type":"SCALAR"},{"bufferView":2,"byteOffset":1844,"componentType":5123,"count":159,"type":"SCALAR"},{"bufferView":2,"byteOffset":2164,"componentType":5123,"count":159,"type":"SCALAR"},{"bufferView":2,"byteOffset":2484,"componentType":5123,"count":159,"type":"SCALAR"},{"bufferView":2,"byteOffset":2804,"componentType":5123,"count":159,"type":"SCALAR"},{"bufferView":2,"byteOffset":3124,"componentType":5123,"count":165,"type":"SCALAR"},{"bufferView":2,"byteOffset":3456,"componentType":5123,"count":756,"type":"SCALAR"},{"bufferView":2,"byteOffset":4968,"componentType":5123,"count":18,"type":"SCALAR"},{"bufferView":2,"byteOffset":5004,"componentType":5123,"count":150,"type":"SCALAR"},{"bufferView":2,"byteOffset":5304,"componentType":5123,"count":150,"type":"SCALAR"},{"bufferView":2,"byteOffset":5604,"componentType":5123,"count":18,"type":"SCALAR"},{"bufferView":2,"byteOffset":5640,"componentType":5123,"count":150,"type":"SCALAR"},{"bufferView":2,"byteOffset":5940,"componentType":5123,"count":150,"type":"SCALAR"},{"bufferView":2,"byteOffset":6240,"componentType":5123,"count":18,"type":"SCALAR"},{"bufferView":2,"byteOffset":6276,"componentType":5123,"count":18,"type":"SCALAR"},{"bufferView":2,"byteOffset":6312,"componentType":5123,"count":150,"type":"SCALAR"},{"bufferView":2,"byteOffset":6612,"componentType":5123,"count":150,"type":"SCALAR"},{"bufferView":2,"byteOffset":6912,"componentType":5123,"count":18,"type":"SCALAR"},{"bufferView":2,"byteOffset":6948,"componentType":5123,"count":18,"type":"SCALAR"},{"bufferView":2,"byteOffset":6984,"componentType":5123,"count":756,"type":"SCALAR"},{"bufferView":2,"byteOffset":8496,"componentType":5123,"count":165,"type":"SCALAR"},{"bufferView":2,"byteOffset":8828,"componentType":5123,"count":159,"type":"SCALAR"},{"bufferView":2,"byteOffset":9148,"componentType":5123,"count":159,"type":"SCALAR"},{"bufferView":2,"byteOffset":9468,"componentType":5123,"count":159,"type":"SCALAR"},{"bufferView":2,"byteOffset":9788,"componentType":5123,"count":159,"type":"SCALAR"},{"bufferView":2,"byteOffset":10108,"componentType":5123,"count":165,"type":"SCALAR"}],"asset":{"generator":"Open CASCADE Technology 7.8 [dev.opencascade.org]","version":"2.0"},"bufferViews":[{"buffer":0,"byteLength":20952,"byteOffset":0,"byteStride":12,"target":34962},{"buffer":0,"byteLength":20952,"byteOffset":20952,"byteStride":12,"target":34962},{"buffer":0,"byteLength":10440,"byteOffset":41904,"target":34963}],"buffers":[{"byteLength":52344,"uri":"hex_nut_M5.bin"}],"materials":[{"name":"mat_0","pbrMetallicRoughness":{"baseColorFactor":[0.7529411911964417,0.7529411911964417,0.7529411911964417,1.0]},"doubleSided":true}],"meshes":[{"name":"HexNut_M5-0_8,_iso4032_","primitives":[{"attributes":{"NORMAL":27,"POSITION":0},"indices":54,"material":0,"mode":4},{"attributes":{"NORMAL":28,"POSITION":1},"indices":55,"material":0,"mode":4},{"attributes":{"NORMAL":29,"POSITION":2},"indices":56,"material":0,"mode":4},{"attributes":{"NORMAL":30,"POSITION":3},"indices":57,"material":0,"mode":4},{"attributes":{"NORMAL":31,"POSITION":4},"indices":58,"material":0,"mode":4},{"attributes":{"NORMAL":32,"POSITION":5},"indices":59,"material":0,"mode":4},{"attributes":{"NORMAL":33,"POSITION":6},"indices":60,"material":0,"mode":4},{"attributes":{"NORMAL":34,"POSITION":7},"indices":61,"material":0,"mode":4},{"attributes":{"NORMAL":35,"POSITION":8},"indices":62,"material":0,"mode":4},{"attributes":{"NORMAL":36,"POSITION":9},"indices":63,"material":0,"mode":4},{"attributes":{"NORMAL":37,"POSITION":10},"indices":64,"material":0,"mode":4},{"attributes":{"NORMAL":38,"POSITION":11},"indices":65,"material":0,"mode":4},{"attributes":{"NORMAL":39,"POSITION":12},"indices":66,"material":0,"mode":4},{"attributes":{"NORMAL":40,"POSITION":13},"indices":67,"material":0,"mode":4},{"attributes":{"NORMAL":41,"POSITION":14},"indices":68,"material":0,"mode":4},{"attributes":{"NORMAL":42,"POSITION":15},"indices":69,"material":0,"mode":4},{"attributes":{"NORMAL":43,"POSITION":16},"indices":70,"material":0,"mode":4},{"attributes":{"NORMAL":44,"POSITION":17},"indices":71,"material":0,"mode":4},{"attributes":{"NORMAL":45,"POSITION":18},"indices":72,"material":0,"mode":4},{"attributes":{"NORMAL":46,"POSITION":19},"indices":73,"material":0,"mode":4},{"attributes":{"NORMAL":47,"POSITION":20},"indices":74,"material":0,"mode":4},{"attributes":{"NORMAL":48,"POSITION":21},"indices":75,"material":0,"mode":4},{"attributes":{"NORMAL":49,"POSITION":22},"indices":76,"material":0,"mode":4},{"attributes":{"NORMAL":50,"POSITION":23},"indices":77,"material":0,"mode":4},{"attributes":{"NORMAL":51,"POSITION":24},"indices":78,"material":0,"mode":4},{"attributes":{"NORMAL":52,"POSITION":25},"indices":79,"material":0,"mode":4},{"attributes":{"NORMAL":53,"POSITION":26},"indices":80,"material":0,"mode":4}]}],"nodes":[{"rotation":[-0.7071067811865475,0.0,0.0,0.7071067811865475],"mesh":0,"name":"=>[0:1:1:2]"}],"scene":0,"scenes":[{"nodes":[0]}]}