{"accessors":[{"bufferView":0,"byteOffset":0,"componentType":5126,"count":252,"max":[0.002749145250486677,0.00275,0.0],"min":[-0.0027491452506660944,-0.00275,0.0],"type":"VEC3"},{"bufferView":0,"byteOffset":3024,"componentType":5126,"count":53,"max":[0.0031744264279903963,0.001375000011364,0.00011399268190000001],"min":[0.002381569853846,-0.001375000011364,0.0],"type":"VEC3"},{"bufferView":0,"byteOffset":3660,"componentType":5126,"count":51,"max":[0.002381569853846,0.00275,0.00011399268190000001],"min":[-2.428881144718e-16,0.001375000011364,0.0],"type":"VEC3"},{"bufferView":0,"byteOffset":4272,"componentType":5126,"count":52,"max":[0.002381569853846,-0.001375000011364,0.00011399268190000001],"min":[-2.593786373498e-16,-0.00275,0.0],"type":"VEC3"},{"bufferView":0,"byteOffset":4896,"componentType":5126,"count":52,"max":[-2.428881144718e-16,0.00275,0.00011399268190000001],"min":[-0.0023815698607160003,0.001374999999465,0.0],"type":"VEC3"},{"bufferView":0,"byteOffset":5520,"componentType":5126,"count":51,"max":[-2.593786373498e-16,-0.001375000011364,0.00011399268190000001],"min":[-0.002381569853846,-0.00275,0.0],"type":"VEC3"},{"bufferView":0,"byteOffset":6132,"componentType":5126,"count":53,"max":[-0.002381569853846,0.001374999999465,0.00011399268190000001],"min":[-0.003174426427990396,-0.001375000011364,0.0],"type":"VEC3"},{"bufferView":0,"byteOffset":6768,"componentType":5126,"count":254,"max":[0.0015,0.0014995337730012244,0.0024],"min":[-0.0015,-0.0014995337730012248,0.0],"type":"VEC3"},{"bufferView":0,"byteOffset":9816,"componentType":5126,"count":8,"max":[0.0031744264279903963,0.000001732870021573,0.0022860073181],"min":[0.0031744260075700003,-0.000001732870021573,0.00011399268190000001],"type":"VEC3"},{"bufferView":0,"byteOffset":9912,"componentType":5126,"count":52,"max":[0.0031744260075700003,0.002748267129978,0.0024],"min":[0.001588713713245,0.000001732870021573,0.0],"type":"VEC3"},{"bufferView":0,"byteOffset":10536,"componentType":5126,"count":52,"max":[0.0031744260075700003,-0.000001732870021573,0.0024],"min":[0.001588713713245,-0.002748267129978,0.0],"type":"VEC3"},{"bufferView":0,"byteOffset":11160,"componentType":5126,"count":8,"max":[0.001588713713245,0.00275,0.0022860073181],"min":[0.0015857122943249999,0.002748267129978,0.00011399268190000001],"type":"VEC3"},{"bufferView":0,"byteOffset":11256,"componentType":5126,"count":50,"max":[0.0015857122943249999,0.00275,0.0024],"min":[-0.0015857122943249999,0.00275,0.0],"type":"VEC3"},{"bufferView":0,"byteOffset":11856,"componentType":5126,"count":50,"max":[0.0015857122943249999,-0.00275,0.0024],"min":[-0.0015857122943249999,-0.00275,0.0],"type":"VEC3"},{"bufferView":0,"byteOffset":12456,"componentType":5126,"count":8,"max":[0.001588713713245,-0.002748267129978,0.0022860073181],"min":[0.0015857122943249999,-0.00275,0.00011399268190000001],"type":"VEC3"},{"bufferView":0,"byteOffset":12552,"componentType":5126,"count":8,"max":[-0.0015857122943249999,0.00275,0.0022860073181],"min":[-0.001588713713245,0.002748267129978,0.00011399268190000001],"type":"VEC3"},{"bufferView":0,"byteOffset":12648,"componentType":5126,"count":52,"max":[-0.001588713713245,0.002748267129978,0.0024],"min":[-0.0031744260075700003,0.0000017328700215750002,0.0],"type":"VEC3"},{"bufferView":0,"byteOffset":13272,"componentType":5126,"count":52,"max":[-0.001588713713245,-0.000001732870021572,0.0024],"min":[-0.0031744260075700003,-0.002748267129978,0.0],"type":"VEC3"},{"bufferView":0,"byteOffset":13896,"componentType":5126,"count":8,"max":[-0.0015857122943249999,-0.002748267129978,0.0022860073181],"min":[-0.001588713713245,-0.00275,0.00011399268190000001],"type":"VEC3"},{"bufferView":0,"byteOffset":13992,"componentType":5126,"count":8,"max":[-0.0031744260075700003,0.0000017328700215750002,0.0022860073181],"min":[-0.003174426427990396,-0.000001732870021572,0.00011399268190000001],"type":"VEC3"},{"bufferView":0,"byteOffset":14088,"componentType":5126,"count":252,"max":[0.002749145250486677,0.00275,0.0024],"min":[-0.0027491452506660944,-0.00275,0.0024],"type":"VEC3"},{"bufferView":0,"byteOffset":17112,"componentType":5126,"count":53,"max":[0.0031744264279903963,0.001375000011364,0.0024],"min":[0.002381569853846,-0.001375000011364,0.0022860073181],"type":"VEC3"},{"bufferView":0,"byteOffset":17748,"componentType":5126,"count":52,"max":[0.002381569853846,0.00275,0.0024],"min":[-2.428881144718e-16,0.001375000011364,0.0022860073181],"type":"VEC3"},{"bufferView":0,"byteOffset":18372,"componentType":5126,"count":51,"max":[0.002381569853846,-0.001375000011364,0.0024],"min":[-2.593786373498e-16,-0.00275,0.0022860073181],"type":"VEC3"},{"bufferView":0,"byteOffset":18984,"componentType":5126,"count":51,"max":[-2.428881144718e-16,0.00275,0.0024],"min":[-0.0023815698607160003,0.001374999999465,0.0022860073181],"type":"VEC3"},{"bufferView":0,"byteOffset":19596,"componentType":5126,"count":52,"max":[-2.593786373498e-16,-0.001375000011364,0.0024],"min":[-0.002381569853846,-0.00275,0.0022860073181],"type":"VEC3"},{"bufferView":0,"byteOffset":20220,"componentType":5126,"count":53,"max":[-0.002381569853846,0.001374999999465,0.0024],"min":[-0.003174426427990396,-0.001375000011364,0.0022860073181],"type":"VEC3"},{"bufferView":1,"byteOffset":0,"componentType":5126,"count":252,"type":"VEC3"},{"bufferView":1,"byteOffset":3024,"componentType":5126,"count":53,"type":"VEC3"},{"bufferView":1,"byteOffset":3660,"componentType":5126,"count":51,"type":"VEC3"},{"bufferView":1,"byteOffset":4272,"componentType":5126,"count":52,"type":"VEC3"},{"bufferView":1,"byteOffset":4896,"componentType":5126,"count":52,"type":"VEC3"},{"bufferView":1,"byteOffset":5520,"componentType":5126,"count":51,"type":"VEC3"},{"bufferView":1,"byteOffset":6132,"componentType":5126,"count":53,"type":"VEC3"},{"bufferView":1,"byteOffset":6768,"componentType":5126,"count":254,"type":"VEC3"},{"bufferView":1,"byteOffset":9816,"componentType":5126,"count":8,"type":"VEC3"},{"bufferView":1,"byteOffset":9912,"componentType":5126,"count":52,"type":"VEC3"},{"bufferView":1,"byteOffset":10536,"componentType":5126,"count":52,"type":"VEC3"},{"bufferView":1,"byteOffset":11160,"componentType":5126,"count":8,"type":"VEC3"},{"bufferView":1,"byteOffset":11256,"componentType":5126,"count":50,"type":"VEC3"},{"bufferView":1,"byteOffset":11856,"componentType":5126,"count":50,"type":"VEC3"},{"bufferView":1,"byteOffset":12456,"componentType":5126,"count":8,"type":"VEC3"},{"bufferView":1,"byteOffset":12552,"componentType":5126,"count":8,"type":"VEC3"},{"bufferView":1,"byteOffset":12648,"componentType":5126,"count":52,"type":"VEC3"},{"bufferView":1,"byteOffset":13272,"componentType":5126,"count":52,"type":"VEC3"},{"bufferView":1,"byteOffset":13896,"componentType":5126,"count":8,"type":"VEC3"},{"bufferView":1,"byteOffset":13992,"componentType":5126,"count":8,"type":"VEC3"},{"bufferView":1,"byteOffset":14088,"componentType":5126,"count":252,"type":"VEC3"},{"bufferView":1,"byteOffset":17112,"componentType":5126,"count":53,"type":"VEC3"},{"bufferView":1,"byteOffset":17748,"componentType":5126,"count":52,"type":"VEC3"},{"bufferView":1,"byteOffset":18372,"componentType":5126,"count":51,"type":"VEC3"},{"bufferView":1,"byteOffset":18984,"componentType":5126,"count":51,"type":"VEC3"},{"bufferView":1,"byteOffset":19596,"componentType":5126,"count":52,"type":"VEC3"},{"bufferView":1,"byteOffset":20220,"componentType":5126,"count":53,"type":"VEC3"},{"bufferView":2,"byteOffset":0,"componentType":5123,"count":756,"type":"SCALAR"},{"bufferView":2,"byteOffset":1512,"componentType":5123,"count":165,"type":"SCALAR"},{"bufferView":2,"byteOffset":1844,"componentType":5123,"count":156,"type":"SCALAR"},{"bufferView":2,"byteOffset":2156,"componentType":5123,"count":159,"type":"SCALAR"},{"bufferView":2,"byteOffset":2476,"componentType":5123,"count":159,"type":"SCALAR"},{"bufferView":2,"byteOffset":2796,"componentType":5123,"count":156,"type":"SCALAR"},{"bufferView":2,"byteOffset":3108,"componentType":5123,"count":165,"type":"SCALAR"},{"bufferView":2,"byteOffset":3440,"componentType":5123,"count":756,"type":"SCALAR"},{"bufferView":2,"byteOffset":4952,"componentType":5123,"count":18,"type":"SCALAR"},{"bufferView":2,"byteOffset":4988,"componentType":5123,"count":150,"type":"SCALAR"},{"bufferView":2,"byteOffset":5288,"componentType":5123,"count":150,"type":"SCALAR"},{"bufferView":2,"byteOffset":5588,"componentType":5123,"count":18,"type":"SCALAR"},{"bufferView":2,"byteOffset":5624,"componentType":5123,"count":144,"type":"SCALAR"},{"bufferView":2,"byteOffset":5912,"componentType":5123,"count":144,"type":"SCALAR"},{"bufferView":2,"byteOffset":6200,"componentType":5123,"count":18,"type":"SCALAR"},{"bufferView":2,"byteOffset":6236,"componentType":5123,"count":18,"type":"SCALAR"},{"bufferView":2,"byteOffset":6272,"componentType":5123,"count":150,"type":"SCALAR"},{"bufferView":2,"byteOffset":6572,"componentType":5123,"count":150,"type":"SCALAR"},{"bufferView":2,"byteOffset":6872,"componentType":5123,"count":18,"type":"SCALAR"},{"bufferView":2,"byteOffset":6908,"componentType":5123,"count":18,"type":"SCALAR"},{"bufferView":2,"byteOffset":6944,"componentType":5123,"count":756,"type":"SCALAR"},{"bufferView":2,"byteOffset":8456,"componentType":5123,"count":165,"type":"SCALAR"},{"bufferView":2,"byteOffset":8788,"componentType":5123,"count":159,"type":"SCALAR"},{"bufferView":2,"byteOffset":9108,"componentType":5123,"count":156,"type":"SCALAR"},{"bufferView":2,"byteOffset":9420,"componentType":5123,"count":156,"type":"SCALAR"},{"bufferView":2,"byteOffset":9732,"componentType":5123,"count":159,"type":"SCALAR"},{"bufferView":2,"byteOffset":10052,"componentType":5123,"count":165,"type":"SCALAR"}],"asset":{"generator":"Open CASCADE Technology 7.8 [dev.opencascade.org]","version":"2.0"},"bufferViews":[{"buffer":0,"byteLength":20856,"byteOffset":0,"byteStride":12,"target":34962},{"buffer":0,"byteLength":20856,"byteOffset":20856,"byteStride":12,"target":34962},{"buffer":0,"byteLength":10384,"byteOffset":41712,"target":34963}],"buffers":[{"byteLength":52096,"uri":"hex_nut_M3.bin"}],"materials":[{"name":"mat_0","pbrMetallicRoughness":{"baseColorFactor":[0.7529411911964417,0.7529411911964417,0.7529411911964417,1.0]},"doubleSided":true}],"meshes":[{"name":"HexNut_M3-0_5,_iso4032_","primitives":[{"attributes":{"NORMAL":27,"POSITION":0},"indices":54,"material":0,"mode":4},{"attributes":{"NORMAL":28,"POSITION":1},"indices":55,"material":0,"mode":4},{"attributes":{"NORMAL":29,"POSITION":2},"indices":56,"material":0,"mode":4},{"attributes":{"NORMAL":30,"POSITION":3},"indices":57,"material":0,"mode":4},{"attributes":{"NORMAL":31,"POSITION":4},"indices":58,"material":0,"mode":4},{"attributes":{"NORMAL":32,"POSITION":5},"indices":59,"material":0,"mode":4},{"attributes":{"NORMAL":33,"POSITION":6},"indices":60,"material":0,"mode":4},{"attributes":{"NORMAL":34,"POSITION":7},"indices":61,"material":0,"mode":4},{"attributes":{"NORMAL":35,"POSITION":8},"indices":62,"material":0,"mode":4},{"attributes":{"NORMAL":36,"POSITION":9},"indices":63,"material":0,"mode":4},{"attributes":{"NORMAL":37,"POSITION":10},"indices":64,"material":0,"mode":4},{"attributes":{"NORMAL":38,"POSITION":11},"indices":65,"material":0,"mode":4},{"attributes":{"NORMAL":39,"POSITION":12},"indices":66,"material":0,"mode":4},{"attributes":{"NORMAL":40,"POSITION":13},"indices":67,"material":0,"mode":4},{"attributes":{"NORMAL":41,"POSITION":14},"indices":68,"material":0,"mode":4},{"attributes":{"NORMAL":42,"POSITION":15},"indices":69,"material":0,"mode":4},{"attributes":{"NORMAL":43,"POSITION":16},"indices":70,"material":0,"mode":4},{"attributes":{"NORMAL":44,"POSITION":17},"indices":71,"material":0,"mode":4},{"attributes":{"NORMAL":45,"POSITION":18},"indices":72,"material":0,"mode":4},{"attributes":{"NORMAL":46,"POSITION":19},"indices":73,"material":0,"mode":4},{"attributes":{"NORMAL":47,"POSITION":20},"indices":74,"material":0,"mode":4},{"attributes":{"NORMAL":48,"POSITION":21},"indices":75,"material":0,"mode":4},{"attributes":{"NORMAL":49,"POSITION":22},"indices":76,"material":0,"mode":4},{"attributes":{"NORMAL":50,"POSITION":23},"indices":77,"material":0,"mode":4},{"attributes":{"NORMAL":51,"POSITION":24},"indices":78,"material":0,"mode":4},{"attributes":{"NORMAL":52,"POSITION":25},"indices":79,"material":0,"mode":4},{"attributes":{"NORMAL":53,"POSITION":26},"indices":80,"material":0,"mode":4}]}],"nodes":[{"rotation":[-0.7071067811865475,0.0,0.0,0.7071067811865475],"mesh":0,"name":"=>[0:1:1:2]"}],"scene":0,"scenes":[{"nodes":[0]}]}