{"accessors":[{"bufferView":0,"byteOffset":0,"componentType":5126,"count":252,"max":[0.002,0.0019993783640016327,0.0],"min":[-0.002,-0.001999378364001633,0.0],"type":"VEC3"},{"bufferView":0,"byteOffset":3024,"componentType":5126,"count":2847,"max":[0.002,0.0019993783640016327,0.0013000001000000002],"min":[-0.002,-0.001999378364001633,0.0],"type":"VEC3"},{"bufferView":0,"byteOffset":37188,"componentType":5126,"count":254,"max":[0.000783493649054,0.0007832501251256278,0.0],"min":[-0.000783493649054,-0.0007832501251256279,-0.004],"type":"VEC3"},{"bufferView":0,"byteOffset":40236,"componentType":5126,"count":20,"max":[0.001825471844864,0.00035,0.0008000002000000001],"min":[-0.0018254320112437736,-0.00035,0.0008000002000000001],"type":"VEC3"},{"bufferView":0,"byteOffset":40476,"componentType":5126,"count":56,"max":[0.001791604715441,0.00035,0.0013000001000000002],"min":[-0.001791604715441,0.00035,0.0008000002000000001],"type":"VEC3"},{"bufferView":0,"byteOffset":41148,"componentType":5126,"count":50,"max":[0.00093674969976,0.000999693494325689,0.0013000001000000002],"min":[-0.00093674969976,0.00035,0.0013000000000000002],"type":"VEC3"},{"bufferView":0,"byteOffset":41748,"componentType":5126,"count":56,"max":[0.001791604715441,-0.00035,0.0013000001000000002],"min":[-0.001791604715441,-0.00035,0.0008000002000000001],"type":"VEC3"},{"bufferView":0,"byteOffset":42420,"componentType":5126,"count":50,"max":[0.00093674969976,-0.00035,0.0013000001000000002],"min":[-0.00093674969976,-0.000999693494325689,0.0013000000000000002],"type":"VEC3"},{"bufferView":0,"byteOffset":43020,"componentType":5126,"count":126,"max":[0.000783493649054,0.0007832501251256278,-0.004],"min":[-0.000783493649054,-0.0007832501251256279,-0.004],"type":"VEC3"},{"bufferView":1,"byteOffset":0,"componentType":5126,"count":252,"type":"VEC3"},{"bufferView":1,"byteOffset":3024,"componentType":5126,"count":2847,"type":"VEC3"},{"bufferView":1,"byteOffset":37188,"componentType":5126,"count":254,"type":"VEC3"},{"bufferView":1,"byteOffset":40236,"componentType":5126,"count":20,"type":"VEC3"},{"bufferView":1,"byteOffset":40476,"componentType":5126,"count":56,"type":"VEC3"},{"bufferView":1,"byteOffset":41148,"componentType":5126,"count":50,"type":"VEC3"},{"bufferView":1,"byteOffset":41748,"componentType":5126,"count":56,"type":"VEC3"},{"bufferView":1,"byteOffset":42420,"componentType":5126,"count":50,"type":"VEC3"},{"bufferView":1,"byteOffset":43020,"componentType":5126,"count":126,"type":"VEC3"},{"bufferView":2,"byteOffset":0,"componentType":5123,"count":756,"type":"SCALAR"},{"bufferView":2,"byteOffset":1512,"componentType":5123,"count":15978,"type":"SCALAR"},{"bufferView":2,"byteOffset":33468,"componentType":5123,"count":756,"type":"SCALAR"},{"bufferView":2,"byteOffset":34980,"componentType":5123,"count":54,"type":"SCALAR"},{"bufferView":2,"byteOffset":35088,"componentType":5123,"count":162,"type":"SCALAR"},{"bufferView":2,"byteOffset":35412,"componentType":5123,"count":144,"type":"SCALAR"},{"bufferView":2,"byteOffset":35700,"componentType":5123,"count":162,"type":"SCALAR"},{"bufferView":2,"byteOffset":36024,"componentType":5123,"count":144,"type":"SCALAR"},{"bufferView":2,"byteOffset":36312,"componentType":5123,"count":372,"type":"SCALAR"}],"asset":{"generator":"Open CASCADE Technology 7.8 [dev.opencascade.org]","version":"2.0"},"bufferViews":[{"buffer":0,"byteLength":44532,"byteOffset":0,"byteStride":12,"target":34962},{"buffer":0,"byteLength":44532,"byteOffset":44532,"byteStride":12,"target":34962},{"buffer":0,"byteLength":37056,"byteOffset":89064,"target":34963}],"buffers":[{"byteLength":126120,"uri":"pan_head_screw_M2x4.bin"}],"materials":[{"name":"mat_0","pbrMetallicRoughness":{"baseColorFactor":[0.7529411911964417,0.7529411911964417,0.7529411911964417,1.0]},"doubleSided":true}],"meshes":[{"name":"PanHeadScrew_M2-0_4,_4_00,_iso1580_","primitives":[{"attributes":{"NORMAL":9,"POSITION":0},"indices":18,"material":0,"mode":4},{"attributes":{"NORMAL":10,"POSITION":1},"indices":19,"material":0,"mode":4},{"attributes":{"NORMAL":11,"POSITION":2},"indices":20,"material":0,"mode":4},{"attributes":{"NORMAL":12,"POSITION":3},"indices":21,"material":0,"mode":4},{"attributes":{"NORMAL":13,"POSITION":4},"indices":22,"material":0,"mode":4},{"attributes":{"NORMAL":14,"POSITION":5},"indices":23,"material":0,"mode":4},{"attributes":{"NORMAL":15,"POSITION":6},"indices":24,"material":0,"mode":4},{"attributes":{"NORMAL":16,"POSITION":7},"indices":25,"material":0,"mode":4},{"attributes":{"NORMAL":17,"POSITION":8},"indices":26,"material":0,"mode":4}]}],"nodes":[{"rotation":[-0.7071067811865475,0.0,0.0,0.7071067811865475],"mesh":0,"name":"=>[0:1:1:2]"}],"scene":0,"scenes":[{"nodes":[0]}]}