{"accessors":[{"bufferView":0,"byteOffset":0,"componentType":5126,"count":252,"max":[0.006,0.0059981350920048975,0.0],"min":[-0.006,-0.005998135092004899,0.0],"type":"VEC3"},{"bufferView":0,"byteOffset":3024,"componentType":5126,"count":2649,"max":[0.006,0.0059981350920048975,0.0036000001],"min":[-0.006,-0.005998135092004899,0.0],"type":"VEC3"},{"bufferView":0,"byteOffset":34812,"componentType":5126,"count":254,"max":[0.002458734122635,0.0024579699038144776,0.0],"min":[-0.002458734122635,-0.0024579699038144785,-0.02],"type":"VEC3"},{"bufferView":0,"byteOffset":37860,"componentType":5126,"count":20,"max":[0.005472102087756001,0.000955,0.0022000001999999998],"min":[-0.005471480321006727,-0.000955,0.0022000001999999998],"type":"VEC3"},{"bufferView":0,"byteOffset":38100,"componentType":5126,"count":56,"max":[0.0053881236306179995,0.000955,0.0036000001],"min":[-0.0053881236306179995,0.000955,0.0022000001999999998],"type":"VEC3"},{"bufferView":0,"byteOffset":38772,"componentType":5126,"count":51,"max":[0.0028439365323439996,0.003,0.0036000001],"min":[-0.0028439365323439996,0.000955,0.0036000000000000003],"type":"VEC3"},{"bufferView":0,"byteOffset":39384,"componentType":5126,"count":56,"max":[0.0053881236306179995,-0.000955,0.0036000001],"min":[-0.0053881236306179995,-0.000955,0.0022000001999999998],"type":"VEC3"},{"bufferView":0,"byteOffset":40056,"componentType":5126,"count":51,"max":[0.0028439365323439996,-0.000955,0.0036000001],"min":[-0.0028439365323439996,-0.003,0.0036000000000000003],"type":"VEC3"},{"bufferView":0,"byteOffset":40668,"componentType":5126,"count":126,"max":[0.002458734122635,0.0024579699038144776,-0.02],"min":[-0.002458734122635,-0.0024579699038144785,-0.02],"type":"VEC3"},{"bufferView":1,"byteOffset":0,"componentType":5126,"count":252,"type":"VEC3"},{"bufferView":1,"byteOffset":3024,"componentType":5126,"count":2649,"type":"VEC3"},{"bufferView":1,"byteOffset":34812,"componentType":5126,"count":254,"type":"VEC3"},{"bufferView":1,"byteOffset":37860,"componentType":5126,"count":20,"type":"VEC3"},{"bufferView":1,"byteOffset":38100,"componentType":5126,"count":56,"type":"VEC3"},{"bufferView":1,"byteOffset":38772,"componentType":5126,"count":51,"type":"VEC3"},{"bufferView":1,"byteOffset":39384,"componentType":5126,"count":56,"type":"VEC3"},{"bufferView":1,"byteOffset":40056,"componentType":5126,"count":51,"type":"VEC3"},{"bufferView":1,"byteOffset":40668,"componentType":5126,"count":126,"type":"VEC3"},{"bufferView":2,"byteOffset":0,"componentType":5123,"count":756,"type":"SCALAR"},{"bufferView":2,"byteOffset":1512,"componentType":5123,"count":14778,"type":"SCALAR"},{"bufferView":2,"byteOffset":31068,"componentType":5123,"count":756,"type":"SCALAR"},{"bufferView":2,"byteOffset":32580,"componentType":5123,"count":54,"type":"SCALAR"},{"bufferView":2,"byteOffset":32688,"componentType":5123,"count":162,"type":"SCALAR"},{"bufferView":2,"byteOffset":33012,"componentType":5123,"count":147,"type":"SCALAR"},{"bufferView":2,"byteOffset":33308,"componentType":5123,"count":162,"type":"SCALAR"},{"bufferView":2,"byteOffset":33632,"componentType":5123,"count":147,"type":"SCALAR"},{"bufferView":2,"byteOffset":33928,"componentType":5123,"count":372,"type":"SCALAR"}],"asset":{"generator":"Open CASCADE Technology 7.8 [dev.opencascade.org]","version":"2.0"},"bufferViews":[{"buffer":0,"byteLength":42180,"byteOffset":0,"byteStride":12,"target":34962},{"buffer":0,"byteLength":42180,"byteOffset":42180,"byteStride":12,"target":34962},{"buffer":0,"byteLength":34672,"byteOffset":84360,"target":34963}],"buffers":[{"byteLength":119032,"uri":"pan_head_screw_M6x20.bin"}],"materials":[{"name":"mat_0","pbrMetallicRoughness":{"baseColorFactor":[0.7529411911964417,0.7529411911964417,0.7529411911964417,1.0]},"doubleSided":true}],"meshes":[{"name":"PanHeadScrew_M6-1,_20_00,_iso1580_","primitives":[{"attributes":{"NORMAL":9,"POSITION":0},"indices":18,"material":0,"mode":4},{"attributes":{"NORMAL":10,"POSITION":1},"indices":19,"material":0,"mode":4},{"attributes":{"NORMAL":11,"POSITION":2},"indices":20,"material":0,"mode":4},{"attributes":{"NORMAL":12,"POSITION":3},"indices":21,"material":0,"mode":4},{"attributes":{"NORMAL":13,"POSITION":4},"indices":22,"material":0,"mode":4},{"attributes":{"NORMAL":14,"POSITION":5},"indices":23,"material":0,"mode":4},{"attributes":{"NORMAL":15,"POSITION":6},"indices":24,"material":0,"mode":4},{"attributes":{"NORMAL":16,"POSITION":7},"indices":25,"material":0,"mode":4},{"attributes":{"NORMAL":17,"POSITION":8},"indices":26,"material":0,"mode":4}]}],"nodes":[{"rotation":[-0.7071067811865475,0.0,0.0,0.7071067811865475],"mesh":0,"name":"=>[0:1:1:2]"}],"scene":0,"scenes":[{"nodes":[0]}]}