{"accessors":[{"bufferView":0,"byteOffset":0,"componentType":5126,"count":252,"max":[0.004,0.003998756728003265,0.0],"min":[-0.004,-0.003998756728003266,0.0],"type":"VEC3"},{"bufferView":0,"byteOffset":3024,"componentType":5126,"count":2822,"max":[0.004,0.003998756728003265,0.0024000001000000003],"min":[-0.004,-0.003998756728003266,0.0],"type":"VEC3"},{"bufferView":0,"byteOffset":36888,"componentType":5126,"count":254,"max":[0.001621113885844,0.0016206100144695531,0.0],"min":[-0.001621113885844,-0.0016206100144695534,-0.008],"type":"VEC3"},{"bufferView":0,"byteOffset":39936,"componentType":5126,"count":23,"max":[0.0036804020734340004,0.000755,0.0014000002],"min":[-0.00367962218177169,-0.000755,0.0014000002],"type":"VEC3"},{"bufferView":0,"byteOffset":40212,"componentType":5126,"count":58,"max":[0.003602129151229,0.000755,0.0024000001000000003],"min":[-0.003602129151229,0.000755,0.0014000002],"type":"VEC3"},{"bufferView":0,"byteOffset":40908,"componentType":5126,"count":49,"max":[0.001852019168367,0.002,0.0024000001000000003],"min":[-0.001852019168367,0.000755,0.0024],"type":"VEC3"},{"bufferView":0,"byteOffset":41496,"componentType":5126,"count":58,"max":[0.003602129151229,-0.000755,0.0024000001000000003],"min":[-0.003602129151229,-0.000755,0.0014000002],"type":"VEC3"},{"bufferView":0,"byteOffset":42192,"componentType":5126,"count":49,"max":[0.001852019168367,-0.000755,0.0024000001000000003],"min":[-0.001852019168367,-0.002,0.0024],"type":"VEC3"},{"bufferView":0,"byteOffset":42780,"componentType":5126,"count":126,"max":[0.001621113885844,0.0016206100144695531,-0.008],"min":[-0.001621113885844,-0.0016206100144695534,-0.008],"type":"VEC3"},{"bufferView":1,"byteOffset":0,"componentType":5126,"count":252,"type":"VEC3"},{"bufferView":1,"byteOffset":3024,"componentType":5126,"count":2822,"type":"VEC3"},{"bufferView":1,"byteOffset":36888,"componentType":5126,"count":254,"type":"VEC3"},{"bufferView":1,"byteOffset":39936,"componentType":5126,"count":23,"type":"VEC3"},{"bufferView":1,"byteOffset":40212,"componentType":5126,"count":58,"type":"VEC3"},{"bufferView":1,"byteOffset":40908,"componentType":5126,"count":49,"type":"VEC3"},{"bufferView":1,"byteOffset":41496,"componentType":5126,"count":58,"type":"VEC3"},{"bufferView":1,"byteOffset":42192,"componentType":5126,"count":49,"type":"VEC3"},{"bufferView":1,"byteOffset":42780,"componentType":5126,"count":126,"type":"VEC3"},{"bufferView":2,"byteOffset":0,"componentType":5123,"count":756,"type":"SCALAR"},{"bufferView":2,"byteOffset":1512,"componentType":5123,"count":15813,"type":"SCALAR"},{"bufferView":2,"byteOffset":33140,"componentType":5123,"count":756,"type":"SCALAR"},{"bufferView":2,"byteOffset":34652,"componentType":5123,"count":63,"type":"SCALAR"},{"bufferView":2,"byteOffset":34780,"componentType":5123,"count":168,"type":"SCALAR"},{"bufferView":2,"byteOffset":35116,"componentType":5123,"count":141,"type":"SCALAR"},{"bufferView":2,"byteOffset":35400,"componentType":5123,"count":168,"type":"SCALAR"},{"bufferView":2,"byteOffset":35736,"componentType":5123,"count":141,"type":"SCALAR"},{"bufferView":2,"byteOffset":36020,"componentType":5123,"count":372,"type":"SCALAR"}],"asset":{"generator":"Open CASCADE Technology 7.8 [dev.opencascade.org]","version":"2.0"},"bufferViews":[{"buffer":0,"byteLength":44292,"byteOffset":0,"byteStride":12,"target":34962},{"buffer":0,"byteLength":44292,"byteOffset":44292,"byteStride":12,"target":34962},{"buffer":0,"byteLength":36764,"byteOffset":88584,"target":34963}],"buffers":[{"byteLength":125348,"uri":"pan_head_screw_M4x8.bin"}],"materials":[{"name":"mat_0","pbrMetallicRoughness":{"baseColorFactor":[0.7529411911964417,0.7529411911964417,0.7529411911964417,1.0]},"doubleSided":true}],"meshes":[{"name":"PanHeadScrew_M4-0_7,_8_00,_iso1580_","primitives":[{"attributes":{"NORMAL":9,"POSITION":0},"indices":18,"material":0,"mode":4},{"attributes":{"NORMAL":10,"POSITION":1},"indices":19,"material":0,"mode":4},{"attributes":{"NORMAL":11,"POSITION":2},"indices":20,"material":0,"mode":4},{"attributes":{"NORMAL":12,"POSITION":3},"indices":21,"material":0,"mode":4},{"attributes":{"NORMAL":13,"POSITION":4},"indices":22,"material":0,"mode":4},{"attributes":{"NORMAL":14,"POSITION":5},"indices":23,"material":0,"mode":4},{"attributes":{"NORMAL":15,"POSITION":6},"indices":24,"material":0,"mode":4},{"attributes":{"NORMAL":16,"POSITION":7},"indices":25,"material":0,"mode":4},{"attributes":{"NORMAL":17,"POSITION":8},"indices":26,"material":0,"mode":4}]}],"nodes":[{"rotation":[-0.7071067811865475,0.0,0.0,0.7071067811865475],"mesh":0,"name":"=>[0:1:1:2]"}],"scene":0,"scenes":[{"nodes":[0]}]}