{"accessors":[{"bufferView":0,"byteOffset":0,"componentType":5126,"count":252,"max":[0.0028,0.0027991297096022854,0.0],"min":[-0.0028,-0.0027991297096022862,0.0],"type":"VEC3"},{"bufferView":0,"byteOffset":3024,"componentType":5126,"count":2862,"max":[0.0028,0.0027991297096022854,0.0018000001000000002],"min":[-0.0028,-0.0027991297096022862,0.0],"type":"VEC3"},{"bufferView":0,"byteOffset":37368,"componentType":5126,"count":254,"max":[0.001229367061317,0.001228984951906739,0.0],"min":[-0.001229367061317,-0.0012289849519067392,-0.008],"type":"VEC3"},{"bufferView":0,"byteOffset":40416,"componentType":5126,"count":21,"max":[0.0025583274590720005,0.0005,0.0011000002],"min":[-0.0025580299143761146,-0.0005,0.0011000002],"type":"VEC3"},{"bufferView":0,"byteOffset":40668,"componentType":5126,"count":58,"max":[0.002508991707408,0.0005,0.0018000001000000002],"min":[-0.002508991707408,0.0005,0.0011000002],"type":"VEC3"},{"bufferView":0,"byteOffset":41364,"componentType":5126,"count":50,"max":[0.001307669683062,0.0013995762764511502,0.0018000001000000002],"min":[-0.001307669683062,0.0005,0.0018000000000000002],"type":"VEC3"},{"bufferView":0,"byteOffset":41964,"componentType":5126,"count":58,"max":[0.002508991707408,-0.0004999999999999999,0.0018000001000000002],"min":[-0.002508991707408,-0.0005,0.0011000002],"type":"VEC3"},{"bufferView":0,"byteOffset":42660,"componentType":5126,"count":50,"max":[0.001307669683062,-0.0005,0.0018000001000000002],"min":[-0.001307669683062,-0.0013995762764511502,0.0018000000000000002],"type":"VEC3"},{"bufferView":0,"byteOffset":43260,"componentType":5126,"count":126,"max":[0.001229367061317,0.001228984951906739,-0.008],"min":[-0.001229367061317,-0.0012289849519067392,-0.008],"type":"VEC3"},{"bufferView":1,"byteOffset":0,"componentType":5126,"count":252,"type":"VEC3"},{"bufferView":1,"byteOffset":3024,"componentType":5126,"count":2862,"type":"VEC3"},{"bufferView":1,"byteOffset":37368,"componentType":5126,"count":254,"type":"VEC3"},{"bufferView":1,"byteOffset":40416,"componentType":5126,"count":21,"type":"VEC3"},{"bufferView":1,"byteOffset":40668,"componentType":5126,"count":58,"type":"VEC3"},{"bufferView":1,"byteOffset":41364,"componentType":5126,"count":50,"type":"VEC3"},{"bufferView":1,"byteOffset":41964,"componentType":5126,"count":58,"type":"VEC3"},{"bufferView":1,"byteOffset":42660,"componentType":5126,"count":50,"type":"VEC3"},{"bufferView":1,"byteOffset":43260,"componentType":5126,"count":126,"type":"VEC3"},{"bufferView":2,"byteOffset":0,"componentType":5123,"count":756,"type":"SCALAR"},{"bufferView":2,"byteOffset":1512,"componentType":5123,"count":16053,"type":"SCALAR"},{"bufferView":2,"byteOffset":33620,"componentType":5123,"count":756,"type":"SCALAR"},{"bufferView":2,"byteOffset":35132,"componentType":5123,"count":57,"type":"SCALAR"},{"bufferView":2,"byteOffset":35248,"componentType":5123,"count":168,"type":"SCALAR"},{"bufferView":2,"byteOffset":35584,"componentType":5123,"count":144,"type":"SCALAR"},{"bufferView":2,"byteOffset":35872,"componentType":5123,"count":168,"type":"SCALAR"},{"bufferView":2,"byteOffset":36208,"componentType":5123,"count":144,"type":"SCALAR"},{"bufferView":2,"byteOffset":36496,"componentType":5123,"count":372,"type":"SCALAR"}],"asset":{"generator":"Open CASCADE Technology 7.8 [dev.opencascade.org]","version":"2.0"},"bufferViews":[{"buffer":0,"byteLength":44772,"byteOffset":0,"byteStride":12,"target":34962},{"buffer":0,"byteLength":44772,"byteOffset":44772,"byteStride":12,"target":34962},{"buffer":0,"byteLength":37240,"byteOffset":89544,"target":34963}],"buffers":[{"byteLength":126784,"uri":"pan_head_screw_M3x8.bin"}],"materials":[{"name":"mat_0","pbrMetallicRoughness":{"baseColorFactor":[0.7529411911964417,0.7529411911964417,0.7529411911964417,1.0]},"doubleSided":true}],"meshes":[{"name":"PanHeadScrew_M3-0_5,_8_00,_iso1580_","primitives":[{"attributes":{"NORMAL":9,"POSITION":0},"indices":18,"material":0,"mode":4},{"attributes":{"NORMAL":10,"POSITION":1},"indices":19,"material":0,"mode":4},{"attributes":{"NORMAL":11,"POSITION":2},"indices":20,"material":0,"mode":4},{"attributes":{"NORMAL":12,"POSITION":3},"indices":21,"material":0,"mode":4},{"attributes":{"NORMAL":13,"POSITION":4},"indices":22,"material":0,"mode":4},{"attributes":{"NORMAL":14,"POSITION":5},"indices":23,"material":0,"mode":4},{"attributes":{"NORMAL":15,"POSITION":6},"indices":24,"material":0,"mode":4},{"attributes":{"NORMAL":16,"POSITION":7},"indices":25,"material":0,"mode":4},{"attributes":{"NORMAL":17,"POSITION":8},"indices":26,"material":0,"mode":4}]}],"nodes":[{"rotation":[-0.7071067811865475,0.0,0.0,0.7071067811865475],"mesh":0,"name":"=>[0:1:1:2]"}],"scene":0,"scenes":[{"nodes":[0]}]}