{"accessors":[{"bufferView":0,"byteOffset":0,"componentType":5126,"count":252,"max":[0.00475,0.004748523614503878,0.0],"min":[-0.00475,-0.0047485236145038785,0.0],"type":"VEC3"},{"bufferView":0,"byteOffset":3024,"componentType":5126,"count":2847,"max":[0.00475,0.004748523614503878,0.0030000001],"min":[-0.00475,-0.0047485236145038785,0.0],"type":"VEC3"},{"bufferView":0,"byteOffset":37188,"componentType":5126,"count":254,"max":[0.0020669872981080003,0.0020663448412516637,0.0],"min":[-0.0020669872981080003,-0.002066344841251664,-0.016],"type":"VEC3"},{"bufferView":0,"byteOffset":40236,"componentType":5126,"count":20,"max":[0.00435322541198,0.000755,0.0018000002],"min":[-0.0043526968816803195,-0.000755,0.0018000002],"type":"VEC3"},{"bufferView":0,"byteOffset":40476,"componentType":5126,"count":58,"max":[0.004287253956498,0.000755,0.0030000001],"min":[-0.004287253956498,0.000755,0.0018000002],"type":"VEC3"},{"bufferView":0,"byteOffset":41172,"componentType":5126,"count":51,"max":[0.002251799280575,0.002375,0.0030000001],"min":[-0.002251799280575,0.000755,0.003],"type":"VEC3"},{"bufferView":0,"byteOffset":41784,"componentType":5126,"count":58,"max":[0.004287253956498,-0.000755,0.0030000001],"min":[-0.004287253956498,-0.000755,0.0018000002],"type":"VEC3"},{"bufferView":0,"byteOffset":42480,"componentType":5126,"count":51,"max":[0.002251799280575,-0.000755,0.0030000001],"min":[-0.002251799280575,-0.002375,0.003],"type":"VEC3"},{"bufferView":0,"byteOffset":43092,"componentType":5126,"count":126,"max":[0.0020669872981080003,0.0020663448412516637,-0.016],"min":[-0.0020669872981080003,-0.002066344841251664,-0.016],"type":"VEC3"},{"bufferView":1,"byteOffset":0,"componentType":5126,"count":252,"type":"VEC3"},{"bufferView":1,"byteOffset":3024,"componentType":5126,"count":2847,"type":"VEC3"},{"bufferView":1,"byteOffset":37188,"componentType":5126,"count":254,"type":"VEC3"},{"bufferView":1,"byteOffset":40236,"componentType":5126,"count":20,"type":"VEC3"},{"bufferView":1,"byteOffset":40476,"componentType":5126,"count":58,"type":"VEC3"},{"bufferView":1,"byteOffset":41172,"componentType":5126,"count":51,"type":"VEC3"},{"bufferView":1,"byteOffset":41784,"componentType":5126,"count":58,"type":"VEC3"},{"bufferView":1,"byteOffset":42480,"componentType":5126,"count":51,"type":"VEC3"},{"bufferView":1,"byteOffset":43092,"componentType":5126,"count":126,"type":"VEC3"},{"bufferView":2,"byteOffset":0,"componentType":5123,"count":756,"type":"SCALAR"},{"bufferView":2,"byteOffset":1512,"componentType":5123,"count":15960,"type":"SCALAR"},{"bufferView":2,"byteOffset":33432,"componentType":5123,"count":756,"type":"SCALAR"},{"bufferView":2,"byteOffset":34944,"componentType":5123,"count":54,"type":"SCALAR"},{"bufferView":2,"byteOffset":35052,"componentType":5123,"count":168,"type":"SCALAR"},{"bufferView":2,"byteOffset":35388,"componentType":5123,"count":147,"type":"SCALAR"},{"bufferView":2,"byteOffset":35684,"componentType":5123,"count":168,"type":"SCALAR"},{"bufferView":2,"byteOffset":36020,"componentType":5123,"count":147,"type":"SCALAR"},{"bufferView":2,"byteOffset":36316,"componentType":5123,"count":372,"type":"SCALAR"}],"asset":{"generator":"Open CASCADE Technology 7.8 [dev.opencascade.org]","version":"2.0"},"bufferViews":[{"buffer":0,"byteLength":44604,"byteOffset":0,"byteStride":12,"target":34962},{"buffer":0,"byteLength":44604,"byteOffset":44604,"byteStride":12,"target":34962},{"buffer":0,"byteLength":37060,"byteOffset":89208,"target":34963}],"buffers":[{"byteLength":126268,"uri":"pan_head_screw_M5x16.bin"}],"materials":[{"name":"mat_0","pbrMetallicRoughness":{"baseColorFactor":[0.7529411911964417,0.7529411911964417,0.7529411911964417,1.0]},"doubleSided":true}],"meshes":[{"name":"PanHeadScrew_M5-0_8,_16_00,_iso1580_","primitives":[{"attributes":{"NORMAL":9,"POSITION":0},"indices":18,"material":0,"mode":4},{"attributes":{"NORMAL":10,"POSITION":1},"indices":19,"material":0,"mode":4},{"attributes":{"NORMAL":11,"POSITION":2},"indices":20,"material":0,"mode":4},{"attributes":{"NORMAL":12,"POSITION":3},"indices":21,"material":0,"mode":4},{"attributes":{"NORMAL":13,"POSITION":4},"indices":22,"material":0,"mode":4},{"attributes":{"NORMAL":14,"POSITION":5},"indices":23,"material":0,"mode":4},{"attributes":{"NORMAL":15,"POSITION":6},"indices":24,"material":0,"mode":4},{"attributes":{"NORMAL":16,"POSITION":7},"indices":25,"material":0,"mode":4},{"attributes":{"NORMAL":17,"POSITION":8},"indices":26,"material":0,"mode":4}]}],"nodes":[{"rotation":[-0.7071067811865475,0.0,0.0,0.7071067811865475],"mesh":0,"name":"=>[0:1:1:2]"}],"scene":0,"scenes":[{"nodes":[0]}]}