{"accessors":[{"bufferView":0,"byteOffset":0,"componentType":5126,"count":254,"max":[0.00215,0.0021493317413017548,0.0011],"min":[-0.00215,-0.002149331741301755,0.0],"type":"VEC3"},{"bufferView":0,"byteOffset":3048,"componentType":5126,"count":252,"max":[0.006,0.0059981350920048975,0.0],"min":[-0.006,-0.005998135092004899,0.0],"type":"VEC3"},{"bufferView":0,"byteOffset":6072,"componentType":5126,"count":254,"max":[0.006,0.0059981350920048975,0.0011],"min":[-0.006,-0.005998135092004899,0.0],"type":"VEC3"},{"bufferView":0,"byteOffset":9120,"componentType":5126,"count":252,"max":[0.006,0.0059981350920048975,0.0011],"min":[-0.006,-0.005998135092004899,0.0011],"type":"VEC3"},{"bufferView":1,"byteOffset":0,"componentType":5126,"count":254,"type":"VEC3"},{"bufferView":1,"byteOffset":3048,"componentType":5126,"count":252,"type":"VEC3"},{"bufferView":1,"byteOffset":6072,"componentType":5126,"count":254,"type":"VEC3"},{"bufferView":1,"byteOffset":9120,"componentType":5126,"count":252,"type":"VEC3"},{"bufferView":2,"byteOffset":0,"componentType":5123,"count":756,"type":"SCALAR"},{"bufferView":2,"byteOffset":1512,"componentType":5123,"count":756,"type":"SCALAR"},{"bufferView":2,"byteOffset":3024,"componentType":5123,"count":756,"type":"SCALAR"},{"bufferView":2,"byteOffset":4536,"componentType":5123,"count":756,"type":"SCALAR"}],"asset":{"generator":"Open CASCADE Technology 7.8 [dev.opencascade.org]","version":"2.0"},"bufferViews":[{"buffer":0,"byteLength":12144,"byteOffset":0,"byteStride":12,"target":34962},{"buffer":0,"byteLength":12144,"byteOffset":12144,"byteStride":12,"target":34962},{"buffer":0,"byteLength":6048,"byteOffset":24288,"target":34963}],"buffers":[{"byteLength":30336,"uri":"plain_washer_M4.bin"}],"materials":[{"name":"mat_0","pbrMetallicRoughness":{"baseColorFactor":[0.7529411911964417,0.7529411911964417,0.7529411911964417,1.0]},"doubleSided":true}],"meshes":[{"name":"PlainWasher_M4,_iso7093_","primitives":[{"attributes":{"NORMAL":4,"POSITION":0},"indices":8,"material":0,"mode":4},{"attributes":{"NORMAL":5,"POSITION":1},"indices":9,"material":0,"mode":4},{"attributes":{"NORMAL":6,"POSITION":2},"indices":10,"material":0,"mode":4},{"attributes":{"NORMAL":7,"POSITION":3},"indices":11,"material":0,"mode":4}]}],"nodes":[{"rotation":[-0.7071067811865475,0.0,0.0,0.7071067811865475],"mesh":0,"name":"=>[0:1:1:2]"}],"scene":0,"scenes":[{"nodes":[0]}]}