{"accessors":[{"bufferView":0,"byteOffset":0,"componentType":5126,"count":256,"max":[0.01899673641100857,0.0105,0.004],"min":[-0.01899673641100857,-0.0105,0.003999999999999999],"type":"VEC3"},{"bufferView":0,"byteOffset":3072,"componentType":5126,"count":4,"max":[0.0085,-0.0105,0.004],"min":[-0.0085,-0.0105,0.0],"type":"VEC3"},{"bufferView":0,"byteOffset":3120,"componentType":5126,"count":128,"max":[0.01899673641100857,0.0105,0.004],"min":[0.0085,-0.0105,0.0],"type":"VEC3"},{"bufferView":0,"byteOffset":4656,"componentType":5126,"count":128,"max":[-0.0085,0.0105,0.004],"min":[-0.01899673641100857,-0.0105,0.0],"type":"VEC3"},{"bufferView":0,"byteOffset":6192,"componentType":5126,"count":4,"max":[0.0085,0.0105,0.003999999999999999],"min":[-0.0085,0.0105,0.0],"type":"VEC3"},{"bufferView":0,"byteOffset":6240,"componentType":5126,"count":4,"max":[0.008505,0.0065000000000000014,0.004],"min":[-0.008505,0.006500000000000001,0.0],"type":"VEC3"},{"bufferView":0,"byteOffset":6288,"componentType":5126,"count":4,"max":[-0.008505,0.0065000000000000014,0.004],"min":[-0.008505,0.006499998076923,0.0],"type":"VEC3"},{"bufferView":0,"byteOffset":6336,"componentType":5126,"count":128,"max":[-0.008505,0.006499998076923,0.004],"min":[-0.014997981661147457,-0.006499998076923001,0.0],"type":"VEC3"},{"bufferView":0,"byteOffset":7872,"componentType":5126,"count":4,"max":[-0.008505,-0.006499998076923,0.004],"min":[-0.008505,-0.006500000000000001,0.0],"type":"VEC3"},{"bufferView":0,"byteOffset":7920,"componentType":5126,"count":4,"max":[0.008505,-0.006500000000000001,0.004],"min":[-0.008505,-0.006500000000000001,0.0],"type":"VEC3"},{"bufferView":0,"byteOffset":7968,"componentType":5126,"count":4,"max":[0.008505,-0.006499998076923,0.004],"min":[0.008505,-0.006500000000000001,0.0],"type":"VEC3"},{"bufferView":0,"byteOffset":8016,"componentType":5126,"count":128,"max":[0.014997981661147457,0.006499998076923,0.004],"min":[0.008505,-0.006499998076923001,0.0],"type":"VEC3"},{"bufferView":0,"byteOffset":9552,"componentType":5126,"count":4,"max":[0.008505,0.0065000000000000014,0.004],"min":[0.008505,0.006499998076923,0.0],"type":"VEC3"},{"bufferView":0,"byteOffset":9600,"componentType":5126,"count":256,"max":[0.01899673641100857,0.0105,0.0],"min":[-0.01899673641100857,-0.0105,0.0],"type":"VEC3"},{"bufferView":1,"byteOffset":0,"componentType":5126,"count":256,"type":"VEC3"},{"bufferView":1,"byteOffset":3072,"componentType":5126,"count":4,"type":"VEC3"},{"bufferView":1,"byteOffset":3120,"componentType":5126,"count":128,"type":"VEC3"},{"bufferView":1,"byteOffset":4656,"componentType":5126,"count":128,"type":"VEC3"},{"bufferView":1,"byteOffset":6192,"componentType":5126,"count":4,"type":"VEC3"},{"bufferView":1,"byteOffset":6240,"componentType":5126,"count":4,"type":"VEC3"},{"bufferView":1,"byteOffset":6288,"componentType":5126,"count":4,"type":"VEC3"},{"bufferView":1,"byteOffset":6336,"componentType":5126,"count":128,"type":"VEC3"},{"bufferView":1,"byteOffset":7872,"componentType":5126,"count":4,"type":"VEC3"},{"bufferView":1,"byteOffset":7920,"componentType":5126,"count":4,"type":"VEC3"},{"bufferView":1,"byteOffset":7968,"componentType":5126,"count":4,"type":"VEC3"},{"bufferView":1,"byteOffset":8016,"componentType":5126,"count":128,"type":"VEC3"},{"bufferView":1,"byteOffset":9552,"componentType":5126,"count":4,"type":"VEC3"},{"bufferView":1,"byteOffset":9600,"componentType":5126,"count":256,"type":"VEC3"},{"bufferView":2,"byteOffset":0,"componentType":5123,"count":768,"type":"SCALAR"},{"bufferView":2,"byteOffset":1536,"componentType":5123,"count":6,"type":"SCALAR"},{"bufferView":2,"byteOffset":1548,"componentType":5123,"count":378,"type":"SCALAR"},{"bufferView":2,"byteOffset":2304,"componentType":5123,"count":378,"type":"SCALAR"},{"bufferView":2,"byteOffset":3060,"componentType":5123,"count":6,"type":"SCALAR"},{"bufferView":2,"byteOffset":3072,"componentType":5123,"count":6,"type":"SCALAR"},{"bufferView":2,"byteOffset":3084,"componentType":5123,"count":6,"type":"SCALAR"},{"bufferView":2,"byteOffset":3096,"componentType":5123,"count":378,"type":"SCALAR"},{"bufferView":2,"byteOffset":3852,"componentType":5123,"count":6,"type":"SCALAR"},{"bufferView":2,"byteOffset":3864,"componentType":5123,"count":6,"type":"SCALAR"},{"bufferView":2,"byteOffset":3876,"componentType":5123,"count":6,"type":"SCALAR"},{"bufferView":2,"byteOffset":3888,"componentType":5123,"count":378,"type":"SCALAR"},{"bufferView":2,"byteOffset":4644,"componentType":5123,"count":6,"type":"SCALAR"},{"bufferView":2,"byteOffset":4656,"componentType":5123,"count":768,"type":"SCALAR"}],"asset":{"generator":"Open CASCADE Technology 7.8 [dev.opencascade.org]","version":"2.0"},"bufferViews":[{"buffer":0,"byteLength":12672,"byteOffset":0,"byteStride":12,"target":34962},{"buffer":0,"byteLength":12672,"byteOffset":12672,"byteStride":12,"target":34962},{"buffer":0,"byteLength":6192,"byteOffset":25344,"target":34963}],"buffers":[{"byteLength":31536,"uri":"quick_link_4mm.bin"}],"meshes":[{"name":"COMPOUND","primitives":[{"attributes":{"NORMAL":14,"POSITION":0},"indices":28,"mode":4},{"attributes":{"NORMAL":15,"POSITION":1},"indices":29,"mode":4},{"attributes":{"NORMAL":16,"POSITION":2},"indices":30,"mode":4},{"attributes":{"NORMAL":17,"POSITION":3},"indices":31,"mode":4},{"attributes":{"NORMAL":18,"POSITION":4},"indices":32,"mode":4},{"attributes":{"NORMAL":19,"POSITION":5},"indices":33,"mode":4},{"attributes":{"NORMAL":20,"POSITION":6},"indices":34,"mode":4},{"attributes":{"NORMAL":21,"POSITION":7},"indices":35,"mode":4},{"attributes":{"NORMAL":22,"POSITION":8},"indices":36,"mode":4},{"attributes":{"NORMAL":23,"POSITION":9},"indices":37,"mode":4},{"attributes":{"NORMAL":24,"POSITION":10},"indices":38,"mode":4},{"attributes":{"NORMAL":25,"POSITION":11},"indices":39,"mode":4},{"attributes":{"NORMAL":26,"POSITION":12},"indices":40,"mode":4},{"attributes":{"NORMAL":27,"POSITION":13},"indices":41,"mode":4}]}],"nodes":[{"rotation":[-0.7071067811865475,0.0,0.0,0.7071067811865475],"mesh":0,"name":"=>[0:1:1:2]"}],"scene":0,"scenes":[{"nodes":[0]}]}