{"accessors":[{"bufferView":0,"byteOffset":0,"componentType":5126,"count":254,"max":[0.01,0.009996891820008163,0.004],"min":[-0.01,-0.009996891820008165,0.0],"type":"VEC3"},{"bufferView":0,"byteOffset":3048,"componentType":5126,"count":258,"max":[0.01,0.009996891820008163,0.004],"min":[-0.01,-0.009996891820008165,0.003999999999999999],"type":"VEC3"},{"bufferView":0,"byteOffset":6144,"componentType":5126,"count":252,"max":[0.01,0.009996891820008163,0.0],"min":[-0.01,-0.009996891820008165,0.0],"type":"VEC3"},{"bufferView":0,"byteOffset":9168,"componentType":5126,"count":66,"max":[-0.004,-0.003999999999999999,0.013000000000000001],"min":[-0.006,-0.006,0.004],"type":"VEC3"},{"bufferView":0,"byteOffset":9960,"componentType":5126,"count":4,"max":[0.004,-0.006,0.013000000000000001],"min":[-0.004,-0.006,0.004],"type":"VEC3"},{"bufferView":0,"byteOffset":10008,"componentType":5126,"count":66,"max":[0.006,-0.003999999999999999,0.013000000000000001],"min":[0.004,-0.006,0.004],"type":"VEC3"},{"bufferView":0,"byteOffset":10800,"componentType":5126,"count":4,"max":[0.006,0.004,0.013000000000000001],"min":[0.006,-0.004,0.003999999999999999],"type":"VEC3"},{"bufferView":0,"byteOffset":10848,"componentType":5126,"count":66,"max":[0.006,0.006000000000000001,0.013000000000000001],"min":[0.004,0.004,0.003999999999999999],"type":"VEC3"},{"bufferView":0,"byteOffset":11640,"componentType":5126,"count":4,"max":[0.004,0.006000000000000001,0.013000000000000001],"min":[-0.004,0.006,0.004],"type":"VEC3"},{"bufferView":0,"byteOffset":11688,"componentType":5126,"count":66,"max":[-0.004,0.006000000000000001,0.013000000000000001],"min":[-0.006,0.004,0.003999999999999999],"type":"VEC3"},{"bufferView":0,"byteOffset":12480,"componentType":5126,"count":4,"max":[-0.006,0.004,0.013000000000000001],"min":[-0.006,-0.004,0.003999999999999999],"type":"VEC3"},{"bufferView":0,"byteOffset":12528,"componentType":5126,"count":254,"max":[0.0026000000000000003,0.0025991918732021224,0.013000000000000001],"min":[-0.0026000000000000003,-0.002599191873202123,0.0],"type":"VEC3"},{"bufferView":0,"byteOffset":15576,"componentType":5126,"count":258,"max":[0.006,0.006,0.013000000000000001],"min":[-0.006,-0.006,0.013000000000000001],"type":"VEC3"},{"bufferView":1,"byteOffset":0,"componentType":5126,"count":254,"type":"VEC3"},{"bufferView":1,"byteOffset":3048,"componentType":5126,"count":258,"type":"VEC3"},{"bufferView":1,"byteOffset":6144,"componentType":5126,"count":252,"type":"VEC3"},{"bufferView":1,"byteOffset":9168,"componentType":5126,"count":66,"type":"VEC3"},{"bufferView":1,"byteOffset":9960,"componentType":5126,"count":4,"type":"VEC3"},{"bufferView":1,"byteOffset":10008,"componentType":5126,"count":66,"type":"VEC3"},{"bufferView":1,"byteOffset":10800,"componentType":5126,"count":4,"type":"VEC3"},{"bufferView":1,"byteOffset":10848,"componentType":5126,"count":66,"type":"VEC3"},{"bufferView":1,"byteOffset":11640,"componentType":5126,"count":4,"type":"VEC3"},{"bufferView":1,"byteOffset":11688,"componentType":5126,"count":66,"type":"VEC3"},{"bufferView":1,"byteOffset":12480,"componentType":5126,"count":4,"type":"VEC3"},{"bufferView":1,"byteOffset":12528,"componentType":5126,"count":254,"type":"VEC3"},{"bufferView":1,"byteOffset":15576,"componentType":5126,"count":258,"type":"VEC3"},{"bufferView":2,"byteOffset":0,"componentType":5123,"count":756,"type":"SCALAR"},{"bufferView":2,"byteOffset":1512,"componentType":5123,"count":774,"type":"SCALAR"},{"bufferView":2,"byteOffset":3060,"componentType":5123,"count":756,"type":"SCALAR"},{"bufferView":2,"byteOffset":4572,"componentType":5123,"count":192,"type":"SCALAR"},{"bufferView":2,"byteOffset":4956,"componentType":5123,"count":6,"type":"SCALAR"},{"bufferView":2,"byteOffset":4968,"componentType":5123,"count":192,"type":"SCALAR"},{"bufferView":2,"byteOffset":5352,"componentType":5123,"count":6,"type":"SCALAR"},{"bufferView":2,"byteOffset":5364,"componentType":5123,"count":192,"type":"SCALAR"},{"bufferView":2,"byteOffset":5748,"componentType":5123,"count":6,"type":"SCALAR"},{"bufferView":2,"byteOffset":5760,"componentType":5123,"count":192,"type":"SCALAR"},{"bufferView":2,"byteOffset":6144,"componentType":5123,"count":6,"type":"SCALAR"},{"bufferView":2,"byteOffset":6156,"componentType":5123,"count":756,"type":"SCALAR"},{"bufferView":2,"byteOffset":7668,"componentType":5123,"count":774,"type":"SCALAR"}],"asset":{"generator":"Open CASCADE Technology 7.8 [dev.opencascade.org]","version":"2.0"},"bufferViews":[{"buffer":0,"byteLength":18672,"byteOffset":0,"byteStride":12,"target":34962},{"buffer":0,"byteLength":18672,"byteOffset":18672,"byteStride":12,"target":34962},{"buffer":0,"byteLength":9216,"byteOffset":37344,"target":34963}],"buffers":[{"byteLength":46560,"uri":"rail_button_rail_button_1515.bin"}],"meshes":[{"name":"COMPOUND","primitives":[{"attributes":{"NORMAL":13,"POSITION":0},"indices":26,"mode":4},{"attributes":{"NORMAL":14,"POSITION":1},"indices":27,"mode":4},{"attributes":{"NORMAL":15,"POSITION":2},"indices":28,"mode":4},{"attributes":{"NORMAL":16,"POSITION":3},"indices":29,"mode":4},{"attributes":{"NORMAL":17,"POSITION":4},"indices":30,"mode":4},{"attributes":{"NORMAL":18,"POSITION":5},"indices":31,"mode":4},{"attributes":{"NORMAL":19,"POSITION":6},"indices":32,"mode":4},{"attributes":{"NORMAL":20,"POSITION":7},"indices":33,"mode":4},{"attributes":{"NORMAL":21,"POSITION":8},"indices":34,"mode":4},{"attributes":{"NORMAL":22,"POSITION":9},"indices":35,"mode":4},{"attributes":{"NORMAL":23,"POSITION":10},"indices":36,"mode":4},{"attributes":{"NORMAL":24,"POSITION":11},"indices":37,"mode":4},{"attributes":{"NORMAL":25,"POSITION":12},"indices":38,"mode":4}]}],"nodes":[{"rotation":[-0.7071067811865475,0.0,0.0,0.7071067811865475],"mesh":0,"name":"=>[0:1:1:2]"}],"scene":0,"scenes":[{"nodes":[0]}]}