{"accessors":[{"bufferView":0,"byteOffset":0,"componentType":5126,"count":254,"max":[0.001621113885844,0.0016206100144695531,0.0],"min":[-0.001621113885844,-0.0016206100144695534,-0.006],"type":"VEC3"},{"bufferView":0,"byteOffset":3048,"componentType":5126,"count":132,"max":[0.001621113885844,0.0016206100144695531,0.0],"min":[-0.001621113885844,-0.0016206100144695534,0.0],"type":"VEC3"},{"bufferView":0,"byteOffset":4632,"componentType":5126,"count":126,"max":[0.001621113885844,0.0016206100144695531,-0.006],"min":[-0.001621113885844,-0.0016206100144695534,-0.006],"type":"VEC3"},{"bufferView":0,"byteOffset":6144,"componentType":5126,"count":4,"max":[0.001154700538379,0.001,0.0],"min":[0.00057735026919,0.0,-0.0025],"type":"VEC3"},{"bufferView":0,"byteOffset":6192,"componentType":5126,"count":4,"max":[0.00057735026919,0.001,0.0],"min":[-0.00057735026919,0.001,-0.0025],"type":"VEC3"},{"bufferView":0,"byteOffset":6240,"componentType":5126,"count":4,"max":[-0.00057735026919,0.001,0.0],"min":[-0.001154700538379,1.4141003182999998e-19,-0.0025],"type":"VEC3"},{"bufferView":0,"byteOffset":6288,"componentType":5126,"count":4,"max":[-0.00057735026919,1.4141003183e-19,0.0],"min":[-0.001154700538379,-0.001,-0.0025],"type":"VEC3"},{"bufferView":0,"byteOffset":6336,"componentType":5126,"count":4,"max":[0.00057735026919,-0.001,0.0],"min":[-0.00057735026919,-0.001,-0.0025],"type":"VEC3"},{"bufferView":0,"byteOffset":6384,"componentType":5126,"count":4,"max":[0.001154700538379,0.0,0.0],"min":[0.00057735026919,-0.001,-0.0025],"type":"VEC3"},{"bufferView":0,"byteOffset":6432,"componentType":5126,"count":6,"max":[0.001154700538379,0.001,-0.0025],"min":[-0.001154700538379,-0.001,-0.0025],"type":"VEC3"},{"bufferView":1,"byteOffset":0,"componentType":5126,"count":254,"type":"VEC3"},{"bufferView":1,"byteOffset":3048,"componentType":5126,"count":132,"type":"VEC3"},{"bufferView":1,"byteOffset":4632,"componentType":5126,"count":126,"type":"VEC3"},{"bufferView":1,"byteOffset":6144,"componentType":5126,"count":4,"type":"VEC3"},{"bufferView":1,"byteOffset":6192,"componentType":5126,"count":4,"type":"VEC3"},{"bufferView":1,"byteOffset":6240,"componentType":5126,"count":4,"type":"VEC3"},{"bufferView":1,"byteOffset":6288,"componentType":5126,"count":4,"type":"VEC3"},{"bufferView":1,"byteOffset":6336,"componentType":5126,"count":4,"type":"VEC3"},{"bufferView":1,"byteOffset":6384,"componentType":5126,"count":4,"type":"VEC3"},{"bufferView":1,"byteOffset":6432,"componentType":5126,"count":6,"type":"VEC3"},{"bufferView":2,"byteOffset":0,"componentType":5123,"count":756,"type":"SCALAR"},{"bufferView":2,"byteOffset":1512,"componentType":5123,"count":396,"type":"SCALAR"},{"bufferView":2,"byteOffset":2304,"componentType":5123,"count":372,"type":"SCALAR"},{"bufferView":2,"byteOffset":3048,"componentType":5123,"count":6,"type":"SCALAR"},{"bufferView":2,"byteOffset":3060,"componentType":5123,"count":6,"type":"SCALAR"},{"bufferView":2,"byteOffset":3072,"componentType":5123,"count":6,"type":"SCALAR"},{"bufferView":2,"byteOffset":3084,"componentType":5123,"count":6,"type":"SCALAR"},{"bufferView":2,"byteOffset":3096,"componentType":5123,"count":6,"type":"SCALAR"},{"bufferView":2,"byteOffset":3108,"componentType":5123,"count":6,"type":"SCALAR"},{"bufferView":2,"byteOffset":3120,"componentType":5123,"count":12,"type":"SCALAR"}],"asset":{"generator":"Open CASCADE Technology 7.8 [dev.opencascade.org]","version":"2.0"},"bufferViews":[{"buffer":0,"byteLength":6504,"byteOffset":0,"byteStride":12,"target":34962},{"buffer":0,"byteLength":6504,"byteOffset":6504,"byteStride":12,"target":34962},{"buffer":0,"byteLength":3144,"byteOffset":13008,"target":34963}],"buffers":[{"byteLength":16152,"uri":"set_screw_M4x6.bin"}],"materials":[{"name":"mat_0","pbrMetallicRoughness":{"baseColorFactor":[0.7529411911964417,0.7529411911964417,0.7529411911964417,1.0]},"doubleSided":true}],"meshes":[{"name":"SetScrew_M4-0_7,_6_00,_iso4026_","primitives":[{"attributes":{"NORMAL":10,"POSITION":0},"indices":20,"material":0,"mode":4},{"attributes":{"NORMAL":11,"POSITION":1},"indices":21,"material":0,"mode":4},{"attributes":{"NORMAL":12,"POSITION":2},"indices":22,"material":0,"mode":4},{"attributes":{"NORMAL":13,"POSITION":3},"indices":23,"material":0,"mode":4},{"attributes":{"NORMAL":14,"POSITION":4},"indices":24,"material":0,"mode":4},{"attributes":{"NORMAL":15,"POSITION":5},"indices":25,"material":0,"mode":4},{"attributes":{"NORMAL":16,"POSITION":6},"indices":26,"material":0,"mode":4},{"attributes":{"NORMAL":17,"POSITION":7},"indices":27,"material":0,"mode":4},{"attributes":{"NORMAL":18,"POSITION":8},"indices":28,"material":0,"mode":4},{"attributes":{"NORMAL":19,"POSITION":9},"indices":29,"material":0,"mode":4}]}],"nodes":[{"rotation":[-0.7071067811865475,0.0,0.0,0.7071067811865475],"mesh":0,"name":"=>[0:1:1:2]"}],"scene":0,"scenes":[{"nodes":[0]}]}