{"accessors":[{"bufferView":0,"byteOffset":0,"componentType":5126,"count":252,"max":[0.00199,0.0019893814721816242,0.0],"min":[-0.00199,-0.0019893814721816247,0.0],"type":"VEC3"},{"bufferView":0,"byteOffset":3024,"componentType":5126,"count":254,"max":[0.00199,0.0019893814721816242,0.00185],"min":[-0.00199,-0.0019893814721816247,0.0],"type":"VEC3"},{"bufferView":0,"byteOffset":6072,"componentType":5126,"count":254,"max":[0.000783493649054,0.0007832501251256278,0.0],"min":[-0.000783493649054,-0.0007832501251256279,-0.008],"type":"VEC3"},{"bufferView":0,"byteOffset":9120,"componentType":5126,"count":4191,"max":[0.00199,0.0019893814721816242,0.002],"min":[-0.00199,-0.0019893814721816247,0.00185],"type":"VEC3"},{"bufferView":0,"byteOffset":59412,"componentType":5126,"count":126,"max":[0.000783493649054,0.0007832501251256278,-0.008],"min":[-0.000783493649054,-0.0007832501251256279,-0.008],"type":"VEC3"},{"bufferView":0,"byteOffset":60924,"componentType":5126,"count":132,"max":[0.00184,0.0018394280948815021,0.002],"min":[-0.00184,-0.0018394280948815023,0.0019999999999999996],"type":"VEC3"},{"bufferView":0,"byteOffset":62508,"componentType":5126,"count":4,"max":[0.0008660254037839999,0.0,0.002],"min":[0.00043301270189199996,-0.00075,0.001],"type":"VEC3"},{"bufferView":0,"byteOffset":62556,"componentType":5126,"count":4,"max":[0.00043301270189199996,-0.00075,0.002],"min":[-0.00043301270189199996,-0.00075,0.001],"type":"VEC3"},{"bufferView":0,"byteOffset":62604,"componentType":5126,"count":4,"max":[-0.00043301270189199996,1.060575238725e-19,0.002],"min":[-0.0008660254037839999,-0.00075,0.001],"type":"VEC3"},{"bufferView":0,"byteOffset":62652,"componentType":5126,"count":4,"max":[-0.00043301270189199996,0.00075,0.002],"min":[-0.0008660254037839999,1.0605752387249999e-19,0.0009999999999999998],"type":"VEC3"},{"bufferView":0,"byteOffset":62700,"componentType":5126,"count":4,"max":[0.00043301270189199996,0.00075,0.002],"min":[-0.00043301270189199996,0.00075,0.0009999999999999998],"type":"VEC3"},{"bufferView":0,"byteOffset":62748,"componentType":5126,"count":4,"max":[0.0008660254037839999,0.00075,0.002],"min":[0.00043301270189199996,0.0,0.0009999999999999998],"type":"VEC3"},{"bufferView":0,"byteOffset":62796,"componentType":5126,"count":6,"max":[0.0008660254037839999,0.00075,0.001],"min":[-0.0008660254037839999,-0.00075,0.0009999999999999998],"type":"VEC3"},{"bufferView":1,"byteOffset":0,"componentType":5126,"count":252,"type":"VEC3"},{"bufferView":1,"byteOffset":3024,"componentType":5126,"count":254,"type":"VEC3"},{"bufferView":1,"byteOffset":6072,"componentType":5126,"count":254,"type":"VEC3"},{"bufferView":1,"byteOffset":9120,"componentType":5126,"count":4191,"type":"VEC3"},{"bufferView":1,"byteOffset":59412,"componentType":5126,"count":126,"type":"VEC3"},{"bufferView":1,"byteOffset":60924,"componentType":5126,"count":132,"type":"VEC3"},{"bufferView":1,"byteOffset":62508,"componentType":5126,"count":4,"type":"VEC3"},{"bufferView":1,"byteOffset":62556,"componentType":5126,"count":4,"type":"VEC3"},{"bufferView":1,"byteOffset":62604,"componentType":5126,"count":4,"type":"VEC3"},{"bufferView":1,"byteOffset":62652,"componentType":5126,"count":4,"type":"VEC3"},{"bufferView":1,"byteOffset":62700,"componentType":5126,"count":4,"type":"VEC3"},{"bufferView":1,"byteOffset":62748,"componentType":5126,"count":4,"type":"VEC3"},{"bufferView":1,"byteOffset":62796,"componentType":5126,"count":6,"type":"VEC3"},{"bufferView":2,"byteOffset":0,"componentType":5123,"count":756,"type":"SCALAR"},{"bufferView":2,"byteOffset":1512,"componentType":5123,"count":756,"type":"SCALAR"},{"bufferView":2,"byteOffset":3024,"componentType":5123,"count":756,"type":"SCALAR"},{"bufferView":2,"byteOffset":4536,"componentType":5123,"count":24192,"type":"SCALAR"},{"bufferView":2,"byteOffset":52920,"componentType":5123,"count":372,"type":"SCALAR"},{"bufferView":2,"byteOffset":53664,"componentType":5123,"count":396,"type":"SCALAR"},{"bufferView":2,"byteOffset":54456,"componentType":5123,"count":6,"type":"SCALAR"},{"bufferView":2,"byteOffset":54468,"componentType":5123,"count":6,"type":"SCALAR"},{"bufferView":2,"byteOffset":54480,"componentType":5123,"count":6,"type":"SCALAR"},{"bufferView":2,"byteOffset":54492,"componentType":5123,"count":6,"type":"SCALAR"},{"bufferView":2,"byteOffset":54504,"componentType":5123,"count":6,"type":"SCALAR"},{"bufferView":2,"byteOffset":54516,"componentType":5123,"count":6,"type":"SCALAR"},{"bufferView":2,"byteOffset":54528,"componentType":5123,"count":12,"type":"SCALAR"}],"asset":{"generator":"Open CASCADE Technology 7.8 [dev.opencascade.org]","version":"2.0"},"bufferViews":[{"buffer":0,"byteLength":62868,"byteOffset":0,"byteStride":12,"target":34962},{"buffer":0,"byteLength":62868,"byteOffset":62868,"byteStride":12,"target":34962},{"buffer":0,"byteLength":54552,"byteOffset":125736,"target":34963}],"buffers":[{"byteLength":180288,"uri":"socket_head_cap_screw_M2x8.bin"}],"materials":[{"name":"mat_0","pbrMetallicRoughness":{"baseColorFactor":[0.7529411911964417,0.7529411911964417,0.7529411911964417,1.0]},"doubleSided":true}],"meshes":[{"name":"SocketHeadCapScrew_M2-0_4,_8_00,_iso4762_","primitives":[{"attributes":{"NORMAL":13,"POSITION":0},"indices":26,"material":0,"mode":4},{"attributes":{"NORMAL":14,"POSITION":1},"indices":27,"material":0,"mode":4},{"attributes":{"NORMAL":15,"POSITION":2},"indices":28,"material":0,"mode":4},{"attributes":{"NORMAL":16,"POSITION":3},"indices":29,"material":0,"mode":4},{"attributes":{"NORMAL":17,"POSITION":4},"indices":30,"material":0,"mode":4},{"attributes":{"NORMAL":18,"POSITION":5},"indices":31,"material":0,"mode":4},{"attributes":{"NORMAL":19,"POSITION":6},"indices":32,"material":0,"mode":4},{"attributes":{"NORMAL":20,"POSITION":7},"indices":33,"material":0,"mode":4},{"attributes":{"NORMAL":21,"POSITION":8},"indices":34,"material":0,"mode":4},{"attributes":{"NORMAL":22,"POSITION":9},"indices":35,"material":0,"mode":4},{"attributes":{"NORMAL":23,"POSITION":10},"indices":36,"material":0,"mode":4},{"attributes":{"NORMAL":24,"POSITION":11},"indices":37,"material":0,"mode":4},{"attributes":{"NORMAL":25,"POSITION":12},"indices":38,"material":0,"mode":4}]}],"nodes":[{"rotation":[-0.7071067811865475,0.0,0.0,0.7071067811865475],"mesh":0,"name":"=>[0:1:1:2]"}],"scene":0,"scenes":[{"nodes":[0]}]}