{"accessors":[{"bufferView":0,"byteOffset":0,"componentType":5126,"count":252,"max":[0.00436,0.004358644833523559,0.0],"min":[-0.00436,-0.00435864483352356,0.0],"type":"VEC3"},{"bufferView":0,"byteOffset":3024,"componentType":5126,"count":254,"max":[0.00436,0.004358644833523559,0.004625],"min":[-0.00436,-0.00435864483352356,0.0],"type":"VEC3"},{"bufferView":0,"byteOffset":6072,"componentType":5126,"count":254,"max":[0.0020669872981080003,0.0020663448412516637,0.0],"min":[-0.0020669872981080003,-0.002066344841251664,-0.016],"type":"VEC3"},{"bufferView":0,"byteOffset":9120,"componentType":5126,"count":4191,"max":[0.00436,0.004358644833523559,0.005],"min":[-0.00436,-0.00435864483352356,0.004625],"type":"VEC3"},{"bufferView":0,"byteOffset":59412,"componentType":5126,"count":126,"max":[0.0020669872981080003,0.0020663448412516637,-0.016],"min":[-0.0020669872981080003,-0.002066344841251664,-0.016],"type":"VEC3"},{"bufferView":0,"byteOffset":60924,"componentType":5126,"count":132,"max":[0.003985,0.003983761390273253,0.005],"min":[-0.003985,-0.0039837613902732535,0.005],"type":"VEC3"},{"bufferView":0,"byteOffset":62508,"componentType":5126,"count":4,"max":[0.0023094010767589998,0.0,0.005],"min":[0.001154700538379,-0.002,0.0025],"type":"VEC3"},{"bufferView":0,"byteOffset":62556,"componentType":5126,"count":4,"max":[0.001154700538379,-0.002,0.005],"min":[-0.001154700538379,-0.002,0.0025000000000000005],"type":"VEC3"},{"bufferView":0,"byteOffset":62604,"componentType":5126,"count":4,"max":[-0.001154700538379,2.8282006366e-19,0.005],"min":[-0.0023094010767589998,-0.002,0.0025],"type":"VEC3"},{"bufferView":0,"byteOffset":62652,"componentType":5126,"count":4,"max":[-0.001154700538379,0.002,0.005],"min":[-0.0023094010767589998,2.8282006366e-19,0.0025],"type":"VEC3"},{"bufferView":0,"byteOffset":62700,"componentType":5126,"count":4,"max":[0.001154700538379,0.002,0.005],"min":[-0.001154700538379,0.002,0.0025],"type":"VEC3"},{"bufferView":0,"byteOffset":62748,"componentType":5126,"count":4,"max":[0.0023094010767589998,0.002,0.005],"min":[0.001154700538379,0.0,0.0025],"type":"VEC3"},{"bufferView":0,"byteOffset":62796,"componentType":5126,"count":6,"max":[0.0023094010767589998,0.002,0.0025000000000000005],"min":[-0.0023094010767589998,-0.002,0.0025],"type":"VEC3"},{"bufferView":1,"byteOffset":0,"componentType":5126,"count":252,"type":"VEC3"},{"bufferView":1,"byteOffset":3024,"componentType":5126,"count":254,"type":"VEC3"},{"bufferView":1,"byteOffset":6072,"componentType":5126,"count":254,"type":"VEC3"},{"bufferView":1,"byteOffset":9120,"componentType":5126,"count":4191,"type":"VEC3"},{"bufferView":1,"byteOffset":59412,"componentType":5126,"count":126,"type":"VEC3"},{"bufferView":1,"byteOffset":60924,"componentType":5126,"count":132,"type":"VEC3"},{"bufferView":1,"byteOffset":62508,"componentType":5126,"count":4,"type":"VEC3"},{"bufferView":1,"byteOffset":62556,"componentType":5126,"count":4,"type":"VEC3"},{"bufferView":1,"byteOffset":62604,"componentType":5126,"count":4,"type":"VEC3"},{"bufferView":1,"byteOffset":62652,"componentType":5126,"count":4,"type":"VEC3"},{"bufferView":1,"byteOffset":62700,"componentType":5126,"count":4,"type":"VEC3"},{"bufferView":1,"byteOffset":62748,"componentType":5126,"count":4,"type":"VEC3"},{"bufferView":1,"byteOffset":62796,"componentType":5126,"count":6,"type":"VEC3"},{"bufferView":2,"byteOffset":0,"componentType":5123,"count":756,"type":"SCALAR"},{"bufferView":2,"byteOffset":1512,"componentType":5123,"count":756,"type":"SCALAR"},{"bufferView":2,"byteOffset":3024,"componentType":5123,"count":756,"type":"SCALAR"},{"bufferView":2,"byteOffset":4536,"componentType":5123,"count":24192,"type":"SCALAR"},{"bufferView":2,"byteOffset":52920,"componentType":5123,"count":372,"type":"SCALAR"},{"bufferView":2,"byteOffset":53664,"componentType":5123,"count":396,"type":"SCALAR"},{"bufferView":2,"byteOffset":54456,"componentType":5123,"count":6,"type":"SCALAR"},{"bufferView":2,"byteOffset":54468,"componentType":5123,"count":6,"type":"SCALAR"},{"bufferView":2,"byteOffset":54480,"componentType":5123,"count":6,"type":"SCALAR"},{"bufferView":2,"byteOffset":54492,"componentType":5123,"count":6,"type":"SCALAR"},{"bufferView":2,"byteOffset":54504,"componentType":5123,"count":6,"type":"SCALAR"},{"bufferView":2,"byteOffset":54516,"componentType":5123,"count":6,"type":"SCALAR"},{"bufferView":2,"byteOffset":54528,"componentType":5123,"count":12,"type":"SCALAR"}],"asset":{"generator":"Open CASCADE Technology 7.8 [dev.opencascade.org]","version":"2.0"},"bufferViews":[{"buffer":0,"byteLength":62868,"byteOffset":0,"byteStride":12,"target":34962},{"buffer":0,"byteLength":62868,"byteOffset":62868,"byteStride":12,"target":34962},{"buffer":0,"byteLength":54552,"byteOffset":125736,"target":34963}],"buffers":[{"byteLength":180288,"uri":"socket_head_cap_screw_M5x16.bin"}],"materials":[{"name":"mat_0","pbrMetallicRoughness":{"baseColorFactor":[0.7529411911964417,0.7529411911964417,0.7529411911964417,1.0]},"doubleSided":true}],"meshes":[{"name":"SocketHeadCapScrew_M5-0_8,_16_00,_iso4762_","primitives":[{"attributes":{"NORMAL":13,"POSITION":0},"indices":26,"material":0,"mode":4},{"attributes":{"NORMAL":14,"POSITION":1},"indices":27,"material":0,"mode":4},{"attributes":{"NORMAL":15,"POSITION":2},"indices":28,"material":0,"mode":4},{"attributes":{"NORMAL":16,"POSITION":3},"indices":29,"material":0,"mode":4},{"attributes":{"NORMAL":17,"POSITION":4},"indices":30,"material":0,"mode":4},{"attributes":{"NORMAL":18,"POSITION":5},"indices":31,"material":0,"mode":4},{"attributes":{"NORMAL":19,"POSITION":6},"indices":32,"material":0,"mode":4},{"attributes":{"NORMAL":20,"POSITION":7},"indices":33,"material":0,"mode":4},{"attributes":{"NORMAL":21,"POSITION":8},"indices":34,"material":0,"mode":4},{"attributes":{"NORMAL":22,"POSITION":9},"indices":35,"material":0,"mode":4},{"attributes":{"NORMAL":23,"POSITION":10},"indices":36,"material":0,"mode":4},{"attributes":{"NORMAL":24,"POSITION":11},"indices":37,"material":0,"mode":4},{"attributes":{"NORMAL":25,"POSITION":12},"indices":38,"material":0,"mode":4}]}],"nodes":[{"rotation":[-0.7071067811865475,0.0,0.0,0.7071067811865475],"mesh":0,"name":"=>[0:1:1:2]"}],"scene":0,"scenes":[{"nodes":[0]}]}